<svg width="134" height="54" viewBox="0 0 134 54" fill="none" xmlns="http://www.w3.org/2000/svg">
<path d="M120.39 17.7898C120.006 16.8313 120.773 15.8728 121.732 15.8728C122.69 15.8728 122.69 16.0645 122.882 16.4479L132.851 28.5252C133.617 29.4837 132.851 31.0173 131.7 31.0173H123.649C122.69 31.0173 122.115 30.2505 122.115 29.4837V27.9501C122.115 24.4994 121.348 21.0488 120.39 17.7898Z" stroke="#818385" stroke-width="1.23605" stroke-miterlimit="10"/>
<path d="M21.4711 29.4837C21.4711 30.2505 20.7043 31.0173 19.9375 31.0173H2.4926C1.53409 31.0173 0.958984 30.2505 0.958984 29.4837V17.4064C0.958984 16.4479 1.72579 15.8728 2.4926 15.8728H21.8545C22.8131 15.8728 23.5799 16.8313 23.1965 17.7898C21.8546 21.0488 21.2794 24.3077 21.2794 27.9501C21.2794 31.5924 21.2794 29.1003 21.4711 29.4837Z" stroke="#818385" stroke-width="1.23605" stroke-miterlimit="10"/>
<path d="M27.6055 26.6082C27.6055 37.1519 36.0404 45.7785 46.584 45.7785C57.1276 45.7785 65.5626 37.1519 65.5626 26.6082C65.5626 16.0646 56.9359 7.43799 46.584 7.43799C36.2321 7.43799 27.7972 16.0646 27.6055 26.6082ZM33.9317 26.7999C33.9317 19.7069 39.6827 13.9559 46.584 13.9559C53.4853 13.9559 59.2364 19.7069 59.2364 26.7999C59.2364 33.8929 53.4853 39.644 46.584 39.644C39.6827 39.644 33.9317 33.8929 33.9317 26.7999Z" stroke="#818385" stroke-width="0.274678" stroke-miterlimit="10"/>
<path d="M27.0303 26.7998C27.0303 37.7269 35.8486 46.7369 46.5839 46.7369C57.3193 46.7369 66.1376 37.7269 66.1376 26.7998C66.1376 15.8728 57.3193 6.86279 46.5839 6.86279C35.8486 6.86279 27.0303 15.8728 27.0303 26.7998ZM27.6054 26.7998C27.6054 16.0645 36.0403 7.4379 46.5839 7.4379C57.1276 7.4379 65.5625 16.0645 65.5625 26.7998C65.5625 37.5352 57.1276 46.1618 46.5839 46.1618C36.232 46.1618 27.6054 37.5352 27.6054 26.7998Z" stroke="#818385" stroke-width="0.274678" stroke-miterlimit="10"/>
<path d="M24.9215 30.0588C24.7298 28.9086 24.7298 27.9501 24.7298 26.7999H25.3049L25.4966 26.6082H24.5381C24.5381 25.458 24.5381 24.3078 24.7298 23.541H25.6883V23.1575H24.7298C24.9215 22.0073 25.1132 21.0488 25.4966 19.8986C25.4966 19.8986 26.4551 20.0903 26.4551 19.8986L25.4966 19.5152C25.88 18.5567 26.2634 17.4065 26.6468 16.448L27.6053 16.8314C27.6053 16.8314 27.6053 16.6397 27.797 16.6397L26.8385 16.2563C27.4136 15.2977 27.9887 14.3392 28.5638 13.3807C28.5638 13.3807 29.3306 13.9558 29.3306 13.7641H29.5223L28.7555 13.189C29.3306 12.2305 30.0975 11.4637 30.8643 10.6969C30.8643 10.6969 31.6311 11.4637 31.6311 11.272H31.8228L31.056 10.5052C31.8228 9.73838 32.5896 8.97157 33.5481 8.39646C33.5481 8.39646 34.1232 9.16327 34.1232 8.97157H34.3149L33.7398 8.20476C34.6983 7.62965 35.4651 7.05454 36.4236 6.47944L36.807 7.43795C36.807 7.43795 36.9987 7.43795 36.9987 7.24625L36.6153 6.28773C37.5739 5.71263 38.5324 5.32922 39.6826 4.94582M24.9215 30.0588H25.88M24.9215 30.0588C24.9215 31.4008 25.3049 32.551 25.6883 33.5095L26.6468 33.1261C26.6468 33.3178 25.6883 33.7012 25.6883 33.7012C25.88 34.8514 26.2634 35.8099 26.8385 36.7684L27.797 36.385C27.9887 36.385 27.9887 36.5767 27.9887 36.5767L27.0302 36.9601C27.6053 37.9186 28.1804 38.8771 28.7555 39.8357L29.5223 39.2606H29.7141C29.7141 39.4523 28.9472 40.0274 28.9472 40.0274C29.5223 40.9859 30.2892 41.7527 31.056 42.5195L31.8228 41.7527H32.0145C32.0145 41.9444 31.2477 42.7112 31.2477 42.7112C32.0145 43.478 32.7813 44.2448 33.7398 44.8199L34.3149 44.0531H34.5066C34.5066 44.2448 33.9315 45.0116 33.9315 45.0116C34.6983 45.5867 35.6568 46.1618 36.6153 46.7369L36.9987 45.7784C36.9987 45.9701 37.1904 45.9701 37.1904 45.9701L36.807 46.9286C37.7656 47.5038 38.9158 47.8872 39.8743 48.2706L40.2577 47.3121H40.4494L40.066 48.2706C41.0245 48.654 41.983 48.8457 43.1332 49.0374V48.0789H43.5166V49.0374C44.4751 49.2291 45.4336 49.2291 46.5839 49.2291V48.2706H46.9673V49.2291C48.1175 49.2291 49.2677 49.2291 50.2262 49.0374M50.2262 49.0374V48.0789M50.2262 49.0374C51.3764 49.0374 52.5266 48.654 53.4852 48.2706L53.1017 47.3121H53.2934L53.6769 48.2706C54.8271 47.8872 55.7856 47.5038 56.7441 46.9286L56.3607 45.9701C56.3607 45.7784 56.5524 45.7784 56.5524 45.7784L56.9358 46.7369C57.8943 46.1618 58.6611 45.5867 59.6196 45.0116L59.0445 44.2448H59.2362C59.2362 44.0531 59.8113 44.8199 59.8113 44.8199C60.7698 44.2448 61.5367 43.478 62.3035 42.7112L61.5367 41.9444H61.7284C61.7284 41.7527 62.4952 42.5195 62.4952 42.5195C63.262 41.7527 64.0288 40.9859 64.6039 40.0274L63.8371 39.4523H64.0288C64.0288 39.2606 64.7956 39.8357 64.7956 39.8357C65.3707 38.8771 65.9458 37.9186 66.5209 36.9601L65.5624 36.5767C65.7541 36.5767 65.7541 36.385 65.7541 36.385L66.7126 36.7684C67.096 35.8099 67.4794 34.6597 67.8628 33.7012L66.9043 33.3178C66.9043 33.1261 67.8628 33.3178 67.8628 33.3178C68.2462 32.1676 68.4379 31.2091 68.6296 30.0588H67.6711V29.6754H68.6296C68.8213 28.9086 68.8214 27.7584 68.8214 26.6082H67.8628V26.2248H68.8214C68.8214 25.0746 68.8213 24.1161 68.6296 22.9658M68.6296 22.9658H67.6711M68.6296 22.9658C68.6296 21.6239 68.2462 20.4737 67.8628 19.5152L66.9043 19.8986C66.9043 19.7069 67.8628 19.3235 67.8628 19.3235C67.6711 18.1733 67.2877 17.2148 66.7126 16.2563L65.7541 16.6397C65.5624 16.6397 65.5624 16.448 65.5624 16.448L66.5209 16.0646C65.9458 15.106 65.3707 14.1475 64.7956 13.189L64.0288 13.7641H63.8371C63.8371 13.5724 64.6039 12.9973 64.6039 12.9973C64.0288 12.0388 63.262 11.272 62.4952 10.5052L61.7284 11.272H61.5367C61.5367 11.0803 61.9201 10.5052 61.9201 10.5052C61.1532 9.73838 60.3864 8.97157 59.4279 8.39646L58.8528 9.16327H58.6611C58.6611 8.97157 59.2362 8.20476 59.2362 8.20476C58.4694 7.62965 57.5109 7.05454 56.5524 6.47944L56.169 7.43795C56.169 7.24625 55.9773 7.24625 55.9773 7.24625L56.3607 6.28773C55.4022 5.71263 54.252 5.32922 53.2934 4.94582L52.91 5.90433H52.7183L53.1017 4.94582C52.1432 4.56241 51.1847 4.37071 50.0345 4.17901V5.13752H49.6511V4.17901C48.6926 3.9873 47.7341 3.9873 46.5839 3.9873V4.94582H46.2005V3.9873C45.0502 3.9873 44.0917 3.9873 42.9415 4.17901M42.9415 4.17901V5.13752M42.9415 4.17901C41.7913 4.17901 40.6411 4.56241 39.6826 4.94582M39.6826 4.94582L40.066 5.90433M26.2634 26.7999C26.2634 21.2405 28.3721 16.0646 32.2062 12.2305C36.0402 8.20476 41.2162 6.09603 46.5839 6.09603C51.9515 6.09603 57.1275 8.39646 60.9615 12.2305C64.7956 16.0646 66.9043 21.2405 66.9043 26.7999C66.9043 32.3593 64.7956 37.5352 60.9615 41.3693C57.1275 45.395 51.9515 47.5038 46.5839 47.5038C41.2162 47.5038 36.0402 45.2033 32.2062 41.3693C28.3721 37.5352 26.2634 32.3593 26.2634 26.7999Z" stroke="#818385" stroke-width="0.274678" stroke-miterlimit="10"/>
<path d="M26.4551 26.8C26.4551 38.1104 35.4651 47.3122 46.5838 47.3122C57.7026 47.3122 66.7126 38.1104 66.7126 26.8C66.7126 15.4896 57.7026 6.28784 46.5838 6.28784C35.4651 6.28784 26.4551 15.4896 26.4551 26.8ZM27.0302 26.8C27.0302 21.4323 29.1389 16.4481 32.7813 12.614C36.4236 8.77997 41.4079 6.67125 46.5838 6.67125C51.9515 6.67125 56.9358 8.77997 60.5781 12.614C64.2205 16.4481 66.3292 21.4323 66.3292 26.8C66.3292 32.1677 64.2205 37.1519 60.5781 40.986C56.7441 44.82 51.7598 46.9288 46.5838 46.9288C41.4079 46.9288 36.4236 44.82 32.7813 40.986C28.9472 37.1519 27.0302 32.1677 27.0302 26.8Z" stroke="#818385" stroke-width="0.274678" stroke-miterlimit="10"/>
<path d="M38.5322 26.7998C38.5322 31.4007 42.1746 35.0431 46.5837 35.0431C50.9929 35.0431 54.6352 31.4007 54.6352 26.7998C54.6352 22.199 50.9929 18.5566 46.5837 18.5566C42.1746 18.5566 38.5322 22.199 38.5322 26.7998ZM41.2161 25.0745C41.2161 25.4579 40.8327 25.6496 40.4493 25.4579C40.0658 25.4579 39.8741 25.0745 40.0658 24.6911C40.0658 24.3077 40.4492 24.116 40.8327 24.3077C41.2161 24.3077 41.4078 24.6911 41.2161 25.0745ZM43.3248 22.199C43.3248 22.199 42.7497 22.199 42.558 22.0073C42.3663 21.8156 42.558 21.4322 42.7497 21.2405C42.9414 21.0488 43.3248 21.2405 43.5165 21.4322C43.5165 21.6239 43.5165 22.0073 43.3248 22.199ZM47.1588 20.4737C47.1588 20.8571 46.9671 21.0488 46.5837 21.0488C46.2003 21.0488 46.0086 20.8571 46.0086 20.4737C46.0086 20.0903 46.2003 19.8986 46.5837 19.8986C46.9671 19.8986 47.1588 20.0903 47.1588 20.4737ZM50.8012 22.0073C50.8012 22.3907 50.2261 22.3907 50.0344 22.199C49.651 22.199 49.651 21.6239 49.8427 21.4322C49.8427 21.0488 50.4178 21.0488 50.6095 21.2405C50.8012 21.4322 50.8012 21.8156 50.8012 22.0073ZM51.9514 28.5252C51.9514 28.1418 52.3348 27.9501 52.7182 28.1418C53.1016 28.1418 53.2933 28.5252 53.1016 28.9086C53.1016 29.292 52.7182 29.4837 52.3348 29.292C51.9514 29.1003 51.7597 28.9086 51.9514 28.5252ZM52.3348 24.3077C52.7182 24.3077 52.9099 24.3077 53.1016 24.6911C53.1016 25.0745 53.1016 25.2662 52.7182 25.4579C52.3348 25.4579 51.9514 25.4579 51.9514 25.0745C51.9514 24.6911 51.9514 24.3077 52.3348 24.3077ZM50.0344 31.4007C50.0344 31.4007 50.6095 31.4007 50.8012 31.5924C50.9929 31.7841 50.8012 32.1675 50.6095 32.3592C50.4178 32.5509 50.0344 32.3592 49.8427 32.1675C49.651 31.9758 49.651 31.5924 50.0344 31.4007ZM46.0086 33.126C46.0086 32.7426 46.2003 32.5509 46.5837 32.5509C46.9671 32.5509 47.1588 32.7426 47.1588 33.126C47.1588 33.5094 46.9671 33.7011 46.5837 33.7011C46.2003 33.7011 46.0086 33.3177 46.0086 33.126ZM42.3663 31.5924C42.3663 31.209 42.9414 31.209 43.1331 31.4007C43.5165 31.4007 43.5165 31.9758 43.3248 32.1675C43.3248 32.5509 42.7497 32.5509 42.558 32.3592C42.3663 32.3592 42.3663 31.7841 42.3663 31.5924ZM41.7912 26.7998C41.7912 24.116 43.8999 22.0073 46.5837 22.0073C49.2676 22.0073 51.3763 24.116 51.3763 26.7998C51.3763 29.4837 49.2676 31.5924 46.5837 31.5924C43.8999 31.5924 41.7912 29.4837 41.7912 26.7998ZM40.641 28.1418C41.0244 28.1418 41.4078 28.1418 41.4078 28.5252C41.4078 28.9086 41.4078 29.1003 41.0244 29.292C40.641 29.292 40.4493 29.292 40.2575 28.9086C40.0658 28.5252 40.2575 28.3335 40.641 28.1418Z" stroke="#818385" stroke-width="0.274678" stroke-miterlimit="10"/>
<path d="M34.123 26.7998C34.123 33.8928 39.6824 39.4522 46.5837 39.4522C53.485 39.4522 59.0444 33.7011 59.0444 26.7998C59.0444 19.8985 53.485 14.1475 46.5837 14.1475C39.8741 14.1475 34.3147 19.8985 34.123 26.7998ZM39.6824 21.2405V21.6239C39.1073 22.0073 38.7239 22.199 38.3405 22.199H38.1488C37.9571 22.199 37.7654 22.199 37.5737 22.0073C36.9986 21.4322 36.8069 20.6653 37.382 19.8985C37.5737 19.5151 37.9571 19.1317 38.3405 19.1317C38.7239 19.1317 39.1073 19.1317 39.299 19.3234C39.4907 19.5151 39.6824 19.7068 39.6824 20.0902C39.6824 20.4736 39.6824 20.857 39.6824 21.2405ZM44.8584 17.4064C44.6667 17.4064 44.2833 17.9815 43.8999 18.1732H43.1331C43.1331 18.1732 42.558 18.1732 42.3663 17.9815C41.9828 17.9815 41.7911 17.5981 41.7911 17.4064C41.7911 16.6396 42.1745 15.8728 42.9414 15.6811C43.7082 15.4894 44.6667 15.6811 44.8584 16.4479C45.0501 16.6396 45.0501 17.023 44.8584 17.4064ZM51.1846 17.2147L50.6095 17.7898C50.6095 17.9815 50.0343 17.9815 49.8426 17.9815H49.0758C48.5007 17.9815 48.309 17.5981 48.1173 17.2147V16.4479C48.309 15.6811 49.2675 15.4894 50.0343 15.6811C50.4178 15.6811 50.8012 16.0645 50.9929 16.4479C51.3763 16.6396 51.3763 17.023 51.1846 17.2147ZM55.7854 22.0073C55.5937 22.199 55.402 22.199 55.2103 22.199H55.0186C54.6352 22.199 54.0601 22.0073 53.8684 21.6239V21.2405C53.6767 20.857 53.6767 20.4736 53.6767 20.0902C53.6767 19.7068 53.6767 19.5151 54.0601 19.3234C54.4435 19.1317 54.6352 19.1317 55.0186 19.1317C55.402 19.1317 55.7854 19.5151 55.9771 19.8985C56.3605 20.6653 56.3605 21.6239 55.9771 22.0073H55.7854ZM56.7439 28.7168C56.7439 28.7168 56.1688 28.7168 55.9771 28.3334C55.5937 27.95 55.402 27.5666 55.402 27.1832V26.7998C55.402 26.2247 55.5937 25.8413 55.9771 25.6496C55.9771 25.6496 56.5522 25.2662 56.7439 25.2662C57.5107 25.2662 58.0858 25.8413 58.0858 26.7998C58.0858 27.7583 57.5107 28.3334 56.7439 28.7168ZM53.485 32.5509V32.1675C54.0601 31.7841 54.4435 31.5924 54.8269 31.5924C54.8269 31.5924 55.402 31.5924 55.5937 31.7841C56.1688 32.3592 56.3605 33.126 55.7854 33.8928C55.5937 34.0845 55.2103 34.4679 54.8269 34.4679H54.4435C54.2518 34.4679 54.0601 34.4679 53.8684 34.2762C53.6767 34.0845 53.485 33.8928 53.485 33.5094C53.485 33.126 53.485 32.5509 53.485 32.5509ZM48.309 36.1932C48.5007 36.1932 48.8841 35.6181 49.2675 35.4264H49.6509C50.0343 35.4264 50.4178 35.4264 50.8012 35.6181C51.1846 35.6181 51.3763 36.0015 51.3763 36.1932C51.3763 36.96 50.9929 37.7269 50.2261 37.9186H49.6509C49.0758 37.9186 48.5007 37.9186 48.309 37.1518C48.309 37.1518 48.309 36.5766 48.309 36.1932ZM41.9828 36.3849L42.558 35.8098C42.9414 35.6181 43.3248 35.4264 43.7082 35.6181H44.0916C44.6667 35.6181 44.8584 36.0015 45.0501 36.3849V37.1518C45.0501 37.5352 44.2833 37.9186 43.7082 37.9186H43.1331C42.1745 37.7269 41.7911 36.96 41.9828 36.3849ZM38.5322 26.7998C38.5322 22.199 42.1745 18.5566 46.5837 18.5566C50.9929 18.5566 54.6352 22.199 54.6352 26.7998C54.6352 31.4007 50.9929 35.043 46.5837 35.043C42.1745 35.043 38.5322 31.4007 38.5322 26.7998ZM36.9986 32.3592C36.9986 31.9758 36.9986 31.5924 37.382 31.4007C37.382 31.209 37.7654 31.209 38.1488 31.209C38.5322 31.209 39.1073 31.4007 39.299 31.7841H39.4907V32.1675C39.6824 32.5509 39.6824 32.9343 39.6824 33.3177C39.6824 33.7011 39.6824 33.8928 39.299 34.0845C38.9156 34.2762 38.9156 34.2762 38.7239 34.2762H38.3405C37.9571 34.2762 37.5737 34.0845 37.382 33.7011C36.9986 33.3177 36.9986 32.9343 36.9986 32.3592ZM35.0816 26.4164C35.0816 25.6496 35.6567 24.8828 36.4235 24.8828C37.1903 24.8828 36.9986 24.8828 37.1903 25.2662C37.5737 25.6496 37.7654 26.033 37.7654 26.4164V26.7998C37.7654 27.3749 37.5737 27.7583 37.1903 27.95C37.1903 27.95 36.6152 28.3334 36.4235 28.3334C35.6567 28.3334 35.0816 27.5666 35.0816 26.4164Z" stroke="#818385" stroke-width="0.274678" stroke-miterlimit="10"/>
<path d="M46.5845 4.17904C58.8534 4.17904 69.0137 14.3393 69.0137 26.9916C69.0137 39.644 58.8534 49.8042 46.5845 49.8042C34.1238 49.8042 24.1553 39.644 24.1553 26.9916C24.1553 14.3393 34.3155 4.17904 46.5845 4.17904ZM46.5845 2.07031C33.1653 2.07031 22.2383 13.1891 22.2383 26.7999C22.2383 40.4108 33.1653 51.5295 46.5845 51.5295C60.0037 51.5295 70.9307 40.4108 70.9307 26.7999C70.9307 13.1891 60.0037 2.07031 46.5845 2.07031Z" fill="#818385"/>
<path d="M76.6816 26.6082C76.6816 37.1519 85.1166 45.7785 95.6602 45.7785C106.204 45.7785 114.639 37.1519 114.639 26.6082C114.639 16.0646 106.012 7.43799 95.6602 7.43799C85.3083 7.43799 76.6816 16.0646 76.6816 26.6082ZM83.0078 26.7999C83.0078 19.7069 88.7589 13.9559 95.6602 13.9559C102.561 13.9559 108.313 19.7069 108.313 26.7999C108.313 33.8929 102.561 39.644 95.6602 39.644C88.7589 39.644 83.0078 33.8929 83.0078 26.7999Z" stroke="#818385" stroke-width="0.274678" stroke-miterlimit="10"/>
<path d="M76.1064 26.7998C76.1064 37.7269 84.9248 46.7369 95.6601 46.7369C106.395 46.7369 115.214 37.7269 115.214 26.7998C115.214 15.8728 106.395 6.86279 95.6601 6.86279C84.9248 6.86279 76.1064 15.8728 76.1064 26.7998ZM76.6816 26.7998C76.6816 16.0645 85.1165 7.4379 95.6601 7.4379C106.204 7.4379 114.639 16.0645 114.639 26.7998C114.639 37.5352 106.204 46.1618 95.6601 46.1618C85.1165 46.1618 76.6816 37.5352 76.6816 26.7998Z" stroke="#818385" stroke-width="0.274678" stroke-miterlimit="10"/>
<path d="M73.6146 30.2505C73.4229 29.1003 73.4229 28.1418 73.4229 26.7999H74.3814V26.6082H73.4229C73.4229 25.458 73.4229 24.3078 73.6146 23.541H74.5731V23.1575H73.6146C73.8063 22.0073 73.998 21.0488 74.3814 19.8986C74.3814 19.8986 75.3399 20.0903 75.3399 19.8986L74.3814 19.5152C74.7648 18.5567 75.1482 17.4065 75.5316 16.448L76.4901 16.8314C76.4901 16.8314 76.4901 16.6397 76.6818 16.6397L75.7233 16.2563C76.2984 15.2977 76.8735 14.3392 77.4486 13.3807C77.4486 13.3807 78.2154 13.9558 78.2154 13.7641H78.4071L77.6403 13.189C78.2154 12.2305 78.9822 11.4637 79.749 10.6969C79.749 10.6969 80.5158 11.4637 80.5158 11.272H80.7075L79.9407 10.5052C80.7075 9.73838 81.4744 8.97157 82.4329 8.39646C82.4329 8.39646 83.008 9.16327 83.008 8.97157H83.1997L82.6246 8.20476C83.5831 7.62965 84.3499 7.05454 85.3084 6.47944L85.6918 7.43795C85.6918 7.43795 85.8835 7.43795 85.8835 7.24625L85.5001 6.28773C86.4586 5.71263 87.4171 5.32922 88.5673 4.94582L88.9508 5.90433H89.1425L88.759 4.94582C89.7176 4.56241 90.8678 4.17901 92.018 4.17901M73.6146 30.2505H74.5731M73.6146 30.2505C73.6146 31.5925 73.998 32.7427 74.3814 33.7012L75.3399 33.3178C75.3399 33.5095 74.3814 33.8929 74.3814 33.8929C74.5731 35.0431 74.9565 36.0016 75.5316 36.9601L76.4901 36.5767C76.6818 36.5767 76.6818 36.7684 76.6818 36.7684L75.7233 37.1518C76.2984 38.1103 76.8735 39.0688 77.4486 40.0274L78.2154 39.4523H78.4071C78.4071 39.644 77.6403 40.2191 77.6403 40.2191C78.2154 41.1776 78.9822 41.9444 79.749 42.7112L80.5158 41.9444H80.7075C80.7075 42.1361 79.9407 42.9029 79.9407 42.9029C80.7075 43.6697 81.4744 44.4365 82.4329 45.0116L83.008 44.2448H83.1997C83.1997 44.4365 82.6246 45.2033 82.6246 45.2033C83.3914 45.7784 84.3499 46.3535 85.3084 46.9286L85.6918 45.9701C85.6918 46.1618 85.8835 46.1618 85.8835 46.1618L85.5001 47.1204C86.4586 47.6955 87.6088 48.0789 88.5673 48.4623L88.9508 47.5038H89.1425L88.759 48.4623C89.7176 48.8457 90.6761 49.0374 91.8263 49.2291V48.2706H92.2097V49.2291C93.1682 49.4208 94.1267 49.4208 95.2769 49.4208V48.4623H95.6603V49.4208C96.8106 49.4208 97.9608 49.4208 98.9193 49.2291M98.9193 49.2291V48.2706M98.9193 49.2291C100.069 49.2291 101.22 48.8457 102.178 48.4623L101.795 47.5038H101.987L102.37 48.4623C103.52 48.0789 104.479 47.6955 105.437 47.1204L105.054 46.1618C105.054 45.9701 105.245 45.9701 105.245 45.9701L105.629 46.9286C106.587 46.3535 107.354 45.7784 108.313 45.2033L107.738 44.4365H107.929C107.929 44.2448 108.504 45.0116 108.504 45.0116C109.463 44.4365 110.23 43.6697 110.997 42.9029L110.23 42.1361H110.421C110.421 41.9444 111.188 42.7112 111.188 42.7112C111.955 41.9444 112.722 41.1776 113.297 40.2191L112.53 39.644H112.722C112.722 39.4523 113.489 40.0274 113.489 40.0274C114.064 39.0688 114.639 38.1103 115.214 37.1518L114.255 36.7684C114.447 36.7684 114.447 36.5767 114.447 36.5767L115.406 36.9601C115.789 36.0016 116.172 34.8514 116.556 33.8929L115.597 33.5095C115.597 33.3178 116.556 33.5095 116.556 33.5095C116.939 32.3593 117.131 31.4008 117.323 30.2505H116.364V29.8671H117.323C117.514 29.1003 117.514 27.9501 117.514 26.7999H116.556V26.4165H117.514C117.514 25.2663 117.514 24.3078 117.323 23.1575M117.323 23.1575H116.364M117.323 23.1575C117.323 21.8156 116.939 20.6654 116.556 19.7069L115.597 20.0903C115.597 19.8986 116.556 19.5152 116.556 19.5152C116.364 18.365 115.981 17.4065 115.406 16.448L114.447 16.8314C114.255 16.8314 114.255 16.6397 114.255 16.6397L115.214 16.2563C114.639 15.2977 114.064 14.3392 113.489 13.3807L112.722 13.9558H112.53C112.53 13.7641 113.297 13.189 113.297 13.189C112.722 12.2305 111.955 11.4637 111.188 10.6969L110.421 11.4637H110.23C110.23 11.272 110.997 10.5052 110.997 10.5052C110.23 9.73838 109.463 8.97157 108.504 8.39646L107.929 9.16327H107.738C107.738 8.97157 108.313 8.20476 108.313 8.20476C107.546 7.62965 106.587 7.05454 105.629 6.47944L105.245 7.43795C105.245 7.24625 105.054 7.24625 105.054 7.24625L105.437 6.28773C104.479 5.71263 103.328 5.32922 102.37 4.94582L101.987 5.90433H101.795L102.178 4.94582C101.22 4.56241 100.261 4.37071 99.111 4.17901V5.13752H98.7276V4.17901C97.7691 3.9873 96.8106 3.9873 95.6603 3.9873V4.94582H95.2769V3.9873C94.1267 3.9873 93.1682 3.9873 92.018 4.17901M92.018 4.17901V5.13752M75.3399 26.7999C75.3399 21.2405 77.4486 16.0646 81.2827 12.2305C85.1167 8.20476 90.2927 6.09603 95.6603 6.09603C101.028 6.09603 106.204 8.39646 110.038 12.2305C113.872 16.0646 115.981 21.2405 115.981 26.7999C115.981 32.3593 113.872 37.5352 110.038 41.3693C106.204 45.395 101.028 47.5038 95.6603 47.5038C90.2927 47.5038 85.1167 45.2033 81.2827 41.3693C77.4486 37.5352 75.3399 32.3593 75.3399 26.7999Z" stroke="#818385" stroke-width="0.274678" stroke-miterlimit="10"/>
<path d="M75.5312 26.8C75.5312 38.1104 84.5413 47.3122 95.66 47.3122C106.779 47.3122 115.789 38.1104 115.789 26.8C115.789 15.4896 106.779 6.28784 95.66 6.28784C84.5413 6.28784 75.5312 15.4896 75.5312 26.8ZM76.1064 26.8C76.1064 21.4323 78.2151 16.4481 81.8574 12.614C85.4998 8.77997 90.484 6.67125 95.66 6.67125C101.028 6.67125 106.012 8.77997 109.654 12.614C113.297 16.4481 115.405 21.4323 115.405 26.8C115.405 32.1677 113.297 37.1519 109.654 40.986C105.82 44.82 100.836 46.9288 95.66 46.9288C90.484 46.9288 85.4998 44.82 81.8574 40.986C78.0234 37.1519 76.1064 32.1677 76.1064 26.8Z" stroke="#818385" stroke-width="0.274678" stroke-miterlimit="10"/>
<path d="M87.6084 26.7998C87.6084 31.4007 91.2507 35.0431 95.6599 35.0431C100.069 35.0431 103.711 31.4007 103.711 26.7998C103.711 22.199 100.069 18.5566 95.6599 18.5566C91.2507 18.5566 87.6084 22.199 87.6084 26.7998ZM90.2922 25.0745C90.2922 25.4579 89.9088 25.6496 89.5254 25.4579C89.142 25.4579 88.9503 25.0745 89.142 24.6911C89.142 24.3077 89.5254 24.116 89.9088 24.3077C90.2922 24.3077 90.4839 24.6911 90.2922 25.0745ZM92.401 22.199C92.401 22.199 91.8258 22.199 91.6341 22.0073C91.4424 21.8156 91.6342 21.4322 91.8259 21.2405C92.0176 21.0488 92.401 21.2405 92.5927 21.4322C92.7844 21.6239 92.5927 22.0073 92.401 22.199ZM96.235 20.4737C96.235 20.8571 96.0433 21.0488 95.6599 21.0488C95.2765 21.0488 95.0848 20.8571 95.0848 20.4737C95.0848 20.0903 95.2765 19.8986 95.6599 19.8986C96.0433 19.8986 96.235 20.0903 96.235 20.4737ZM99.8773 22.0073C99.8773 22.3907 99.3022 22.3907 99.1105 22.199C98.7271 22.199 98.7271 21.6239 98.9188 21.4322C98.9188 21.0488 99.4939 21.0488 99.6856 21.2405C99.6856 21.4322 99.6856 21.8156 99.8773 22.0073ZM101.028 28.5252C101.028 28.1418 101.411 27.9501 101.794 28.1418C102.178 28.1418 102.369 28.5252 102.178 28.9086C102.178 29.292 101.794 29.4837 101.411 29.292C101.028 29.1003 100.836 28.9086 101.028 28.5252ZM101.411 24.3077C101.794 24.3077 101.986 24.3077 102.178 24.6911C102.178 25.0745 102.178 25.2662 101.794 25.4579C101.411 25.4579 101.028 25.4579 101.028 25.0745C100.836 24.6911 101.028 24.3077 101.411 24.3077ZM99.1105 31.4007C99.1105 31.4007 99.6856 31.4007 99.8773 31.5924C100.069 31.7841 99.8774 32.1675 99.6856 32.3592C99.4939 32.5509 99.1105 32.3592 98.9188 32.1675C98.9188 31.9758 98.9188 31.5924 99.1105 31.4007ZM95.0848 33.126C95.0848 32.7426 95.2765 32.5509 95.6599 32.5509C96.0433 32.5509 96.235 32.7426 96.235 33.126C96.235 33.5094 96.0433 33.7011 95.6599 33.7011C95.2765 33.7011 95.0848 33.3177 95.0848 33.126ZM91.4424 31.5924C91.4424 31.209 91.8258 31.209 92.2093 31.4007C92.5927 31.4007 92.5927 31.9758 92.401 32.1675C92.401 32.5509 91.8258 32.5509 91.6341 32.3592C91.4424 32.1675 91.6341 31.7841 91.4424 31.5924ZM90.8673 26.7998C90.8673 24.116 92.9761 22.0073 95.6599 22.0073C98.3437 22.0073 100.452 24.116 100.452 26.7998C100.452 29.4837 98.3437 31.5924 95.6599 31.5924C92.9761 31.5924 90.8673 29.4837 90.8673 26.7998ZM89.7171 28.1418C90.1005 28.1418 90.4839 28.1418 90.4839 28.5252C90.4839 28.9086 90.4839 29.1003 90.1005 29.292C89.7171 29.292 89.3337 29.292 89.3337 28.9086C89.3337 28.5252 89.3337 28.3335 89.7171 28.1418Z" stroke="#818385" stroke-width="0.274678" stroke-miterlimit="10"/>
<path d="M83.1992 26.7998C83.1992 33.8928 88.7586 39.4522 95.6599 39.4522C102.561 39.4522 108.121 33.7011 108.121 26.7998C108.121 19.8985 102.561 14.1475 95.6599 14.1475C88.7586 14.1475 83.3909 19.8985 83.1992 26.7998ZM88.7586 21.2405V21.6239C88.1835 22.0073 87.8001 22.199 87.4167 22.199H87.225C87.0333 22.199 86.8416 22.199 86.6499 22.0073C86.0748 21.4322 85.883 20.6653 86.4582 19.8985C86.6499 19.5151 87.0333 19.1317 87.4167 19.1317C87.8001 19.1317 88.1835 19.1317 88.3752 19.3234C88.5669 19.5151 88.7586 19.7068 88.7586 20.0902C88.9503 20.4736 88.7586 20.857 88.7586 21.2405ZM93.9346 17.4064C93.7428 17.4064 93.3594 17.9815 92.976 18.1732H92.2092C92.2092 18.1732 91.6341 18.1732 91.4424 17.9815C91.059 17.9815 90.8673 17.5981 90.8673 17.4064C90.8673 16.6396 91.2507 15.8728 92.0175 15.6811C92.7843 15.4894 93.7428 15.6811 93.9346 16.4479C93.9346 16.6396 93.9346 17.023 93.9346 17.4064ZM100.261 17.2147L99.6856 17.7898C99.6856 17.9815 99.1105 17.9815 98.9188 17.9815H98.152C97.5769 17.9815 97.3852 17.5981 97.1935 17.2147V16.4479C97.3852 15.6811 98.3437 15.4894 99.1105 15.6811C99.4939 15.6811 99.8773 16.0645 100.069 16.4479C100.069 16.6396 100.452 17.023 100.261 17.2147ZM105.053 22.0073C105.053 22.199 104.67 22.199 104.478 22.199H104.286C103.903 22.199 103.328 22.0073 103.136 21.6239H102.945V21.2405C102.753 20.857 102.753 20.4736 102.753 20.0902C102.753 19.7068 102.753 19.5151 103.136 19.3234C103.52 19.1317 103.711 19.1317 104.095 19.1317C104.478 19.1317 104.862 19.5151 105.053 19.8985C105.437 20.6653 105.437 21.6239 105.053 22.0073ZM105.82 28.7168C105.82 28.7168 105.245 28.7168 105.053 28.3334C104.67 27.95 104.478 27.5666 104.478 27.1832V26.7998C104.478 26.2247 104.67 25.8413 105.053 25.6496C105.053 25.6496 105.628 25.2662 105.82 25.2662C106.587 25.2662 107.162 25.8413 107.162 26.7998C107.162 27.7583 106.587 28.3334 105.82 28.7168ZM102.561 32.5509V32.1675C103.136 31.7841 103.52 31.5924 103.903 31.5924C103.903 31.5924 104.478 31.5924 104.67 31.7841C105.245 32.3592 105.437 33.126 104.862 33.8928C104.67 34.0845 104.286 34.4679 103.903 34.4679H103.52C103.328 34.4679 103.136 34.4679 102.945 34.2762C102.753 34.0845 102.561 33.8928 102.561 33.5094C102.561 33.126 102.561 32.5509 102.561 32.5509ZM97.3852 36.1932C97.5769 36.1932 97.9603 35.6181 98.3437 35.4264H98.7271C99.1105 35.4264 99.4939 35.4264 99.8773 35.6181C100.261 35.6181 100.452 36.0015 100.452 36.1932C100.452 36.96 100.069 37.7269 99.3022 37.9186H98.7271C98.152 37.9186 97.5769 37.9186 97.3852 37.1518C97.3852 37.1518 97.3852 36.5766 97.3852 36.1932ZM91.059 36.3849L91.6341 35.8098C92.0175 35.6181 92.4009 35.4264 92.7843 35.6181H93.1677C93.7428 35.6181 93.9345 36.0015 94.1263 36.3849V37.1518C94.1263 37.5352 93.3594 37.9186 92.7843 37.9186H92.2092C91.2507 37.7269 90.8673 36.96 91.059 36.3849ZM87.6084 26.7998C87.6084 22.199 91.2507 18.5566 95.6599 18.5566C100.069 18.5566 103.711 22.199 103.711 26.7998C103.711 31.4007 100.069 35.043 95.6599 35.043C91.2507 35.043 87.6084 31.4007 87.6084 26.7998ZM86.0748 32.3592C86.0748 31.9758 86.0747 31.5924 86.4582 31.4007C86.4582 31.209 86.8416 31.209 87.225 31.209C87.6084 31.209 88.1835 31.4007 88.3752 31.7841H88.5669V32.1675C88.7586 32.5509 88.7586 32.9343 88.7586 33.3177C88.7586 33.7011 88.7586 33.8928 88.3752 34.0845C87.9918 34.2762 87.9918 34.2762 87.8001 34.2762H87.4167C87.0333 34.2762 86.6499 34.0845 86.4582 33.7011C86.0747 33.3177 86.0748 32.9343 86.0748 32.3592ZM84.1577 26.4164C84.1577 25.6496 84.7328 24.8828 85.4996 24.8828C86.2665 24.8828 86.0748 24.8828 86.2665 25.2662C86.6499 25.6496 86.8416 26.033 86.8416 26.4164V26.7998C86.8416 27.3749 86.6499 27.7583 86.2665 27.95C86.2665 27.95 85.6913 28.3334 85.4996 28.3334C84.7328 28.3334 84.1577 27.5666 84.1577 26.4164Z" stroke="#818385" stroke-width="0.274678" stroke-miterlimit="10"/>
<path d="M95.6597 4.17904C107.929 4.17904 118.089 14.3393 118.089 26.9916C118.089 39.644 107.929 49.8042 95.6597 49.8042C83.199 49.8042 73.2305 39.644 73.2305 26.9916C73.2305 14.3393 83.3907 4.17904 95.6597 4.17904ZM95.6597 2.07031C82.2405 2.07031 71.3135 13.1891 71.3135 26.7999C71.3135 40.4108 82.2405 51.5295 95.6597 51.5295C109.079 51.5295 120.006 40.4108 120.006 26.7999C120.006 13.1891 109.079 2.07031 95.6597 2.07031Z" fill="#818385"/>
</svg>
