<svg width="209" height="167" viewBox="0 0 209 167" fill="none" xmlns="http://www.w3.org/2000/svg">
<path d="M191.907 143.006C191.907 138.783 190.947 134.944 189.411 131.297H200.545C203.232 131.297 205.343 133.6 205.343 136.287V150.492C205.343 153.179 203.232 155.483 200.545 155.483H189.027C190.755 151.836 191.907 147.613 191.907 143.006Z" stroke="#818385" stroke-width="1.19172" stroke-miterlimit="10"/>
<path d="M16.8449 124.002H45.0621C52.3564 124.002 58.115 129.953 58.115 137.439C58.115 144.925 52.1644 150.876 45.0621 150.876H16.8449C9.55061 150.876 3.79199 144.925 3.79199 137.439C3.79199 129.953 9.55061 124.002 16.8449 124.002Z" stroke="#818385" stroke-width="1.19172" stroke-miterlimit="10"/>
<path d="M201.12 87.3392C195.938 82.1564 187.492 83.1162 187.492 83.1162H129.138C126.066 83.1162 123.571 80.8127 123.187 77.7415L120.308 47.9886H131.249C131.249 47.9886 115.893 32.4403 93.0502 35.8955C93.0502 35.8955 58.1146 -7.10222 7.05478 2.30353C4.94329 2.68744 3.59961 4.41502 3.59961 6.52652V117.284C3.59961 118.82 4.75133 119.971 6.28697 119.971H59.4582C60.9939 119.971 62.1456 121.123 62.1456 122.659V151.26H130.865C132.209 151.26 133.361 151.644 134.32 152.22V159.514H136.624V143.39V141.662C137.2 126.882 149.293 114.981 163.881 114.789C171.367 114.789 178.086 117.668 183.269 122.467H199.393C202.656 122.467 205.535 119.779 205.343 116.324C205.343 107.494 204.767 90.9863 201.12 87.3392ZM36.6157 74.8621H17.9962V47.9886H36.6157V74.8621ZM82.1088 83.1162V47.9886H113.205L116.852 82.9242H82.1088V83.1162Z" stroke="#818385" stroke-width="1.19172" stroke-miterlimit="10"/>
<path d="M164.458 122.851C154.092 122.851 145.454 131.489 145.454 142.046C145.454 152.603 153.9 161.241 164.458 161.241C175.015 161.241 183.461 152.603 183.461 142.046C183.461 131.489 174.823 122.851 164.458 122.851ZM164.458 155.099C157.547 155.099 151.789 149.34 151.789 142.238C151.789 135.136 157.547 129.377 164.458 129.377C171.368 129.377 177.127 135.136 177.127 142.238C177.127 149.34 171.368 155.099 164.458 155.099Z" stroke="#818385" stroke-width="0.264828" stroke-miterlimit="10"/>
<path d="M164.457 122.275C153.708 122.275 144.878 131.297 144.878 142.238C144.878 153.179 153.708 162.201 164.457 162.201C175.207 162.201 184.037 153.179 184.037 142.238C184.037 131.297 175.207 122.275 164.457 122.275ZM164.457 161.625C153.9 161.625 145.454 152.988 145.454 142.238C145.454 131.489 153.9 122.851 164.457 122.851C175.015 122.851 183.461 131.489 183.461 142.238C183.461 152.988 174.823 161.625 164.457 161.625Z" stroke="#818385" stroke-width="0.264828" stroke-miterlimit="10"/>
<path d="M186.532 138.783C186.724 139.743 186.724 140.894 186.724 142.238H185.764V142.43H186.532C186.532 143.582 186.532 144.541 186.34 145.501H185.381V145.885H186.34C186.148 147.037 185.956 148.189 185.572 149.148C185.572 149.148 184.613 148.956 184.613 149.148L185.572 149.532C185.381 150.684 184.997 151.644 184.421 152.603L183.461 152.22C183.269 152.22 183.269 152.412 183.269 152.412L184.229 152.795C183.653 153.755 183.077 154.715 182.501 155.675C182.501 155.675 181.733 155.099 181.733 155.291H181.541L182.309 155.867C181.733 156.826 180.966 157.594 180.198 158.362C180.198 158.362 179.43 157.594 179.43 157.786H179.238L180.006 158.554C179.238 159.322 178.47 160.09 177.51 160.666C177.51 160.666 176.935 159.898 176.935 160.09H176.743L177.318 160.858C176.551 161.433 175.591 162.009 174.631 162.585L174.247 161.625C174.247 161.817 174.055 161.817 174.055 161.817L174.439 162.777C173.479 163.353 172.328 163.737 171.368 164.121L170.984 163.161H170.792L171.176 164.121C170.216 164.505 169.256 164.697 167.913 164.889M186.532 138.783H185.572M186.532 138.783C186.34 137.439 186.148 136.479 185.764 135.328L184.805 135.712C184.805 135.52 185.764 135.136 185.764 135.136C185.381 134.176 184.997 133.024 184.613 132.064L183.461 132.448C183.461 132.448 183.461 132.256 183.269 132.256L184.229 131.872C183.653 130.913 183.077 129.953 182.501 128.993L181.733 129.569H181.541C181.541 129.377 182.309 128.801 182.309 128.801C181.733 127.841 180.966 127.074 180.198 126.306L179.43 127.074H179.238C179.238 126.882 180.006 126.114 180.006 126.114C179.238 125.346 178.47 124.578 177.51 124.002L176.935 124.77H176.743C176.743 124.578 177.318 123.81 177.318 123.81C176.359 123.235 175.591 122.659 174.631 122.083L174.247 123.043C174.247 123.043 174.055 123.043 174.055 122.851L174.439 121.891C173.479 121.315 172.52 120.931 171.368 120.547L170.984 121.507H170.792L171.176 120.547C170.216 120.163 169.064 119.971 168.105 119.779V120.739H167.721V119.779C166.761 119.587 165.801 119.587 164.649 119.587V120.547H164.266V119.587C163.114 119.587 162.154 119.587 161.002 119.779M161.002 119.779V120.739M161.002 119.779C159.659 119.971 158.699 120.163 157.739 120.547L158.123 121.507H157.931L157.547 120.547C156.587 120.931 155.436 121.315 154.476 121.891L154.86 122.851C154.86 122.851 154.668 122.851 154.668 123.043L154.284 122.083C153.324 122.659 152.364 123.235 151.597 123.81L152.172 124.578H151.981C151.981 124.77 151.405 124.002 151.405 124.002C150.445 124.578 149.677 125.346 148.909 126.114L149.677 126.882H149.485C149.485 127.074 148.717 126.306 148.717 126.306C147.949 127.074 147.182 127.841 146.606 128.801L147.374 129.377H147.182C147.182 129.569 146.414 128.993 146.414 128.993C145.838 129.953 145.262 130.913 144.686 131.872L145.646 132.256C145.646 132.256 145.646 132.448 145.454 132.448L144.494 132.064C143.918 133.024 143.535 133.984 143.343 135.136L144.302 135.52C144.302 135.712 143.343 135.52 143.343 135.52C142.959 136.479 142.767 137.631 142.575 138.783H143.535V139.167H142.575C142.383 140.126 142.383 141.086 142.383 142.238H143.343V142.622H142.383C142.383 143.774 142.383 144.925 142.575 145.885M142.575 145.885H143.535M142.575 145.885C142.767 147.229 142.959 148.189 143.343 149.34L144.302 148.956C144.302 149.148 143.343 149.532 143.343 149.532C143.726 150.492 144.11 151.644 144.494 152.603L145.454 152.22C145.454 152.22 145.454 152.412 145.646 152.412L144.686 152.795C145.262 153.755 145.838 154.715 146.414 155.675L147.182 155.099H147.374C147.374 155.291 146.606 155.867 146.606 155.867C147.182 156.826 147.949 157.594 148.717 158.362L149.485 157.594H149.677C149.677 157.786 148.909 158.554 148.909 158.554C149.677 159.322 150.445 160.09 151.405 160.666L151.981 159.898H152.172C152.172 160.09 151.597 160.858 151.597 160.858C152.556 161.433 153.324 162.009 154.284 162.585L154.668 161.625C154.668 161.625 154.86 161.625 154.86 161.817L154.476 162.777C155.436 163.353 156.395 163.737 157.547 164.121L157.931 163.161H158.123L157.739 164.121C158.699 164.505 159.851 164.697 160.81 164.889V163.929H161.194V164.889C161.962 165.081 163.114 165.081 164.266 165.081V164.121H164.649V165.081C165.801 165.081 166.761 165.081 167.913 164.889M167.913 164.889V163.929M178.854 156.826C175.015 160.666 169.832 162.969 164.458 162.969C159.083 162.969 153.9 160.858 150.061 156.826C146.222 152.987 144.11 147.805 144.11 142.238C144.11 136.671 146.222 131.489 150.061 127.649C153.9 123.81 159.083 121.507 164.458 121.507C169.832 121.507 175.015 123.618 178.854 127.649C182.693 131.489 184.805 136.671 184.805 142.238C184.805 147.805 182.693 152.987 178.854 156.826Z" stroke="#818385" stroke-width="0.264828" stroke-miterlimit="10"/>
<path d="M164.457 121.699C153.324 121.699 144.302 130.913 144.302 142.238C144.302 153.563 153.324 162.777 164.457 162.777C175.59 162.777 184.612 153.563 184.612 142.238C184.612 130.913 175.59 121.699 164.457 121.699ZM178.278 156.443C174.63 160.282 169.64 162.393 164.457 162.393C159.274 162.393 154.283 160.282 150.444 156.443C146.797 152.604 144.686 147.613 144.686 142.238C144.686 136.863 146.797 131.873 150.444 128.033C154.091 124.194 159.082 122.083 164.457 122.083C169.832 122.083 174.63 124.194 178.278 128.033C181.925 131.873 184.036 136.863 184.036 142.238C184.036 147.613 181.925 152.604 178.278 156.443Z" stroke="#818385" stroke-width="0.264828" stroke-miterlimit="10"/>
<path d="M164.457 133.984C160.042 133.984 156.395 137.631 156.395 142.238C156.395 146.845 160.042 150.492 164.457 150.492C168.872 150.492 172.519 146.845 172.519 142.238C172.519 137.631 168.872 133.984 164.457 133.984ZM170.023 139.743C170.407 139.551 170.599 139.743 170.791 140.126C170.983 140.51 170.791 140.702 170.407 140.894C170.023 141.086 169.831 140.894 169.639 140.51C169.639 140.126 169.831 139.743 170.023 139.743ZM167.528 136.863C167.72 136.671 168.104 136.479 168.296 136.671C168.488 136.863 168.68 137.247 168.488 137.439C168.296 137.631 167.912 137.823 167.72 137.631C167.336 137.631 167.336 137.055 167.528 136.863ZM164.457 135.328C164.841 135.328 165.032 135.52 165.032 135.903C165.032 136.287 164.841 136.479 164.457 136.479C164.073 136.479 163.881 136.287 163.881 135.903C163.881 135.52 164.073 135.328 164.457 135.328ZM160.426 136.671C160.618 136.479 161.001 136.479 161.193 136.863C161.385 137.055 161.385 137.439 161.001 137.631C160.809 137.823 160.426 137.823 160.234 137.439C160.234 137.439 160.234 136.863 160.426 136.671ZM158.698 144.733C158.314 144.925 158.122 144.733 157.93 144.349C157.738 143.965 157.93 143.774 158.314 143.582C158.698 143.39 158.89 143.582 159.082 143.965C159.082 144.349 158.89 144.541 158.698 144.733ZM159.082 140.51C159.082 140.894 158.698 140.894 158.314 140.894C157.93 140.702 157.93 140.51 157.93 140.126C158.122 139.743 158.314 139.743 158.698 139.743C159.082 139.743 159.082 140.126 159.082 140.51ZM161.193 147.613C161.001 147.805 160.618 147.997 160.426 147.805C160.234 147.613 160.042 147.229 160.234 147.037C160.426 146.845 160.809 146.653 161.001 146.845C161.385 146.845 161.385 147.421 161.193 147.613ZM164.457 149.148C164.073 149.148 163.881 148.956 163.881 148.572C163.881 148.188 164.073 147.997 164.457 147.997C164.841 147.997 165.032 148.188 165.032 148.572C165.032 148.764 164.649 149.148 164.457 149.148ZM168.296 147.805C168.104 147.997 167.72 147.997 167.528 147.613C167.336 147.421 167.336 147.037 167.72 146.845C167.912 146.653 168.296 146.653 168.488 147.037C168.68 147.037 168.68 147.613 168.296 147.805ZM164.457 147.037C161.769 147.037 159.658 144.925 159.658 142.238C159.658 139.551 161.769 137.439 164.457 137.439C167.144 137.439 169.255 139.551 169.255 142.238C169.064 144.925 166.952 147.037 164.457 147.037ZM170.791 144.349C170.791 144.733 170.407 144.733 170.023 144.733C169.639 144.541 169.639 144.349 169.639 143.965C169.639 143.582 170.023 143.582 170.407 143.582C170.791 143.774 170.983 143.965 170.791 144.349Z" stroke="#818385" stroke-width="0.264828" stroke-miterlimit="10"/>
<path d="M164.457 129.569C157.547 129.569 151.98 135.328 151.98 142.238C151.98 149.148 157.547 154.907 164.457 154.907C171.368 154.907 176.934 149.34 176.934 142.238C176.743 135.328 171.176 129.569 164.457 129.569ZM171.368 135.52C171.368 135.136 171.56 134.944 171.752 134.752C171.944 134.56 172.328 134.56 172.711 134.56C173.095 134.56 173.479 134.944 173.671 135.328C174.247 136.096 174.055 136.863 173.479 137.439C173.287 137.631 173.095 137.631 172.903 137.631H172.711C172.328 137.631 171.944 137.439 171.56 137.055H171.368V136.671C171.368 136.287 171.176 135.904 171.368 135.52ZM165.993 131.873C166.185 131.105 167.145 130.913 167.913 131.105C168.68 131.297 169.256 132.064 169.064 132.832C169.064 133.024 168.872 133.408 168.489 133.408C168.297 133.6 167.913 133.6 167.721 133.6H166.953C166.569 133.408 166.185 133.024 165.993 132.832V131.873ZM159.851 131.873C160.043 131.489 160.426 131.297 160.81 131.105C161.578 130.913 162.538 131.105 162.73 131.873V132.64C162.538 133.024 162.346 133.408 161.77 133.408H161.002C160.81 133.408 160.426 133.408 160.234 133.216C160.043 133.024 159.851 132.832 159.659 132.64C159.659 132.64 159.659 132.064 159.851 131.873ZM155.052 135.328C155.244 134.944 155.628 134.752 156.012 134.56C156.395 134.56 156.779 134.56 156.971 134.752C157.163 134.944 157.355 135.136 157.355 135.52C157.355 135.904 157.355 136.287 157.163 136.671C157.163 136.799 157.099 136.927 156.971 137.055C156.779 137.439 156.203 137.631 155.82 137.631H155.628C155.436 137.631 155.052 137.631 155.052 137.439C154.668 137.055 154.668 136.096 155.052 135.328ZM152.94 142.238C152.94 141.278 153.516 140.702 154.284 140.702C155.052 140.702 154.86 140.894 155.052 141.086C155.436 141.278 155.628 141.662 155.628 142.238V142.622C155.628 143.006 155.436 143.39 155.052 143.774C154.86 143.966 154.476 144.158 154.284 144.158C153.516 143.774 152.94 143.006 152.94 142.238ZM157.547 148.956C157.547 149.34 157.355 149.532 157.163 149.724C156.971 149.916 156.779 149.916 156.587 149.916H156.203C155.82 149.916 155.436 149.532 155.244 149.34C154.668 148.573 154.86 147.805 155.436 147.229C155.628 147.037 156.011 147.037 156.203 147.037C156.587 147.037 156.971 147.229 157.355 147.613H157.547V148.956ZM162.73 152.604C162.538 153.179 161.962 153.371 161.386 153.371H160.81C160.043 153.179 159.467 152.412 159.659 151.644C159.659 151.452 159.851 151.068 160.234 151.068C160.618 150.876 161.002 150.876 161.386 150.876H161.77C162.154 151.068 162.538 151.452 162.73 151.644V152.604ZM167.913 153.371H167.337C166.761 153.371 166.185 152.987 165.993 152.604V151.836C166.185 151.452 166.377 151.068 166.953 151.068H167.337C167.721 150.876 168.105 151.068 168.489 151.26C168.68 151.452 168.872 151.644 169.064 151.836C169.064 152.412 168.68 153.179 167.913 153.371ZM164.457 150.492C160.043 150.492 156.395 146.845 156.395 142.238C156.395 137.631 160.043 133.984 164.457 133.984C168.872 133.984 172.52 137.631 172.52 142.238C172.52 146.845 168.872 150.492 164.457 150.492ZM173.671 149.148C173.479 149.532 173.095 149.724 172.711 149.724H172.328C172.136 149.724 171.944 149.724 171.752 149.532C171.56 149.34 171.368 149.148 171.368 148.764C171.368 148.381 171.368 147.997 171.56 147.613C171.56 147.485 171.624 147.357 171.752 147.229C171.944 146.845 172.52 146.653 172.903 146.653C173.287 146.653 173.479 146.653 173.671 146.845C173.863 147.037 174.055 147.421 174.055 147.805C174.055 148.381 173.863 148.764 173.671 149.148ZM174.631 143.774C174.439 143.774 174.055 143.582 173.863 143.39C173.479 143.198 173.287 142.814 173.287 142.238V141.854C173.287 141.47 173.479 141.086 173.863 140.702C174.055 140.51 174.439 140.319 174.631 140.319C175.399 140.319 175.975 141.086 175.975 141.854C175.975 143.006 175.207 143.774 174.631 143.774Z" stroke="#818385" stroke-width="0.264828" stroke-miterlimit="10"/>
<path d="M164.457 119.587C176.742 119.587 186.916 129.761 186.916 142.43C186.916 155.099 176.934 165.272 164.457 165.272C151.98 165.272 141.999 155.099 141.999 142.43C141.999 129.761 151.98 119.587 164.457 119.587ZM164.457 117.476C151.02 117.476 140.079 128.609 140.079 142.238C140.079 155.867 151.02 167 164.457 167C177.894 167 188.835 155.867 188.835 142.238C188.643 128.609 177.894 117.476 164.457 117.476Z" fill="#818385"/>
</svg>
