<svg width="111" height="111" viewBox="0 0 111 111" fill="none" xmlns="http://www.w3.org/2000/svg">
<g clip-path="url(#clip0_403_954)">
<path d="M4.89844 13.1237V9.54386C4.89844 6.71771 7.15936 4.45679 9.98552 4.45679H42.7689C45.5951 4.45679 47.856 6.71771 47.856 9.54386V13.1237C47.856 15.9498 45.5951 18.2107 42.7689 18.2107H9.98552C7.15936 18.2107 4.89844 15.9498 4.89844 13.1237Z" stroke="#010101" stroke-width="1.31282" stroke-miterlimit="10"/>
<path d="M51.4355 13.8773V10.2975C51.4355 7.47137 53.6965 5.21045 56.5226 5.21045H89.306C92.1322 5.21045 94.3931 7.47137 94.3931 10.2975V13.8773C94.3931 16.7035 92.1322 18.9644 89.306 18.9644H56.5226C53.6965 18.776 51.4355 16.7035 51.4355 13.8773Z" stroke="#010101" stroke-width="1.31282" stroke-miterlimit="10"/>
<path d="M51.4355 27.6313V23.6747C51.4355 20.8486 53.6965 18.5876 56.5226 18.5876H89.306C92.1322 18.5876 94.3931 20.8486 94.3931 23.6747V27.6313C94.3931 30.4575 92.1322 32.7184 89.306 32.7184H56.5226C53.6965 32.53 51.4355 30.4575 51.4355 27.6313Z" stroke="#010101" stroke-width="1.31282" stroke-miterlimit="10"/>
<path d="M76.1179 31.9646H67.0742V78.8788H76.1179V31.9646Z" fill="#818385"/>
<path d="M30.7107 31.9646H21.667V77.9367H30.7107V31.9646Z" fill="#818385"/>
<path d="M96.6546 43.0808H0.376953V68.5162H96.6546V43.0808Z" stroke="#818385" stroke-width="0.65641" stroke-miterlimit="10"/>
<path d="M109.843 18.9644H97.2197V92.4444H109.843V18.9644Z" stroke="#818385" stroke-width="0.65641" stroke-miterlimit="10"/>
<path d="M4.89844 26.8777V22.9211C4.89844 20.0949 7.15936 17.834 9.98552 17.834H42.7689C45.5951 17.834 47.856 20.0949 47.856 22.9211V26.8777C47.856 29.7038 45.5951 31.9648 42.7689 31.9648H9.98552C7.15936 31.9648 4.89844 29.7038 4.89844 26.8777Z" stroke="#010101" stroke-width="1.31282" stroke-miterlimit="10"/>
<path d="M4.89844 86.7921V83.2123C4.89844 80.3862 7.15936 78.1252 9.98552 78.1252H42.7689C45.5951 78.1252 47.856 80.3862 47.856 83.2123V86.7921C47.856 89.6183 45.5951 91.8792 42.7689 91.8792H9.98552C7.15936 91.8792 4.89844 89.4299 4.89844 86.7921Z" stroke="#010101" stroke-width="1.31282" stroke-miterlimit="10"/>
<path d="M4.89844 100.546V96.5893C4.89844 93.7631 7.15936 91.5022 9.98552 91.5022H42.7689C45.5951 91.5022 47.856 93.7631 47.856 96.5893V100.546C47.856 103.372 45.5951 105.633 42.7689 105.633H9.98552C7.15936 105.633 4.89844 103.184 4.89844 100.546Z" stroke="#010101" stroke-width="1.31282" stroke-miterlimit="10"/>
<path d="M51.4355 87.3573V83.7775C51.4355 80.9513 53.6965 78.6904 56.5226 78.6904H89.306C92.1322 78.6904 94.3931 80.9513 94.3931 83.7775V87.3573C94.3931 90.1835 92.1322 92.4444 89.306 92.4444H56.5226C53.6965 92.4444 51.4355 90.1835 51.4355 87.3573Z" stroke="#010101" stroke-width="1.31282" stroke-miterlimit="10"/>
<path d="M51.4355 101.111V97.1547C51.4355 94.3286 53.6965 92.0676 56.5226 92.0676H89.306C92.1322 92.0676 94.3931 94.3286 94.3931 97.1547V101.111C94.3931 103.937 92.1322 106.198 89.306 106.198H56.5226C53.6965 106.198 51.4355 103.937 51.4355 101.111Z" stroke="#010101" stroke-width="1.31282" stroke-miterlimit="10"/>
</g>
<defs>
<clipPath id="clip0_403_954">
<rect width="110.22" height="110.22" fill="white" transform="translate(0 0.217529)"/>
</clipPath>
</defs>
</svg>
