<svg width="130" height="167" viewBox="0 0 130 167" fill="none" xmlns="http://www.w3.org/2000/svg">
<g clip-path="url(#clip0_403_816)">
<path d="M98.2044 82.0267H31.1021C28.4082 82.0267 26.2041 79.8169 26.2041 77.116V62.1383C26.2041 59.4374 28.4082 57.2275 31.1021 57.2275H98.2044C100.898 57.2275 103.102 59.4374 103.102 62.1383V77.116C103.102 79.8169 100.653 82.0267 98.2044 82.0267Z" stroke="#818385" stroke-width="1.14329" stroke-miterlimit="10"/>
<path d="M88.4084 135.554H40.4082V105.598C40.4082 102.406 43.1021 99.9509 46.0409 99.9509H82.7757C85.9594 99.9509 88.4084 102.652 88.4084 105.598V135.554Z" stroke="#818385" stroke-width="1.14329" stroke-miterlimit="10"/>
<path d="M44.5713 135.554V107.563C44.5713 104.862 46.5305 102.897 49.2244 102.897H79.3469C82.0408 102.897 84 104.862 84 107.563V135.554" stroke="#818385" stroke-width="1.01626" stroke-miterlimit="10"/>
<path d="M44.5713 109.527H84.2449" stroke="#818385" stroke-width="1.01626" stroke-miterlimit="10"/>
<path d="M44.5713 118.366H84.2449" stroke="#818385" stroke-width="1.01626" stroke-miterlimit="10"/>
<path d="M44.5713 127.451H84.2449" stroke="#818385" stroke-width="1.01626" stroke-miterlimit="10"/>
<path d="M76.1631 98.2322L85.2243 84.2366" stroke="#818385" stroke-width="1.01626" stroke-miterlimit="10"/>
<path d="M51.6731 98.2322L42.1221 84.2366" stroke="#818385" stroke-width="1.01626" stroke-miterlimit="10"/>
<path d="M21.7955 107.563C21.7955 107.563 13.7139 116.402 13.7139 117.875V135.063H115.837V117.138C115.837 115.665 113.878 113.701 112.898 112.964C111.918 112.228 106.041 107.808 106.041 107.808C106.041 107.808 105.306 54.7722 105.306 52.0713C105.306 49.3704 103.837 43.2319 96.9795 43.2319H32.5711C27.4282 43.2319 24.2445 47.8971 23.7547 52.0713C23.7547 56.2454 21.7955 108.054 21.7955 108.054V107.563Z" stroke="#818385" stroke-width="1.01626" stroke-miterlimit="10"/>
<path d="M13.7139 135.063V146.849C13.7139 146.849 14.2037 152.987 18.6118 152.987H111.673C113.633 152.987 115.592 148.813 115.592 146.357C115.592 143.902 116.082 135.063 116.082 135.063" stroke="#818385" stroke-width="1.01626" stroke-miterlimit="10"/>
<path d="M36.4896 131.134C35.9998 126.96 21.061 119.84 16.4079 121.558C15.6732 122.54 15.9181 132.608 15.9181 132.608H33.7957C35.0202 132.608 36.4896 132.116 36.2447 130.889L36.4896 131.134Z" stroke="#818385" stroke-width="1.01626" stroke-miterlimit="10"/>
<path d="M23.2651 131.625C25.4291 131.625 27.1834 129.866 27.1834 127.697C27.1834 125.527 25.4291 123.768 23.2651 123.768C21.101 123.768 19.3467 125.527 19.3467 127.697C19.3467 129.866 21.101 131.625 23.2651 131.625Z" stroke="#818385" stroke-width="1.01626" stroke-miterlimit="10"/>
<path d="M93.3066 131.134C93.7964 126.96 108.735 119.84 113.388 121.558C114.123 122.54 113.878 132.608 113.878 132.608H96.0005C94.776 132.608 93.5515 132.116 93.5515 130.889L93.3066 131.134Z" stroke="#818385" stroke-width="1.01626" stroke-miterlimit="10"/>
<path d="M106.776 131.625C108.94 131.625 110.694 129.866 110.694 127.697C110.694 125.527 108.94 123.768 106.776 123.768C104.612 123.768 102.857 125.527 102.857 127.697C102.857 129.866 104.612 131.625 106.776 131.625Z" stroke="#818385" stroke-width="1.01626" stroke-miterlimit="10"/>
<path d="M18.6117 152.987C16.6526 152.987 15.4281 151.759 14.6934 150.286V160.599C14.6934 162.808 16.4077 164.527 18.6117 164.527H24.4893C26.6934 164.527 28.4077 162.808 28.4077 160.599V152.987H18.6117Z" stroke="#818385" stroke-width="0.889225" stroke-miterlimit="10"/>
<path d="M110.449 152.987C112.408 152.987 113.633 151.759 114.368 150.286V160.599C114.368 162.808 112.653 164.527 110.449 164.527H104.572C102.368 164.527 100.653 162.808 100.653 160.599V152.987H110.449Z" stroke="#818385" stroke-width="0.889225" stroke-miterlimit="10"/>
<path d="M97.7148 42.741C100.899 40.2856 109.96 33.165 114.858 33.165C116.327 33.165 117.307 33.6561 117.307 38.8124V114.929L116.082 118.612" stroke="#818385" stroke-width="0.889225" stroke-miterlimit="10"/>
<path d="M32.3263 42.741C29.1426 40.2856 20.0813 33.165 15.1834 33.165C13.714 33.165 12.7344 33.6561 12.7344 38.8124V114.929L13.9589 118.612" stroke="#818385" stroke-width="0.889225" stroke-miterlimit="10"/>
<path d="M16.4082 33.1651V15.9775C16.4082 15.9775 17.8776 2.71851 29.3878 2.71851H99.9187C107.511 2.71851 112.653 10.8212 112.653 15.2409C112.653 19.6605 112.653 33.6561 112.653 33.6561" stroke="#818385" stroke-width="0.889225" stroke-miterlimit="10"/>
<path d="M5.63257 87.1831C2.93868 87.1831 0.979492 85.2188 0.979492 82.5179V71.7143C0.979492 69.0134 2.93868 67.0491 5.63257 67.0491C8.32646 67.0491 10.2857 69.0134 10.2857 71.7143V82.5179C10.2857 84.9732 8.32646 87.1831 5.63257 87.1831Z" stroke="#818385" stroke-width="0.889225" stroke-miterlimit="10"/>
<path d="M6.85742 86.6921L22.531 94.3038" stroke="#818385" stroke-width="0.889225" stroke-miterlimit="10"/>
<path d="M7.83691 87.1831L22.5308 89.6385" stroke="#818385" stroke-width="0.889225" stroke-miterlimit="10"/>
<path d="M124.164 87.1831C126.858 87.1831 128.817 85.2188 128.817 82.5179V71.7143C128.817 69.0134 126.858 67.0491 124.164 67.0491C121.47 67.0491 119.511 69.0134 119.511 71.7143V82.5179C119.511 84.9732 121.47 87.1831 124.164 87.1831Z" stroke="#818385" stroke-width="0.889225" stroke-miterlimit="10"/>
<path d="M122.939 86.6921L105.796 95.0404" stroke="#818385" stroke-width="0.889225" stroke-miterlimit="10"/>
<path d="M121.714 87.1831L105.796 89.6385" stroke="#818385" stroke-width="0.889225" stroke-miterlimit="10"/>
</g>
<defs>
<clipPath id="clip0_403_816">
<rect width="129.552" height="167" fill="white"/>
</clipPath>
</defs>
</svg>
