<svg width="134" height="55" viewBox="0 0 134 55" fill="none" xmlns="http://www.w3.org/2000/svg">
<path d="M11.8858 28.5502V30.0838C11.8858 30.8506 11.3107 31.6174 10.3522 31.6174H2.30068C1.15046 31.6174 0.383652 30.0838 1.15046 29.1253L11.119 17.048C11.3107 16.6646 11.8858 16.4729 12.2692 16.4729C13.2277 16.4729 13.9945 17.4314 13.6111 18.3899C12.6526 21.6489 11.8858 25.0995 11.8858 28.5502Z" stroke="#818385" stroke-width="1.23605" stroke-miterlimit="10"/>
<path d="M112.721 28.5502C112.721 24.9078 112.146 21.6489 110.804 18.3899C110.421 17.4314 111.187 16.4729 112.146 16.4729H131.508C132.275 16.4729 133.041 17.048 133.041 18.0065V30.0838C133.041 30.8506 132.466 31.6174 131.508 31.6174H114.063C113.296 31.6174 112.529 30.8506 112.529 30.0838C112.721 29.7004 112.721 29.1253 112.721 28.5502Z" stroke="#818385" stroke-width="1.23605" stroke-miterlimit="10"/>
<path d="M87.417 8.03809C77.0651 8.03809 68.4385 16.6647 68.4385 27.2083C68.4385 37.752 76.8734 46.3786 87.417 46.3786C97.9606 46.3786 106.396 37.752 106.396 27.2083C106.204 16.6647 97.7689 8.03809 87.417 8.03809ZM87.417 40.2441C80.5157 40.2441 74.7647 34.493 74.7647 27.4C74.7647 20.307 80.5157 14.556 87.417 14.556C94.3183 14.556 100.069 20.307 100.069 27.4C100.069 34.493 94.3183 40.2441 87.417 40.2441Z" stroke="#818385" stroke-width="0.274678" stroke-miterlimit="10"/>
<path d="M87.4169 7.46289C76.6816 7.46289 67.8633 16.4729 67.8633 27.3999C67.8633 38.327 76.6816 47.337 87.4169 47.337C98.1523 47.337 106.971 38.327 106.971 27.3999C106.971 16.4729 98.1523 7.46289 87.4169 7.46289ZM87.4169 46.7619C76.8733 46.7619 68.4384 38.1353 68.4384 27.3999C68.4384 16.6646 76.8733 8.038 87.4169 8.038C97.9606 8.038 106.395 16.6646 106.395 27.3999C106.395 38.1353 97.7689 46.7619 87.4169 46.7619Z" stroke="#818385" stroke-width="0.274678" stroke-miterlimit="10"/>
<path d="M109.463 23.9493C109.654 24.9078 109.654 26.058 109.654 27.3999H108.696H108.888H109.463C109.463 28.5502 109.463 29.5087 109.271 30.4672H108.312V30.8506H109.271C109.079 32.0008 108.888 33.151 108.504 34.1095C108.504 34.1095 107.546 33.9178 107.546 34.1095L108.504 34.4929C108.312 35.6431 107.929 36.6017 107.354 37.5602L106.395 37.1768C106.204 37.1768 106.204 37.3685 106.204 37.3685L107.162 37.7519C106.587 38.7104 106.012 39.6689 105.437 40.6274C105.437 40.6274 104.67 40.0523 104.67 40.244H104.478L105.245 40.8191C104.67 41.7776 103.903 42.5444 103.136 43.3112C103.136 43.3112 102.37 42.5444 102.37 42.7361H102.178L102.945 43.5029C102.178 44.2697 101.411 45.0366 100.453 45.6117C100.453 45.6117 99.8775 44.8449 99.8775 45.0366H99.6858L100.261 45.8034C99.4941 46.3785 98.5356 46.9536 97.5771 47.5287L97.1937 46.5702C97.1937 46.7619 97.002 46.7619 97.002 46.7619L97.3854 47.7204C96.4269 48.2955 95.2767 48.6789 94.3182 49.0623L93.9348 48.1038H93.7431L94.1265 49.0623C93.1679 49.4457 92.2094 49.6374 90.8675 49.8291M109.463 23.9493H108.504M109.463 23.9493C109.271 22.6074 109.079 21.6489 108.696 20.4987L107.737 20.8821C107.737 20.6904 108.696 20.3069 108.696 20.3069C108.312 19.3484 107.929 18.1982 107.546 17.2397L106.587 17.6231C106.587 17.6231 106.587 17.4314 106.395 17.4314L107.354 17.048C106.779 16.0895 106.204 15.131 105.629 14.1725L104.862 14.7476H104.67C104.67 14.5559 105.437 13.9808 105.437 13.9808C104.862 13.0223 104.095 12.2554 103.328 11.4886L102.561 12.2554H102.37C102.37 12.0637 103.136 11.2969 103.136 11.2969C102.37 10.5301 101.603 9.76332 100.644 9.18821L100.069 9.95502H99.8775C99.8775 9.76332 100.453 8.99651 100.453 8.99651C99.4941 8.4214 98.7273 7.84629 97.7688 7.27118L97.3854 8.2297C97.3854 8.2297 97.1937 8.2297 97.1937 8.03799L97.5771 7.07948C96.6186 6.50437 95.6601 6.12097 94.5099 5.73756M94.5099 5.73756L94.1265 6.69608M94.5099 5.73756C93.5514 5.35416 92.4011 5.16246 91.4426 4.97076V5.92927H91.0592V4.97076C90.1007 4.77905 89.1422 4.77905 87.992 4.77905V5.73756H87.6086V4.77905C86.4584 4.77905 85.4999 4.77905 84.3496 4.97076M84.3496 4.97076V5.92927M84.3496 4.97076C83.0077 5.16246 82.0492 5.35416 81.0907 5.73756L81.4741 6.69608H81.2824L80.899 5.73756C79.9405 6.12097 78.7903 6.50437 77.8318 7.07948L78.2152 8.03799C78.2152 8.03799 78.0235 8.03799 78.0235 8.2297L77.6401 7.27118C76.6815 7.84629 75.723 8.4214 74.9562 8.99651L75.5313 9.76332H75.3396C75.3396 9.95502 74.7645 9.18821 74.7645 9.18821C73.806 9.76332 73.0392 10.5301 72.2724 11.2969L72.6558 11.872H72.4641C72.4641 12.0637 71.6973 11.2969 71.6973 11.2969C70.9305 12.0637 70.1637 12.8306 69.5885 13.7891L70.3554 14.3642H70.1637C70.1637 14.5559 69.3968 13.9808 69.3968 13.9808C68.8217 14.9393 68.2466 15.8978 67.6715 16.8563L68.63 17.2397C68.63 17.2397 68.63 17.4314 68.4383 17.4314L67.4798 17.048C66.9047 18.0065 66.5213 18.965 66.3296 20.1152L67.2881 20.4987C67.2881 20.6904 66.3296 20.4987 66.3296 20.4987C65.9462 21.4572 65.7545 22.6074 65.5628 23.7576H66.5213V24.141H65.5628C65.3711 25.0995 65.3711 26.058 65.3711 27.2082H66.3296V27.5916H65.3711C65.3711 28.7419 65.3711 29.8921 65.5628 30.8506M65.5628 30.8506H66.5213M65.5628 30.8506C65.7545 32.1925 65.9462 33.151 66.3296 34.3012L67.2881 33.9178C67.2881 34.1095 66.3296 34.4929 66.3296 34.4929C66.713 35.4514 67.0964 36.6017 67.4798 37.5602L68.4383 37.1768C68.4383 37.1768 68.4383 37.3685 68.63 37.3685L67.6715 37.7519C68.2466 38.7104 68.8217 39.6689 69.3968 40.6274L70.1637 40.0523H70.3554C70.3554 40.244 69.5885 40.8191 69.5885 40.8191C70.1637 41.7776 70.9305 42.5444 71.6973 43.3112L72.4641 42.5444H72.6558C72.6558 42.7361 71.889 43.5029 71.889 43.5029C72.6558 44.2697 73.4226 45.0366 74.3811 45.6117L74.9562 44.8449H75.1479C75.1479 45.0366 74.5728 45.8034 74.5728 45.8034C75.5313 46.3785 76.2981 46.9536 77.2566 47.5287L77.6401 46.5702C77.6401 46.5702 77.8318 46.5702 77.8318 46.7619L77.4484 47.7204C78.4069 48.2955 79.3654 48.6789 80.5156 49.0623L80.899 48.1038H81.0907L80.7073 49.0623C81.6658 49.4457 82.816 49.6374 83.7745 49.8291V48.8706H84.1579V49.8291C84.9247 50.0208 86.075 50.0208 87.2252 50.0208V49.0623H87.6086V50.0208C88.7588 50.0208 89.7173 50.0208 90.8675 49.8291M90.8675 49.8291V48.8706M101.795 41.9693C97.9605 45.8034 92.7845 48.1038 87.4169 48.1038C82.0492 48.1038 76.8732 45.9951 73.0392 41.9693C69.2051 38.1353 67.0964 32.9593 67.0964 27.3999C67.0964 21.8406 69.2051 16.6646 73.0392 12.8306C76.8732 8.99651 82.0492 6.69608 87.4169 6.69608C92.7845 6.69608 97.9605 8.8048 101.795 12.8306C105.629 16.6646 107.737 21.8406 107.737 27.3999C107.737 32.9593 105.629 38.1353 101.795 41.9693Z" stroke="#818385" stroke-width="0.274678" stroke-miterlimit="10"/>
<path d="M87.4168 6.88794C76.2981 6.88794 67.2881 16.0897 67.2881 27.4001C67.2881 38.7105 76.2981 47.9123 87.4168 47.9123C98.5356 47.9123 107.546 38.7105 107.546 27.4001C107.546 16.0897 98.5356 6.88794 87.4168 6.88794ZM101.219 41.5861C97.5771 45.4201 92.5928 47.5289 87.4168 47.5289C82.2409 47.5289 77.2566 45.4201 73.4226 41.5861C69.7802 37.752 67.6715 32.7678 67.6715 27.4001C67.6715 22.0324 69.7802 17.0482 73.4226 13.2141C77.0649 9.38007 82.0492 7.27134 87.4168 7.27134C92.7845 7.27134 97.5771 9.38007 101.219 13.2141C104.862 17.0482 106.97 22.0324 106.97 27.4001C106.97 32.7678 105.053 37.752 101.219 41.5861Z" stroke="#818385" stroke-width="0.274678" stroke-miterlimit="10"/>
<path d="M87.4167 19.1567C83.0076 19.1567 79.3652 22.7991 79.3652 27.3999C79.3652 32.0008 83.0076 35.6431 87.4167 35.6431C91.8259 35.6431 95.4682 32.0008 95.4682 27.3999C95.4682 22.7991 91.8259 19.1567 87.4167 19.1567ZM93.1678 24.9078C93.5512 24.7161 93.7429 24.9078 93.9346 25.2912C94.1263 25.6746 93.9346 25.8663 93.5512 26.058C93.1678 26.2497 92.9761 26.058 92.7844 25.6746C92.5927 25.2912 92.7844 24.9078 93.1678 24.9078ZM90.484 22.0323C90.6757 21.8406 91.0591 21.6489 91.2508 21.8406C91.4425 22.0323 91.6342 22.4157 91.4425 22.6074C91.2508 22.7991 90.8674 22.9908 90.6757 22.7991C90.484 22.7991 90.2923 22.224 90.484 22.0323ZM87.4167 20.4987C87.8001 20.4987 87.9918 20.6904 87.9918 21.0738C87.9918 21.4572 87.8001 21.6489 87.4167 21.6489C87.0333 21.6489 86.8416 21.4572 86.8416 21.0738C86.8416 20.6904 86.8416 20.4987 87.4167 20.4987ZM83.391 21.8406C83.5827 21.6489 83.9661 21.6489 84.1578 22.0323C84.3495 22.224 84.3495 22.6074 83.9661 22.7991C83.7744 22.9908 83.391 22.9908 83.1993 22.6074C83.1993 22.6074 83.1993 22.0323 83.391 21.8406ZM81.6657 29.8921C81.2823 30.0838 81.0906 29.8921 80.8989 29.5087C80.7071 29.1253 80.8989 28.9336 81.2823 28.7419C81.6657 28.5502 81.8574 28.7419 82.0491 29.1253C82.0491 29.5087 82.0491 29.7004 81.6657 29.8921ZM82.0491 25.6746C82.0491 26.058 81.6657 26.058 81.2823 26.058C80.8989 25.8663 80.8989 25.6746 80.8989 25.2912C81.0906 24.9078 81.2823 24.9078 81.6657 24.9078C82.0491 24.9078 82.2408 25.2912 82.0491 25.6746ZM84.1578 32.7676C83.9661 32.9593 83.5827 33.151 83.391 32.9593C83.1993 32.7676 83.0076 32.3842 83.1993 32.1925C83.391 32.0008 83.7744 31.8091 83.9661 32.0008C84.3495 32.0008 84.3495 32.5759 84.1578 32.7676ZM87.4167 34.3012C87.0333 34.3012 86.8416 34.1095 86.8416 33.7261C86.8416 33.3427 87.0333 33.151 87.4167 33.151C87.8001 33.151 87.9918 33.3427 87.9918 33.7261C87.9918 33.9178 87.6084 34.3012 87.4167 34.3012ZM91.4425 32.9593C91.2508 33.151 90.8674 33.151 90.6757 32.7676C90.484 32.5759 90.484 32.1925 90.8674 32.0008C91.0591 31.8091 91.4425 31.8091 91.6342 32.1925C91.6342 32.1925 91.6342 32.7676 91.4425 32.9593ZM87.4167 32.1925C84.7329 32.1925 82.6242 30.0838 82.6242 27.3999C82.6242 24.7161 84.7329 22.6074 87.4167 22.6074C90.1006 22.6074 92.2093 24.7161 92.2093 27.3999C92.2093 30.0838 89.9089 32.1925 87.4167 32.1925ZM93.7429 29.5087C93.5512 29.8921 93.3595 29.8921 92.9761 29.8921C92.5927 29.7004 92.5927 29.5087 92.5927 29.1253C92.5927 28.7419 92.9761 28.7419 93.3595 28.7419C93.7429 28.9336 93.9346 29.1253 93.7429 29.5087Z" stroke="#818385" stroke-width="0.274678" stroke-miterlimit="10"/>
<path d="M87.4167 14.7476C80.5154 14.7476 74.9561 20.4986 74.9561 27.3999C74.9561 34.3012 80.5154 40.0523 87.4167 40.0523C94.318 40.0523 99.8774 34.4929 99.8774 27.3999C99.6857 20.4986 94.1263 14.7476 87.4167 14.7476ZM94.318 20.6903C94.318 20.3069 94.5097 20.1152 94.7014 19.9235C94.8931 19.7318 95.2765 19.7318 95.6599 19.7318C96.0433 19.7318 96.4267 20.1152 96.6184 20.4986C97.1935 21.2654 97.0018 22.0322 96.4267 22.6074C95.8516 23.1825 96.0433 22.7991 95.8516 22.7991H95.6599C95.2765 22.7991 94.8931 22.6074 94.5097 22.224H94.318V21.8405C94.318 21.4571 94.318 21.0737 94.318 20.6903ZM89.142 17.048C89.3337 16.2812 90.2923 16.0895 91.0591 16.2812C91.8259 16.4729 92.401 17.2397 92.2093 18.0065C92.2093 18.1982 92.0176 18.5816 91.6342 18.5816C91.4425 18.7733 91.0591 18.7733 90.8674 18.7733H90.1005C89.7171 18.5816 89.3337 18.1982 89.142 18.0065C88.9503 17.6231 88.9503 17.2397 89.142 17.048ZM83.0076 17.048C83.1993 16.6646 83.5827 16.4729 83.9661 16.2812C84.7329 16.0895 85.6914 16.2812 85.8831 17.048V17.8148C85.6914 18.1982 85.4997 18.5816 84.9246 18.5816H84.1578C83.9661 18.5816 83.5827 18.5816 83.391 18.3899L82.8159 17.8148C82.8159 17.8148 82.8159 17.2397 83.0076 17.048ZM78.0233 20.4986C78.215 20.1152 78.5984 19.9235 78.9818 19.7318C79.3652 19.7318 79.7486 19.7318 79.9403 19.9235C80.132 20.1152 80.3237 20.3069 80.3237 20.6903C80.3237 21.0737 80.3237 21.4571 80.132 21.8405V22.224C79.9403 22.6074 79.3652 22.7991 78.9818 22.7991H78.7901C78.5984 22.7991 78.4067 22.7991 78.215 22.6074C77.6399 22.224 77.6399 21.2654 78.215 20.4986H78.0233ZM75.9146 27.3999C75.9146 26.4414 76.4897 25.8663 77.2565 25.8663C78.0233 25.8663 77.8316 26.058 78.0233 26.2497C78.4067 26.4414 78.5984 26.8248 78.5984 27.3999V27.7833C78.5984 28.1667 78.4067 28.5501 78.0233 28.9335C77.8316 29.1252 77.4482 29.3169 77.2565 29.3169C76.4897 28.9335 75.9146 28.1667 75.9146 27.3999ZM80.5154 34.1095C80.5154 34.4929 80.3237 34.6846 80.132 34.8763C79.9403 35.068 79.7486 35.068 79.5569 35.068H79.1735C78.7901 35.068 78.4067 34.6846 78.215 34.4929C77.6399 33.7261 77.8316 32.9593 78.4067 32.3842C78.9818 31.8091 78.9818 32.1925 79.1735 32.1925C79.5569 32.1925 79.9403 32.3842 80.3237 32.7676H80.5154V33.151C80.5154 33.151 80.5154 33.7261 80.5154 34.1095ZM85.6914 37.7518C85.4997 38.327 84.9246 38.5187 84.3495 38.5187H83.7744C83.0076 38.327 82.4324 37.5601 82.6242 36.7933C82.6242 36.6016 82.8159 36.2182 83.1993 36.2182C83.5827 36.0265 83.9661 36.0265 84.3495 36.0265H84.7329C85.1163 36.2182 85.4997 36.6016 85.6914 36.7933C85.6914 37.1767 85.6914 37.5601 85.6914 37.7518ZM90.8674 38.5187H90.2922C89.7171 38.5187 89.142 38.1353 88.9503 37.7518V36.985C89.142 36.6016 89.3337 36.2182 89.9088 36.2182H90.2922C90.6757 36.0265 91.0591 36.2182 91.4425 36.4099L92.0176 36.985C92.0176 37.5601 91.8259 38.327 90.8674 38.5187ZM87.4167 35.6431C83.0076 35.6431 79.3652 32.0008 79.3652 27.3999C79.3652 22.7991 83.0076 19.1567 87.4167 19.1567C91.8259 19.1567 95.4682 22.7991 95.4682 27.3999C95.4682 32.0008 91.8259 35.6431 87.4167 35.6431ZM96.6184 34.3012C96.4267 34.6846 96.0433 34.8763 95.6599 34.8763H95.2765C95.0848 34.8763 94.8931 34.8763 94.7014 34.6846C94.5097 34.4929 94.318 34.3012 94.318 33.9178C94.318 33.5344 94.318 33.151 94.5097 32.7676C94.5097 32.6398 94.5736 32.512 94.7014 32.3842C94.8931 32.0008 95.4682 31.8091 95.8516 31.8091C96.235 31.8091 96.4267 31.8091 96.6184 32.0008C96.8101 32.1925 97.0018 32.5759 97.0018 32.9593C97.0018 33.5344 97.0018 33.9178 96.6184 34.3012ZM97.5769 28.9335C97.3852 28.9335 97.0018 28.7418 96.8101 28.5501C96.4267 28.3584 96.235 27.975 96.235 27.3999V27.0165C96.235 26.6331 96.4267 26.2497 96.8101 25.8663C97.0018 25.6746 97.3852 25.4829 97.5769 25.4829C98.3438 25.4829 98.9189 26.2497 98.9189 27.0165C98.9189 28.1667 98.3438 28.9335 97.5769 28.9335Z" stroke="#818385" stroke-width="0.274678" stroke-miterlimit="10"/>
<path d="M87.4165 4.77914C99.6855 4.77914 109.846 14.9394 109.846 27.5917C109.846 40.2441 99.8772 50.4043 87.4165 50.4043C74.9559 50.4043 64.9873 40.2441 64.9873 27.5917C64.9873 14.9394 75.1476 4.77914 87.4165 4.77914ZM87.4165 2.67041C73.9973 2.67041 63.0703 13.7892 63.0703 27.4C63.0703 41.0109 73.9973 52.1296 87.4165 52.1296C100.836 52.1296 111.763 41.0109 111.763 27.4C111.763 13.7892 100.836 2.67041 87.4165 2.67041Z" fill="#818385"/>
<path d="M38.3408 8.03809C27.9889 8.03809 19.3623 16.6647 19.3623 27.2083C19.3623 37.752 27.7972 46.3786 38.3408 46.3786C48.8845 46.3786 57.3194 37.752 57.3194 27.2083C57.3194 16.6647 48.6928 8.03809 38.3408 8.03809ZM38.3408 40.2441C31.4396 40.2441 25.6885 34.493 25.6885 27.4C25.6885 20.307 31.4396 14.556 38.3408 14.556C45.2421 14.556 50.9932 20.307 50.9932 27.4C50.9932 34.493 45.2421 40.2441 38.3408 40.2441Z" stroke="#818385" stroke-width="0.274678" stroke-miterlimit="10"/>
<path d="M38.3408 7.46289C27.6054 7.46289 18.7871 16.4729 18.7871 27.3999C18.7871 38.327 27.6054 47.337 38.3408 47.337C49.0761 47.337 57.8944 38.327 57.8944 27.3999C57.8944 16.4729 49.0761 7.46289 38.3408 7.46289ZM38.3408 46.7619C27.7971 46.7619 19.3622 38.1353 19.3622 27.3999C19.3622 16.6646 27.7971 8.038 38.3408 8.038C48.8844 8.038 57.3193 16.6646 57.3193 27.3999C57.3193 38.1353 48.8844 46.7619 38.3408 46.7619Z" stroke="#818385" stroke-width="0.274678" stroke-miterlimit="10"/>
<path d="M60.3862 23.9493C60.5779 24.9078 60.5779 26.058 60.5779 27.3999H59.6194V27.5916H60.5779C60.5779 28.7419 60.5779 29.7004 60.3862 30.6589H59.4277V31.0423H60.3862C60.1945 32.1925 60.0028 33.3427 59.6194 34.3012C59.6194 34.3012 58.6609 34.1095 58.6609 34.3012L59.6194 34.6846C59.4277 35.8348 59.0443 36.7934 58.4692 37.7519L57.5106 37.3685C57.3189 37.3685 57.3189 37.5602 57.3189 37.5602L58.2775 37.9436C57.7024 38.9021 57.1272 39.8606 56.5521 40.8191C56.5521 40.8191 55.7853 40.244 55.7853 40.4357H55.5936L56.3604 41.0108C55.7853 41.9693 55.0185 42.7361 54.2517 43.5029C54.2517 43.5029 53.4849 42.7361 53.4849 42.9278H53.2932L54.06 43.6946C53.2932 44.4615 52.5264 45.2283 51.5679 45.8034C51.5679 45.8034 50.9928 45.0366 50.9928 45.2283H50.8011L51.3762 45.9951C50.6094 46.5702 49.6508 47.1453 48.6923 47.7204L48.3089 46.7619C48.3089 46.9536 48.1172 46.9536 48.1172 46.9536L48.5006 47.9121C47.5421 48.4872 46.3919 48.8706 45.4334 49.254L45.05 48.2955H44.8583L45.2417 49.254C44.2832 49.6374 43.3247 49.8291 41.9828 50.0208M60.3862 23.9493H59.4277M60.3862 23.9493C60.1945 22.6074 60.0028 21.6489 59.6194 20.4987L58.6609 20.8821C58.6609 20.6904 59.6194 20.3069 59.6194 20.3069C59.236 19.3484 58.8526 18.1982 58.4692 17.2397L57.5106 17.6231C57.5106 17.6231 57.5106 17.4314 57.3189 17.4314L58.2775 17.048C57.7024 16.0895 57.1272 15.131 56.5521 14.1725L55.7853 14.7476H55.5936C55.5936 14.5559 56.3604 13.9808 56.3604 13.9808C55.7853 13.0223 55.0185 12.2554 54.2517 11.4886L53.4849 12.2554H53.2932C53.2932 12.0637 54.06 11.2969 54.06 11.2969C53.2932 10.5301 52.5264 9.76332 51.5679 9.18821L50.9928 9.95502H50.8011C50.8011 9.76332 51.3762 8.99651 51.3762 8.99651C50.4177 8.4214 49.6508 7.84629 48.6923 7.27118L48.3089 8.2297C48.3089 8.2297 48.1172 8.2297 48.1172 8.03799L48.5006 7.07948C47.5421 6.50437 46.5836 6.12097 45.4334 5.73756L45.05 6.69608H44.8583L45.2417 5.73756C44.2832 5.35416 43.133 5.16246 42.1745 4.97076V5.92927H41.791V4.97076C40.8325 4.77905 39.874 4.77905 38.7238 4.77905V5.73756H38.3404V4.77905C37.1902 4.77905 36.2317 4.77905 35.0815 4.97076M35.0815 4.97076V5.92927M35.0815 4.97076C33.7395 5.16246 32.781 5.35416 31.8225 5.73756L32.2059 6.69608H32.0142L31.6308 5.73756C30.6723 6.12097 29.5221 6.50437 28.5636 7.07948L28.947 8.03799C28.947 8.03799 28.7553 8.03799 28.7553 8.2297L28.3719 7.27118C27.4134 7.84629 26.4549 8.4214 25.688 8.99651L26.2632 9.76332H26.0714C26.0714 9.95502 25.4963 9.18821 25.4963 9.18821C24.5378 9.76332 23.771 10.5301 23.0042 11.2969L23.771 12.0637H23.5793C23.5793 12.2554 22.8125 11.4886 22.8125 11.4886C22.0457 12.2554 21.2789 13.0223 20.7038 13.9808L21.4706 14.5559H21.2789C21.2789 14.7476 20.5121 14.1725 20.5121 14.1725C19.937 15.131 19.3619 16.0895 18.7868 17.048L19.7453 17.4314C19.7453 17.4314 19.7453 17.6231 19.5536 17.6231L18.5951 17.2397C18.0199 18.1982 17.6365 19.1567 17.4448 20.3069L18.4034 20.6904C18.4034 20.8821 17.4448 20.6904 17.4448 20.6904C17.0614 21.6489 16.8697 22.7991 16.678 23.9493H17.6365V24.3327H16.678C16.4863 25.2912 16.4863 26.2497 16.4863 27.3999H17.4448V27.7833H16.4863C16.4863 28.9336 16.4863 30.0838 16.678 31.0423M16.678 31.0423H17.6365M16.678 31.0423C16.8697 32.3842 17.0614 33.3427 17.4448 34.4929L18.4034 34.1095C18.4034 34.3012 17.4448 34.6846 17.4448 34.6846C17.8282 35.6431 18.2116 36.7934 18.5951 37.7519L19.5536 37.3685C19.5536 37.3685 19.5536 37.5602 19.7453 37.5602L18.7868 37.9436C19.3619 38.9021 19.937 39.8606 20.5121 40.8191L21.2789 40.244H21.4706C21.4706 40.4357 20.7038 41.0108 20.7038 41.0108C21.2789 41.9693 22.0457 42.7361 22.8125 43.5029L23.5793 42.7361H23.771C23.771 42.9278 23.0042 43.6946 23.0042 43.6946C23.771 44.4615 24.5378 45.2283 25.4963 45.8034L26.0714 45.0366H26.2632C26.2632 45.2283 25.688 45.9951 25.688 45.9951C26.6466 46.5702 27.4134 47.1453 28.3719 47.7204L28.7553 46.7619C28.7553 46.7619 28.947 46.7619 28.947 46.9536L28.5636 47.9121C29.5221 48.4872 30.4806 48.8706 31.6308 49.254L32.0142 48.2955H32.2059L31.8225 49.254C32.781 49.6374 33.9313 49.8291 34.8898 50.0208V49.0623H35.2732V50.0208C36.04 50.2125 37.1902 50.2125 38.3404 50.2125V49.254H38.7238V50.2125C39.874 50.2125 40.8325 50.2125 41.9828 50.0208M41.9828 50.0208V49.0623M52.7181 41.9693C48.884 45.8034 43.7081 48.1038 38.3404 48.1038C32.9727 48.1038 27.7968 45.9951 23.9627 41.9693C20.1287 38.1353 18.0199 32.9593 18.0199 27.3999C18.0199 21.8406 20.1287 16.6646 23.9627 12.8306C27.7968 8.99651 32.9727 6.69608 38.3404 6.69608C43.7081 6.69608 48.884 8.8048 52.7181 12.8306C56.5521 16.6646 58.6609 21.8406 58.6609 27.3999C58.6609 32.9593 56.5521 38.1353 52.7181 41.9693Z" stroke="#818385" stroke-width="0.274678" stroke-miterlimit="10"/>
<path d="M38.3407 6.88794C27.2219 6.88794 18.2119 16.0897 18.2119 27.4001C18.2119 38.7105 27.2219 47.9123 38.3407 47.9123C49.4594 47.9123 58.4694 38.7105 58.4694 27.4001C58.4694 16.0897 49.4594 6.88794 38.3407 6.88794ZM52.1432 41.5861C48.5009 45.4201 43.5166 47.5289 38.3407 47.5289C33.1647 47.5289 28.1804 45.4201 24.3464 41.5861C20.704 37.752 18.5953 32.7678 18.5953 27.4001C18.5953 22.0324 20.704 17.0482 24.3464 13.2141C27.9887 9.38007 32.973 7.27134 38.3407 7.27134C43.7083 7.27134 48.5009 9.38007 52.1432 13.2141C55.7856 17.0482 57.8943 22.0324 57.8943 27.4001C57.8943 32.7678 55.9773 37.752 52.1432 41.5861Z" stroke="#818385" stroke-width="0.274678" stroke-miterlimit="10"/>
<path d="M38.3406 19.1567C33.9314 19.1567 30.2891 22.7991 30.2891 27.3999C30.2891 32.0008 33.9314 35.6431 38.3406 35.6431C42.7497 35.6431 46.3921 32.0008 46.3921 27.3999C46.3921 22.7991 42.7497 19.1567 38.3406 19.1567ZM44.0916 24.9078C44.475 24.7161 44.6667 24.9078 44.8584 25.2912C45.0502 25.6746 44.8584 25.8663 44.475 26.058C44.0916 26.2497 43.8999 26.058 43.7082 25.6746C43.5165 25.2912 43.7082 24.9078 44.0916 24.9078ZM41.4078 22.0323C41.5995 21.8406 41.9829 21.6489 42.1746 21.8406C42.3663 22.0323 42.558 22.4157 42.3663 22.6074C42.1746 22.7991 41.7912 22.9908 41.5995 22.7991C41.4078 22.7991 41.2161 22.224 41.4078 22.0323ZM38.3406 20.4987C38.724 20.4987 38.9157 20.6904 38.9157 21.0738C38.9157 21.4572 38.724 21.6489 38.3406 21.6489C37.9572 21.6489 37.7655 21.4572 37.7655 21.0738C37.7655 20.6904 37.9572 20.4987 38.3406 20.4987ZM34.3148 21.8406C34.5065 21.6489 34.8899 21.6489 35.0816 22.0323C35.2733 22.224 35.2733 22.6074 34.8899 22.7991C34.6982 22.9908 34.3148 22.9908 34.1231 22.6074C34.1231 22.6074 34.1231 22.0323 34.3148 21.8406ZM32.5895 29.8921C32.2061 30.0838 32.0144 29.8921 31.8227 29.5087C31.631 29.1253 31.8227 28.9336 32.2061 28.7419C32.5895 28.5502 32.7812 28.7419 32.9729 29.1253C33.1646 29.5087 32.9729 29.7004 32.5895 29.8921ZM32.9729 25.6746C32.9729 26.058 32.5895 26.058 32.2061 26.058C31.8227 25.8663 31.8227 25.6746 31.8227 25.2912C32.0144 24.9078 32.2061 24.9078 32.5895 24.9078C32.9729 24.9078 33.1646 25.2912 32.9729 25.6746ZM35.0816 32.7676C34.8899 32.9593 34.5065 33.151 34.3148 32.9593C34.1231 32.7676 33.9314 32.3842 34.1231 32.1925C34.3148 32.0008 34.6982 31.8091 34.8899 32.0008C35.2733 32.0008 35.2733 32.5759 35.0816 32.7676ZM38.3406 34.3012C37.9572 34.3012 37.7655 34.1095 37.7655 33.7261C37.7655 33.3427 37.9572 33.151 38.3406 33.151C38.724 33.151 38.9157 33.3427 38.9157 33.7261C38.9157 34.1095 38.724 34.3012 38.3406 34.3012ZM42.3663 32.9593C42.1746 33.151 41.7912 33.151 41.5995 32.7676C41.4078 32.5759 41.4078 32.1925 41.7912 32.0008C42.1746 31.8091 42.3663 31.8091 42.558 32.1925C42.558 32.1925 42.558 32.7676 42.3663 32.9593ZM38.3406 32.1925C35.6567 32.1925 33.548 30.0838 33.548 27.3999C33.548 24.7161 35.6567 22.6074 38.3406 22.6074C41.0244 22.6074 43.1331 24.7161 43.1331 27.3999C43.1331 30.0838 41.0244 32.1925 38.3406 32.1925ZM44.6667 29.5087C44.6667 29.8921 44.2833 29.8921 43.8999 29.8921C43.5165 29.7004 43.5165 29.5087 43.5165 29.1253C43.5165 28.7419 43.8999 28.7419 44.2833 28.7419C44.6667 28.9336 44.8584 29.1253 44.6667 29.5087Z" stroke="#818385" stroke-width="0.274678" stroke-miterlimit="10"/>
<path d="M38.3405 14.7476C31.4393 14.7476 25.8799 20.4986 25.8799 27.3999C25.8799 34.3012 31.4393 40.0523 38.3405 40.0523C45.2418 40.0523 50.8012 34.4929 50.8012 27.3999C50.6095 20.4986 45.2418 14.7476 38.3405 14.7476ZM45.2418 20.6903C45.2418 20.3069 45.4335 20.1152 45.6252 19.9235C45.8169 19.7318 46.2003 19.7318 46.5837 19.7318C46.9671 19.7318 47.3506 20.1152 47.5423 20.4986C48.1174 21.2654 47.9257 22.0322 47.3506 22.6074C46.7754 23.1825 46.9671 22.7991 46.7754 22.7991H46.5837C46.2003 22.7991 45.8169 22.6074 45.4335 22.224H45.2418V21.8405C45.2418 21.4571 45.2418 21.0737 45.2418 20.6903ZM40.0659 17.048C40.2576 16.2812 41.2161 16.0895 41.9829 16.2812C42.7497 16.4729 43.3248 17.2397 43.1331 18.0065C43.1331 18.1982 42.9414 18.5816 42.558 18.5816C42.3663 18.7733 41.9829 18.7733 41.7912 18.7733H41.0244C40.641 18.5816 40.2576 18.1982 40.0659 18.0065C40.0659 17.6231 40.0659 17.2397 40.0659 17.048ZM33.9314 17.048C34.1231 16.6646 34.5065 16.4729 34.8899 16.2812C35.6567 16.0895 36.6152 16.2812 36.8069 17.048V17.8148C36.6152 18.1982 36.4235 18.5816 35.8484 18.5816H35.0816C34.8899 18.5816 34.5065 18.5816 34.3148 18.3899L33.7397 17.8148C33.7397 17.8148 33.7397 17.2397 33.9314 17.048ZM28.9471 20.4986C29.1388 20.1152 29.5222 19.9235 29.9056 19.7318C30.289 19.7318 30.6724 19.7318 30.8641 19.9235C31.0558 20.1152 31.2475 20.3069 31.2475 20.6903C31.2475 21.0737 31.2476 21.4571 31.0558 21.8405C31.0558 21.9683 30.9919 22.0962 30.8641 22.224C30.6724 22.6074 30.0973 22.7991 29.7139 22.7991H29.5222C29.3305 22.7991 28.9471 22.7991 28.9471 22.6074C28.5637 22.224 28.5637 21.2654 28.9471 20.4986ZM26.8384 27.3999C26.8384 26.4414 27.4135 25.8663 28.1803 25.8663C28.9471 25.8663 28.7554 26.058 28.9471 26.2497C29.3305 26.4414 29.5222 26.8248 29.5222 27.3999V27.7833C29.5222 28.1667 29.3305 28.5501 28.9471 28.9335C28.7554 29.1252 28.372 29.3169 28.1803 29.3169C27.4135 28.9335 26.8384 28.1667 26.8384 27.3999ZM31.4393 34.1095C31.4393 34.4929 31.2476 34.6846 31.0558 34.8763C30.8641 35.068 30.6724 35.068 30.4807 35.068H30.0973C29.7139 35.068 29.3305 34.6846 29.1388 34.4929C28.5637 33.7261 28.7554 32.9593 29.3305 32.3842C29.9056 31.8091 29.9056 32.1925 30.0973 32.1925C30.4807 32.1925 30.8641 32.3842 31.2475 32.7676H31.4393V33.151C31.4393 33.151 31.4393 33.7261 31.4393 34.1095ZM36.6152 37.7518C36.4235 38.327 35.8484 38.5187 35.2733 38.5187H34.6982C33.9314 38.327 33.3563 37.5601 33.548 36.7933C33.548 36.6016 33.7397 36.2182 34.1231 36.2182C34.5065 36.0265 34.8899 36.0265 35.2733 36.0265H35.6567C36.0401 36.2182 36.4235 36.6016 36.6152 36.7933C36.6152 37.1767 36.6152 37.5601 36.6152 37.7518ZM41.7912 38.5187H41.2161C40.641 38.5187 40.0659 38.1353 39.8742 37.7518V36.985C40.0659 36.6016 40.2576 36.2182 40.8327 36.2182H41.2161C41.5995 36.0265 41.9829 36.2182 42.3663 36.4099L42.9414 36.985C42.9414 37.5601 42.7497 38.327 41.7912 38.5187ZM38.3405 35.6431C33.9314 35.6431 30.289 32.0008 30.289 27.3999C30.289 22.7991 33.9314 19.1567 38.3405 19.1567C42.7497 19.1567 46.392 22.7991 46.392 27.3999C46.392 32.0008 42.7497 35.6431 38.3405 35.6431ZM47.5423 34.3012C47.3506 34.6846 46.9671 34.8763 46.5837 34.8763H46.2003C46.0086 34.8763 45.8169 34.8763 45.6252 34.6846C45.4335 34.4929 45.2418 34.3012 45.2418 33.9178C45.2418 33.5344 45.2418 33.151 45.4335 32.7676C45.4335 32.6398 45.4974 32.512 45.6252 32.3842C45.8169 32.0008 46.392 31.8091 46.7754 31.8091C47.1588 31.8091 47.3506 31.8091 47.5423 32.0008C47.734 32.1925 47.9257 32.5759 47.9257 32.9593C47.9257 33.5344 47.9257 33.9178 47.5423 34.3012ZM48.5008 28.9335C48.3091 28.9335 47.9257 28.7418 47.734 28.5501C47.3506 28.3584 47.1589 27.975 47.1589 27.3999V27.0165C47.1589 26.6331 47.3506 26.2497 47.734 25.8663C47.9257 25.6746 48.3091 25.4829 48.5008 25.4829C49.2676 25.4829 49.8427 26.2497 49.8427 27.0165C49.8427 28.1667 49.2676 28.9335 48.5008 28.9335Z" stroke="#818385" stroke-width="0.274678" stroke-miterlimit="10"/>
<path d="M38.3403 4.77914C50.6093 4.77914 60.7695 14.9394 60.7695 27.5917C60.7695 40.2441 50.801 50.4043 38.3403 50.4043C25.8797 50.4043 15.9112 40.2441 15.9112 27.5917C15.9112 14.9394 26.0714 4.77914 38.3403 4.77914ZM38.3403 2.67041C24.9212 2.67041 13.9941 13.7892 13.9941 27.4C13.9941 41.0109 24.9212 52.1296 38.3403 52.1296C51.7595 52.1296 62.6866 41.0109 62.6866 27.4C62.6866 13.7892 51.7595 2.67041 38.3403 2.67041Z" fill="#818385"/>
</svg>
