<svg width="231" height="150" viewBox="0 0 231 150" fill="none" xmlns="http://www.w3.org/2000/svg">
<g clip-path="url(#clip0_403_890)">
<path d="M203.114 130.46L100.601 120.515C85.4914 120.515 73.251 108.274 73.251 93.165V54.9137C73.251 39.8045 85.4914 27.5641 100.601 27.5641L203.114 16.4712V130.46Z" stroke="#818385" stroke-width="1.21993" stroke-miterlimit="10"/>
<path d="M93.1419 101.198V47.0722C93.1419 38.8482 100.601 31.7717 112.076 27.3728H110.164C89.3167 27.3728 72.2949 36.9356 72.2949 48.7935V100.05C72.2949 111.908 89.3167 121.471 110.164 121.471H112.076C100.601 116.498 93.1419 109.231 93.1419 101.198Z" fill="#818385"/>
<path d="M118.77 121.854C103.469 121.854 90.6553 110.761 90.6553 98.7116V48.9849C90.6553 36.9358 102.896 26.2254 118.196 26.2254L122.595 24.6954L80.71 22.5916H24.0981C11.2839 22.5916 0.956055 30.4331 0.956055 40.5697V109.231C0.956055 119.176 11.2839 127.209 24.0981 127.209H81.475L124.316 122.427L118.77 121.854Z" stroke="#818385" stroke-width="1.21993" stroke-miterlimit="10"/>
<path d="M20.6555 22.9739L0.956055 45.7334C25.0544 38.2744 55.4641 30.8154 96.9668 31.3892" stroke="#818385" stroke-width="1.21993" stroke-linejoin="round"/>
<path d="M20.6555 127.4L0.956055 104.64C25.0544 112.099 55.4641 119.558 96.9668 118.985" stroke="#818385" stroke-width="1.21993" stroke-linejoin="round"/>
<path d="M93.333 73.4656H202.349" stroke="#818385" stroke-width="1.21993" stroke-miterlimit="10"/>
<path d="M112.65 3.08331C113.223 3.08331 113.797 3.27457 114.371 3.65708L117.24 5.18713L110.355 18.5751L107.486 17.045C105.573 16.0887 104.808 13.6024 105.764 11.6899L109.207 5.18713C109.972 4.0396 111.12 3.08331 112.65 3.08331ZM112.65 0.979492C110.163 0.979492 108.251 2.12703 107.103 4.42211L103.661 10.9248C102.131 13.7937 103.469 17.6188 106.338 19.1489L109.207 20.6789L111.12 21.6352L112.076 19.7226L118.961 6.33467L119.917 4.42211L118.005 3.46583L115.136 1.93577C114.562 1.17075 113.606 0.979492 112.65 0.979492Z" fill="#818385"/>
<path d="M105.956 15.1326L104.809 23.3566L107.869 23.7391L105.956 15.1326Z" fill="#818385"/>
<path d="M110.355 130.269L117.24 143.657L114.371 145.187C113.798 145.378 113.224 145.761 112.65 145.761C111.12 145.761 109.972 144.995 109.207 143.657L105.765 137.154C104.808 135.241 105.573 132.755 107.486 131.799L110.355 130.269ZM111.311 127.4L109.399 128.356L106.53 129.886C105 130.651 104.043 131.799 103.47 133.52C102.896 135.05 102.896 136.58 104.043 138.11L107.486 144.613C108.442 146.717 110.546 148.056 113.032 148.056C115.519 148.056 114.945 147.864 115.71 147.291L118.579 145.761L120.491 144.804L119.535 142.892L112.65 129.504L111.311 127.4Z" fill="#818385"/>
<path d="M105.956 133.711L104.809 125.487L107.869 124.914L105.956 133.711Z" fill="#818385"/>
<path d="M229.317 34.0669H203.688V52.2363H229.317V34.0669Z" stroke="#818385" stroke-width="1.21993" stroke-linejoin="round"/>
<path d="M229.317 98.1377H203.688V114.012H229.317V98.1377Z" stroke="#818385" stroke-width="1.21993" stroke-linejoin="round"/>
<path d="M229.317 60.6516H203.306V86.4712H229.317V60.6516Z" stroke="#818385" stroke-width="0.677741" stroke-miterlimit="10"/>
</g>
<defs>
<clipPath id="clip0_403_890">
<rect width="230.273" height="149" fill="white" transform="translate(0 0.0175781)"/>
</clipPath>
</defs>
</svg>
