<svg width="209" height="168" viewBox="0 0 209 168" fill="none" xmlns="http://www.w3.org/2000/svg">
<g clip-path="url(#clip0_403_968)">
<path d="M19.9147 155.683H8.39748C5.71013 155.683 3.59863 153.379 3.59863 150.692V136.487C3.59863 133.8 5.71013 131.497 8.39748 131.497H19.5308C17.9952 135.144 17.0354 138.983 17.0354 143.206C17.0354 147.429 18.1871 152.036 19.9147 155.683Z" stroke="#818385" stroke-width="1.19172" stroke-miterlimit="10"/>
<path d="M205.151 137.639C205.151 145.125 199.392 151.076 192.098 151.076H163.881C156.779 151.076 150.828 145.125 150.828 137.639C150.828 130.153 156.587 124.202 163.881 124.202H192.098C199.392 124.202 205.151 130.153 205.151 137.639Z" stroke="#818385" stroke-width="1.19172" stroke-miterlimit="10"/>
<path d="M3.59893 116.524C3.40697 119.979 6.28628 122.667 9.5495 122.667H25.6736C30.8564 117.868 37.5748 114.989 45.061 114.989C59.6495 115.18 71.7426 127.082 72.3185 141.862V143.59V144.549V154.531V159.714H74.6219V152.42C75.5817 151.844 76.7334 151.46 78.0771 151.46H146.797V122.859C146.797 121.323 147.948 120.171 149.484 120.171H202.655C204.191 120.171 205.343 119.02 205.343 117.484V6.72647C205.343 4.61497 203.999 2.88739 201.887 2.50348C150.828 -6.90227 115.892 36.0954 115.892 36.0954C93.0495 32.6403 77.6932 48.1885 77.6932 48.1885H88.6346L85.7552 77.9414C85.3713 81.0127 82.8759 83.3161 79.8047 83.3161H21.4506C21.4506 83.3161 13.0047 82.3564 7.82191 87.5391C4.17479 91.1862 3.59893 107.694 3.59893 116.524ZM172.327 48.1885H190.946V75.0621H172.327V48.1885ZM126.833 83.3161H92.0897C92.0897 83.1242 95.7369 48.1885 95.7369 48.1885H126.833V83.3161Z" stroke="#818385" stroke-width="1.19172" stroke-miterlimit="10"/>
<path d="M25.4814 142.246C25.4814 152.803 34.1194 161.441 44.4849 161.441C54.8504 161.441 63.4883 152.803 63.4883 142.246C63.4883 131.688 54.8504 123.051 44.4849 123.051C34.1194 123.051 25.6734 131.688 25.4814 142.246ZM31.8159 142.438C31.8159 135.336 37.5745 129.577 44.4849 129.577C51.3952 129.577 57.1539 135.336 57.1539 142.438C57.1539 149.54 51.3952 155.299 44.4849 155.299C37.5745 155.299 31.8159 149.54 31.8159 142.438Z" stroke="#818385" stroke-width="0.264828" stroke-miterlimit="10"/>
<path d="M24.9062 142.438C24.9062 153.379 33.7361 162.401 44.4856 162.401C55.235 162.401 64.0649 153.379 64.0649 142.438C64.0649 131.497 55.235 122.475 44.4856 122.475C33.7361 122.475 24.9062 131.497 24.9062 142.438ZM25.4821 142.438C25.4821 131.689 33.9281 123.051 44.4856 123.051C55.043 123.051 63.489 131.689 63.489 142.438C63.489 153.187 55.043 161.825 44.4856 161.825C33.9281 161.825 25.4821 153.187 25.4821 142.438Z" stroke="#818385" stroke-width="0.264828" stroke-miterlimit="10"/>
<path d="M22.6027 145.893C22.4107 144.741 22.4107 143.782 22.4107 142.438H23.1785V142.246H22.2188C22.2188 141.094 22.2188 139.943 22.4107 139.175H23.3705V138.791H22.4107C22.6027 137.639 22.7946 136.679 23.1785 135.528C23.1785 135.528 24.1383 135.72 24.1383 135.528L23.1785 135.144C23.5624 134.184 23.9463 133.032 24.3302 132.072L25.482 132.456C25.482 132.456 25.482 132.264 25.6739 132.264L24.7142 131.881C25.29 130.921 25.8659 129.961 26.4417 129.001C26.4417 129.001 27.2096 129.577 27.2096 129.385H27.4015L26.6337 128.809C27.2096 127.849 27.9774 127.082 28.7452 126.314C28.7452 126.314 29.513 127.082 29.513 126.89H29.705L28.9371 126.122C29.705 125.354 30.4728 124.586 31.4325 124.01C31.4325 124.01 32.0084 124.778 32.0084 124.586H32.2004L31.6245 123.818C32.5843 123.243 33.3521 122.667 34.3119 122.091L34.6958 123.051C34.6958 123.051 34.8877 123.051 34.8877 122.859L34.5038 121.899C35.4636 121.323 36.4233 120.939 37.5751 120.555L37.959 121.515H38.1509L37.767 120.555C38.7268 120.171 39.8785 119.787 41.0302 119.787M22.6027 145.893H23.5624M22.6027 145.893C22.7946 147.237 22.9866 148.389 23.3705 149.348L24.3302 148.964C24.3302 149.156 23.3705 149.54 23.3705 149.54C23.5624 150.692 23.9463 151.652 24.5222 152.612L25.482 152.228C25.6739 152.228 25.6739 152.42 25.6739 152.42L24.7142 152.804C25.29 153.763 25.8659 154.723 26.4417 155.683L27.2096 155.107H27.4015C27.4015 155.299 26.6337 155.875 26.6337 155.875C27.2096 156.835 27.9774 157.602 28.7452 158.37L29.513 157.602H29.705C29.705 157.794 28.9371 158.562 28.9371 158.562C29.705 159.33 30.4728 160.098 31.4325 160.674L32.0084 159.906H32.2004C32.2004 160.098 31.6245 160.866 31.6245 160.866C32.3923 161.441 33.3521 162.017 34.3119 162.593L34.6958 161.633C34.6958 161.825 34.8877 161.825 34.8877 161.825L34.5038 162.785C35.4636 163.361 36.6153 163.745 37.5751 164.129L37.959 163.169H38.1509L37.767 164.129C38.7268 164.513 39.6866 164.705 40.8383 164.897V163.937H41.2222V164.897C42.182 165.089 43.1417 165.089 44.2935 165.089V164.129H44.6774V165.089C45.8291 165.089 46.9808 165.089 47.9406 164.897M47.9406 164.897V163.937M47.9406 164.897C49.0923 164.897 50.244 164.513 51.2038 164.129L50.8199 163.169H51.0119L51.3958 164.129C52.5475 163.745 53.5073 163.361 54.467 162.785L54.0831 161.825C54.0831 161.633 54.2751 161.633 54.2751 161.633L54.659 162.593C55.6188 162.017 56.3866 161.441 57.3463 160.866L56.7705 160.098H56.9624C56.9624 159.906 57.5383 160.674 57.5383 160.674C58.4981 160.098 59.2659 159.33 60.0337 158.562L59.2659 157.794H59.4578C59.4578 157.602 60.2256 158.37 60.2256 158.37C60.9935 157.602 61.7613 156.835 62.3371 155.875L61.5693 155.299H61.7613C61.7613 155.107 62.5291 155.683 62.5291 155.683C63.105 154.723 63.6808 153.763 64.2567 152.804L63.2969 152.42C63.4889 152.42 63.4889 152.228 63.4889 152.228L64.4486 152.612C64.8325 151.652 65.2164 150.5 65.6004 149.54L64.6406 149.156C64.6406 148.964 65.6004 149.156 65.6004 149.156C65.9843 148.005 66.1762 147.045 66.3682 145.893H65.4084V145.509H66.3682C66.5601 144.741 66.5601 143.59 66.5601 142.438H65.6004V142.054H66.5601C66.5601 140.902 66.5601 139.943 66.3682 138.791M66.3682 138.791H65.4084M66.3682 138.791C66.1762 137.447 65.9843 136.295 65.6004 135.336L64.6406 135.72C64.6406 135.528 65.6004 135.144 65.6004 135.144C65.4084 133.992 65.0245 133.032 64.4486 132.072L63.4889 132.456C63.2969 132.456 63.2969 132.264 63.2969 132.264L64.2567 131.881C63.6808 130.921 63.105 129.961 62.5291 129.001L61.7613 129.577H61.5693C61.5693 129.385 62.3371 128.809 62.3371 128.809C61.7613 127.849 60.9935 127.082 60.2256 126.314L59.4578 127.082H59.2659C59.2659 126.89 60.0337 126.122 60.0337 126.122C59.2659 125.354 58.4981 124.586 57.5383 124.01L56.9624 124.778H56.7705C56.7705 124.586 57.3463 123.818 57.3463 123.818C56.5785 123.243 55.6188 122.667 54.659 122.091L54.2751 123.051C54.2751 122.859 54.0831 122.859 54.0831 122.859L54.467 121.899C53.5073 121.323 52.3555 120.939 51.3958 120.555L51.0119 121.515H50.8199L51.2038 120.555C50.244 120.171 49.2843 119.979 48.1325 119.787V120.747H47.7486V119.787C46.7889 119.595 45.8291 119.595 44.6774 119.595V120.555H44.2935V119.595C43.1417 119.595 42.182 119.595 41.0302 119.787M41.0302 119.787V120.747M24.1383 142.438C24.1383 136.871 26.2498 131.689 30.0889 127.849C33.9279 123.818 39.1107 121.707 44.4854 121.707C49.8601 121.707 55.0429 124.01 58.882 127.849C62.721 131.689 64.8325 136.871 64.8325 142.438C64.8325 148.005 62.721 153.187 58.882 157.026C55.0429 161.058 49.8601 163.169 44.4854 163.169C39.1107 163.169 33.9279 160.866 30.0889 157.026C26.2498 153.187 24.1383 148.005 24.1383 142.438Z" stroke="#818385" stroke-width="0.264828" stroke-miterlimit="10"/>
<path d="M24.3301 142.438C24.3301 153.763 33.3519 162.977 44.4852 162.977C55.6186 162.977 64.6404 153.763 64.6404 142.438C64.6404 131.113 55.6186 121.899 44.4852 121.899C33.3519 121.899 24.3301 131.113 24.3301 142.438ZM24.9059 142.438C24.9059 137.063 27.0174 132.072 30.6646 128.233C34.3117 124.394 39.3025 122.283 44.4852 122.283C49.668 122.283 54.8508 124.394 58.4979 128.233C62.145 132.072 64.2565 137.063 64.2565 142.438C64.2565 147.813 62.145 152.804 58.4979 156.643C54.6588 160.482 49.668 162.593 44.4852 162.593C39.3025 162.593 34.3117 160.482 30.6646 156.643C27.0174 152.804 24.9059 147.813 24.9059 142.438Z" stroke="#818385" stroke-width="0.264828" stroke-miterlimit="10"/>
<path d="M36.4229 142.438C36.4229 147.045 40.07 150.692 44.4849 150.692C48.8999 150.692 52.547 147.045 52.547 142.438C52.547 137.831 48.8999 134.184 44.4849 134.184C40.07 134.184 36.4229 137.831 36.4229 142.438ZM39.3022 140.71C39.1102 141.094 38.9183 141.286 38.5343 141.094C38.1504 141.094 37.9585 140.71 38.1504 140.326C38.3424 139.942 38.5343 139.751 38.9183 139.942C38.9183 139.942 39.3022 140.326 39.3022 140.71ZM41.2217 137.831C41.0297 137.831 40.6458 137.831 40.4539 137.639C40.2619 137.639 40.4539 137.063 40.6458 136.871C40.8378 136.871 41.2217 136.871 41.4137 137.063C41.6056 137.255 41.6056 137.639 41.2217 137.831ZM45.0608 136.103C45.0608 136.487 45.0608 136.679 44.4849 136.679C43.9091 136.679 43.9091 136.487 43.9091 136.103C43.9091 135.719 43.9091 135.528 44.4849 135.528C45.0608 135.528 45.0608 135.719 45.0608 136.103ZM48.7079 137.639C48.516 138.023 48.132 138.023 47.9401 137.831C47.5562 137.831 47.5562 137.255 47.7481 137.063C47.9401 136.679 48.324 136.679 48.516 136.871C48.516 137.063 48.8999 137.447 48.7079 137.639ZM49.8596 144.165C50.0516 143.782 50.2435 143.59 50.6274 143.782C51.0114 143.782 51.2033 144.165 51.0114 144.549C50.8194 144.933 50.6274 145.125 50.2435 144.933C50.0516 144.741 49.8596 144.549 49.8596 144.165ZM50.2435 139.942C50.6274 139.942 50.8194 139.942 51.0114 140.326C51.0114 140.71 51.0114 140.902 50.6274 141.094C50.2435 141.094 49.8596 141.094 49.8596 140.71C49.8596 140.326 50.0516 139.942 50.2435 139.942ZM47.9401 147.045C48.132 147.045 48.516 147.045 48.7079 147.237C48.8999 147.237 48.7079 147.813 48.516 148.005C48.324 148.005 47.9401 148.005 47.7481 147.813C47.7481 147.621 47.7481 147.237 47.9401 147.045ZM43.9091 148.772C43.9091 148.388 43.9091 148.196 44.4849 148.196C45.0608 148.196 45.0608 148.388 45.0608 148.772C45.0608 149.156 45.0608 149.348 44.4849 149.348C43.9091 149.348 43.9091 148.964 43.9091 148.772ZM40.4539 147.237C40.6458 146.853 41.0297 146.853 41.2217 147.045C41.6056 147.045 41.6056 147.621 41.4137 147.813C41.2217 148.196 40.8378 148.196 40.6458 148.005C40.2619 148.005 40.2619 147.429 40.4539 147.237ZM39.6861 142.438C39.6861 139.75 41.7976 137.639 44.4849 137.639C47.1723 137.639 49.2838 139.75 49.2838 142.438C49.2838 145.125 47.1723 147.237 44.4849 147.237C41.7976 147.237 39.878 145.125 39.6861 142.438ZM38.5343 143.782C38.9183 143.782 39.3022 143.782 39.3022 144.165C39.3022 144.549 39.3022 144.741 38.9183 144.933C38.5343 144.933 38.1504 144.933 38.1504 144.549C38.1504 144.165 38.1504 143.973 38.5343 143.782Z" stroke="#818385" stroke-width="0.264828" stroke-miterlimit="10"/>
<path d="M32.0078 142.438C32.0078 149.54 37.5745 155.107 44.4848 155.107C51.3952 155.107 56.9618 149.348 56.9618 142.438C56.9618 135.528 51.3952 129.769 44.4848 129.769C37.5745 129.769 32.1998 135.528 32.0078 142.438ZM37.5745 136.871V137.255C36.9986 137.639 36.6147 137.831 36.2308 137.831H36.0388C36.0388 137.831 35.6549 137.831 35.463 137.639C34.8871 137.063 34.6952 136.295 35.271 135.528C35.463 135.144 35.8469 134.76 36.2308 134.76C36.6147 134.76 36.9986 134.76 37.1906 134.952C37.3825 134.952 37.5745 135.336 37.5745 135.72C37.7664 136.104 37.5745 136.487 37.5745 136.871ZM42.9492 133.032C42.7572 133.032 42.3733 133.608 41.9894 133.8H41.2216C41.0297 133.8 40.6457 133.8 40.4538 133.608C40.0699 133.608 39.8779 133.224 39.8779 133.032C39.686 132.264 40.2618 131.497 41.0297 131.305C41.7975 131.113 42.7572 131.305 42.9492 132.072V133.032ZM49.2837 132.84C49.2837 133.032 48.8998 133.224 48.7078 133.416C48.5159 133.608 48.1319 133.608 47.94 133.608H47.1722C46.5963 133.608 46.4044 133.224 46.2124 132.84V132.072C46.4044 131.305 47.3641 131.113 48.1319 131.305C48.5159 131.305 48.8998 131.689 49.0917 132.072C49.2837 132.264 49.2837 132.648 49.2837 132.84ZM53.8906 137.639C53.8906 137.831 53.5067 137.831 53.3147 137.831H53.1228C52.7388 137.831 52.163 137.639 51.971 137.255H51.7791V136.871C51.5871 136.487 51.5871 136.104 51.5871 135.72C51.5871 135.336 51.7791 135.144 51.971 134.952C52.163 134.76 52.5469 134.76 52.9308 134.76C53.3147 134.76 53.6986 135.144 53.8906 135.528C54.2745 136.295 54.2745 137.255 53.8906 137.639ZM54.6584 144.358C54.4664 144.358 54.0825 144.358 53.8906 143.974C53.5067 143.59 53.3147 143.206 53.3147 142.822V142.438C53.3147 141.862 53.3147 141.478 53.8906 141.286C54.0825 141.286 54.4664 140.902 54.6584 140.902C55.4262 140.902 56.0021 141.478 56.0021 142.438C56.0021 143.398 55.4262 143.974 54.6584 144.358ZM51.3952 148.197V147.813C51.971 147.429 52.3549 147.237 52.7388 147.237C52.9308 147.237 53.3147 147.237 53.5067 147.429C54.0825 148.005 54.2745 148.772 53.6986 149.54C53.5067 149.732 53.1228 150.116 52.7388 150.116H52.3549C52.3549 150.116 51.971 150.116 51.7791 149.924C51.5871 149.924 51.3952 149.54 51.3952 149.156V148.197ZM46.2124 151.844C46.4044 151.844 46.7883 151.268 47.1722 151.076H47.5561C47.94 151.076 48.3239 151.076 48.7078 151.268C49.0917 151.268 49.2837 151.652 49.2837 151.844C49.4756 152.612 48.8998 153.379 48.1319 153.571H47.5561C46.9802 153.571 46.4044 153.571 46.2124 152.804V151.844ZM39.8779 152.036C39.8779 151.844 40.2618 151.652 40.4538 151.46C40.8377 151.268 41.2216 151.076 41.6055 151.268H41.9894C42.5653 151.268 42.7572 151.652 42.9492 152.036V152.804C42.7572 153.187 42.1814 153.571 41.6055 153.571H41.0297C40.2618 153.379 39.686 152.612 39.8779 152.036ZM36.4228 142.438C36.4228 137.831 40.0699 134.184 44.4848 134.184C48.8998 134.184 52.5469 137.831 52.5469 142.438C52.5469 147.045 48.8998 150.692 44.4848 150.692C40.0699 150.692 36.4228 147.045 36.4228 142.438ZM34.8871 148.005C34.8871 147.621 35.0791 147.237 35.271 147.045C35.463 146.853 35.6549 146.853 36.0388 146.853C36.4228 146.853 36.9986 147.045 37.1906 147.429H37.3825V147.813C37.5745 148.197 37.5745 148.581 37.5745 148.964C37.5745 149.348 37.3825 149.54 37.1906 149.732C37.1906 149.924 36.8067 149.924 36.6147 149.924H36.2308C35.8469 149.924 35.463 149.732 35.271 149.348C35.271 148.964 34.8871 148.581 34.8871 148.005ZM32.9676 142.054C32.9676 141.286 33.5434 140.518 34.3113 140.518C35.0791 140.518 34.8871 140.518 35.0791 140.902C35.463 141.286 35.6549 141.67 35.6549 142.054V142.438C35.6549 143.014 35.6549 143.398 35.0791 143.59C34.8871 143.59 34.5032 143.974 34.3113 143.974C33.7354 143.974 32.9676 143.206 32.9676 142.054Z" stroke="#818385" stroke-width="0.264828" stroke-miterlimit="10"/>
<path d="M44.4856 119.787C56.9626 119.787 66.9442 129.961 66.9442 142.63C66.9442 155.299 56.7706 165.472 44.4856 165.472C32.2005 165.472 22.027 155.299 22.027 142.63C22.027 129.961 32.2005 119.787 44.4856 119.787ZM44.4856 117.676C31.0488 117.676 20.2994 128.809 20.1074 142.438C20.1074 156.067 31.0488 167.2 44.4856 167.2C57.9224 167.2 68.8637 156.067 68.8637 142.438C68.8637 128.809 57.9224 117.676 44.4856 117.676Z" fill="#818385"/>
</g>
<defs>
<clipPath id="clip0_403_968">
<rect width="208.75" height="167" fill="white" transform="translate(0 0.199951)"/>
</clipPath>
</defs>
</svg>
