<svg width="477" height="135" viewBox="0 0 477 135" fill="none" xmlns="http://www.w3.org/2000/svg">
<g clip-path="url(#clip0_412_1067)">
<path d="M453.62 115.598H468.7C470.127 115.598 471.349 114.376 471.349 112.949V107.447H473.795C474.814 107.447 475.629 106.632 475.629 105.613V6.57452C475.629 5.55561 474.814 4.74048 473.795 4.74048H2.8526C1.83369 4.74048 1.01855 5.55561 1.01855 6.57452V105.409C1.01855 106.428 2.03747 107.243 3.05638 107.243H145.501C145.501 107.855 145.704 108.466 146.112 109.077L150.188 114.579C150.595 115.191 151.41 115.598 152.225 115.598H164.452V126.195C164.452 126.603 164.045 127.01 163.637 127.01H160.581C160.173 127.01 159.765 127.418 159.765 127.825V129.048C159.765 129.456 160.173 129.863 160.581 129.863H232.108C232.516 129.863 232.923 129.456 232.923 129.048V127.825C232.923 127.418 232.516 127.01 232.108 127.01H229.052C228.644 127.01 228.236 126.603 228.236 126.195V115.598H273.476M166.898 126.399V115.802H225.18V126.399C225.18 126.806 224.772 127.214 224.365 127.214H167.917C167.509 127.214 167.102 126.806 167.102 126.399H166.898ZM146.316 106.836C146.723 106.224 147.335 105.817 147.946 105.817H468.7C469.719 105.817 470.534 106.632 470.534 107.651V113.153C470.534 114.172 469.719 114.987 468.7 114.987H453.824C454.028 114.376 453.62 113.764 452.805 113.764H273.884C273.272 113.764 272.865 114.376 272.865 114.987H152.022C151.41 114.987 151.003 114.579 150.595 114.172L146.52 108.67C146.112 108.058 146.112 107.447 146.52 106.836H146.316Z" stroke="#434344" stroke-width="1.18255" stroke-miterlimit="10"/>
</g>
<defs>
<clipPath id="clip0_412_1067">
<rect width="476.444" height="134" fill="white" transform="translate(0 0.199951)"/>
</clipPath>
</defs>
</svg>
