<svg width="476" height="168" viewBox="0 0 476 168" fill="none" xmlns="http://www.w3.org/2000/svg">
<g clip-path="url(#clip0_440_1038)">
<path d="M475.9 2.03512C475.9 1.01558 475.084 0.199951 474.065 0.199951H2.83516C1.81563 0.199951 1 1.01558 1 2.03512V100.93C1 101.95 1.81563 102.765 2.83516 102.765H5.28205V108.475C5.28205 109.902 6.50549 111.125 7.93285 111.125H23.022L33.8291 131.516C34.033 131.924 34.4408 132.128 34.8486 132.128H59.1136C59.5214 132.128 60.1331 131.72 60.1331 131.312C63.5995 120.301 73.3871 112.145 85.2137 111.125H90.3114C99.4872 111.941 107.643 117.243 112.333 124.787C112.741 125.399 113.761 125.399 114.168 124.787C118.858 117.243 126.811 111.941 136.19 111.125H141.084C152.911 112.145 162.495 120.301 166.165 131.312C166.165 131.72 166.777 132.128 167.184 132.128H191.449C191.857 132.128 192.265 132.128 192.469 131.516L203.276 111.125H248.543V121.729C248.543 122.136 248.136 122.544 247.728 122.544H244.669C244.261 122.544 243.853 122.952 243.853 123.36V124.583C243.853 124.991 244.261 125.399 244.669 125.399H316.241C316.648 125.399 317.056 124.991 317.056 124.583V123.36C317.056 122.952 316.648 122.544 316.241 122.544H313.182C312.774 122.544 312.366 122.136 312.366 121.729V111.125H324.601C325.416 111.125 326.232 110.718 326.64 110.106L330.718 104.6C331.126 103.989 331.33 103.377 331.33 102.765H473.861C474.88 102.765 475.696 101.95 475.696 100.93V2.03512H475.9ZM309.715 121.933C309.715 122.34 309.308 122.748 308.9 122.748H252.418C252.01 122.748 251.602 122.34 251.602 121.933V111.329H309.919V121.933H309.715ZM330.31 104.193L326.232 109.698C325.824 110.106 325.416 110.514 324.805 110.514H203.888C203.888 109.902 203.48 109.29 202.868 109.29H23.8376C23.022 109.29 22.6142 109.902 22.8181 110.514H7.93285C6.91331 110.514 6.09768 109.698 6.09768 108.679V103.173C6.09768 102.154 6.91331 101.338 7.93285 101.338H328.883C329.495 101.338 330.106 101.746 330.514 102.357C330.718 102.969 330.718 103.581 330.514 104.193H330.31Z" stroke="#434344" stroke-width="1.16044" stroke-miterlimit="10"/>
<path d="M87.2532 119.282C76.2422 119.282 67.0664 128.458 67.0664 139.672C67.0664 150.887 76.0383 160.063 87.2532 160.063C98.4681 160.063 107.44 150.887 107.44 139.672C107.44 128.458 98.4681 119.282 87.2532 119.282ZM87.2532 153.538C79.9126 153.538 73.7953 147.421 73.7953 139.876C73.7953 132.332 79.9126 126.215 87.2532 126.215C94.5939 126.215 100.711 132.332 100.711 139.876C100.711 147.421 94.7978 153.538 87.2532 153.538Z" stroke="#818285" stroke-width="0.257875" stroke-miterlimit="10"/>
<path d="M87.2526 118.67C75.8338 118.67 66.4541 128.254 66.4541 139.876C66.4541 151.499 75.8338 161.083 87.2526 161.083C98.6714 161.083 108.051 151.499 108.051 139.876C108.051 128.254 98.8753 118.67 87.2526 118.67ZM87.2526 160.471C76.0377 160.471 67.0658 151.295 67.0658 139.876C67.0658 128.457 76.0377 119.282 87.2526 119.282C98.4675 119.282 107.439 128.457 107.439 139.876C107.439 151.295 98.4675 160.471 87.2526 160.471Z" stroke="#818285" stroke-width="0.257875" stroke-miterlimit="10"/>
<path d="M110.906 136.206C110.906 137.226 110.906 138.449 110.906 139.876H109.887L109.275 140.08H110.294C110.294 141.304 110.294 142.323 110.294 143.343H109.275V143.751H110.294C110.09 144.974 109.887 146.197 109.479 147.217H108.459L109.479 147.625C109.275 148.848 108.867 149.868 108.255 150.887M110.906 136.206H109.887M110.906 136.206C110.906 134.779 110.498 133.759 110.09 132.536L109.071 132.944L110.09 132.332C109.683 131.312 109.275 130.089 108.867 129.069M108.867 129.069L107.847 129.477M108.867 129.069C108.255 128.05 107.644 127.03 107.032 126.011L106.216 126.622L107.032 125.807C106.42 124.787 105.604 123.972 104.789 123.156L103.973 123.972V123.564L104.585 122.748C103.769 121.933 102.954 121.117 101.934 120.505M101.934 120.505L101.322 121.525M101.934 120.505C100.915 119.893 100.099 119.282 99.0794 118.67L98.4677 119.486L98.8755 118.466C97.856 117.854 96.8365 117.447 95.613 117.039M95.613 117.039L95.2052 118.058M95.613 117.039C94.5935 116.631 93.37 116.427 92.3505 116.223V117.243H91.9427V116.223C90.9232 116.223 89.9036 116.223 88.6802 116.223V117.243H88.2724V116.223C87.0489 116.223 86.0294 116.223 84.8059 116.223M84.8059 116.223V117.243M84.8059 116.223C83.3786 116.223 82.3591 116.631 81.3395 117.039L81.7473 118.058L81.3395 117.243C80.32 117.65 79.0965 118.058 78.077 118.67M78.077 118.67L78.4848 119.69M78.077 118.67C77.0575 119.282 76.0379 119.893 75.2223 120.505L75.834 121.321H75.6301L75.0184 120.709C73.9989 121.321 73.1832 122.136 72.3676 122.952L73.1832 123.768L72.3676 123.156C71.552 123.972 70.7364 124.787 70.1246 125.807L70.9403 126.419L70.1246 126.011C69.5129 127.03 68.9012 128.05 68.2895 129.069M68.2895 129.069L69.309 129.477M68.2895 129.069C67.6777 130.089 67.2699 131.108 67.066 132.332L68.0856 132.74H67.066C66.6582 133.759 66.4543 134.983 66.2504 136.206H67.2699V136.614H66.2504C65.8426 137.633 65.8426 138.653 65.8426 139.876H66.8621V140.284H65.8426C65.8426 141.508 65.8426 142.731 65.8426 143.751M65.8426 143.751H66.8621M65.8426 143.751C65.8426 145.178 66.2504 146.197 66.6582 147.421L67.6777 147.013L66.6582 147.625C67.066 148.644 67.4738 149.868 67.8816 150.887M67.8816 150.887L68.9012 150.48M67.8816 150.887C68.4934 151.907 69.1051 152.926 69.7168 153.946L70.5324 153.334L69.7168 154.15C70.3285 155.169 71.1442 155.985 71.9598 156.801L72.7754 155.985L71.9598 157.005C72.7754 157.82 73.591 158.636 74.6106 159.248L75.2223 158.432L74.6106 159.451C75.6301 160.063 76.4458 160.675 77.4653 161.287M77.4653 161.287L77.8731 160.267M77.4653 161.287C78.4848 161.898 79.5044 162.306 80.7278 162.714M80.7278 162.714L81.1356 161.694M80.7278 162.714C81.7473 163.122 82.9708 163.326 83.9903 163.53V162.51H84.3981V163.53C85.2138 163.53 86.4372 163.53 87.6606 163.53V162.51H88.0685V163.53C89.2919 163.53 90.3114 163.53 91.5349 163.53M91.5349 163.53V162.51M91.5349 163.53C92.9622 163.53 93.9818 163.122 95.0013 162.714V161.694L95.4091 162.714C96.4287 162.306 97.6521 161.898 98.6716 161.287M98.6716 161.287L98.2638 160.267M98.6716 161.287C99.6912 160.675 100.711 160.063 101.526 159.451L100.915 158.636L101.526 159.248C102.546 158.636 103.361 157.82 104.177 157.005L103.362 156.189L104.177 156.801C104.993 155.985 105.808 155.169 106.42 154.15L105.604 153.538L106.42 153.946C107.032 152.926 107.644 151.907 108.255 150.887M108.255 150.887L107.236 150.48M102.546 155.373C98.4677 159.451 92.9622 161.898 87.2528 161.898C81.5434 161.898 76.0379 159.655 71.9598 155.373C67.8816 151.295 65.6387 145.79 65.6387 139.876C65.6387 133.963 67.8816 128.458 71.9598 124.379C76.0379 120.301 81.5434 117.854 87.2528 117.854C92.9622 117.854 98.4677 120.097 102.546 124.379C106.624 128.458 108.867 133.963 108.867 139.876C108.867 145.79 106.624 151.295 102.546 155.373Z" stroke="#818285" stroke-width="0.257875" stroke-miterlimit="10"/>
<path d="M87.253 118.058C75.4264 118.058 65.8428 127.846 65.8428 139.876C65.8428 151.907 75.4264 161.694 87.253 161.694C99.0796 161.694 108.663 151.907 108.663 139.876C108.663 127.846 99.2836 118.058 87.253 118.058ZM102.138 154.966C98.264 159.044 92.9624 161.287 87.253 161.287C81.5436 161.287 76.4459 159.044 72.5717 154.966C68.6975 150.887 66.4545 145.586 66.4545 139.876C66.4545 134.167 68.6975 128.865 72.5717 124.787C76.4459 120.709 81.7475 118.466 87.253 118.466C92.7585 118.466 98.0601 120.709 102.138 124.787C106.012 128.865 108.255 134.167 108.255 139.876C108.255 145.586 106.012 150.887 102.138 154.966Z" stroke="#818285" stroke-width="0.257875" stroke-miterlimit="10"/>
<path d="M87.2526 131.108C82.5627 131.108 78.6885 134.983 78.6885 139.876C78.6885 144.77 82.5627 148.644 87.2526 148.644C91.9424 148.644 95.8167 144.77 95.8167 139.876C95.8167 134.983 91.9424 131.108 87.2526 131.108ZM93.3698 137.226C93.7776 137.226 93.9815 137.226 94.1854 137.633C94.1854 138.041 94.1854 138.245 93.7776 138.449C93.3698 138.653 93.1659 138.449 92.962 138.041C92.962 137.633 92.962 137.226 93.3698 137.226ZM90.719 134.167C90.719 134.167 91.3307 133.759 91.5346 134.167C91.5346 134.167 91.9425 134.779 91.5346 134.983C91.5346 134.983 90.9229 135.39 90.719 134.983C90.3112 134.779 90.3112 134.371 90.719 134.167ZM87.2526 132.536C87.6604 132.536 87.8643 132.536 87.8643 133.147C87.8643 133.759 87.8643 133.759 87.2526 133.759C86.6409 133.759 86.6409 133.759 86.6409 133.147C86.6409 132.536 87.0487 132.536 87.2526 132.536ZM83.1744 133.963C83.1744 133.963 83.7862 133.963 83.9901 133.963C83.9901 133.963 83.9901 134.575 83.9901 134.779C83.9901 134.779 83.3783 134.779 83.1744 134.779C83.1744 134.779 83.1744 134.167 83.1744 133.963ZM81.3393 142.527C80.9315 142.527 80.7276 142.527 80.5236 142.119C80.5236 141.712 80.5236 141.508 80.9315 141.304C81.3393 141.1 81.5432 141.304 81.7471 141.712C81.7471 142.119 81.5432 142.323 81.3393 142.527ZM81.7471 138.041C81.7471 138.449 81.3393 138.449 80.9315 138.449C80.5236 138.449 80.5236 138.041 80.5236 137.633C80.5236 137.226 80.9315 137.226 81.3393 137.226C81.3393 137.226 81.7471 137.633 81.7471 138.041ZM83.9901 145.586C83.9901 145.586 83.3783 145.994 83.1744 145.586C83.1744 145.586 82.7666 144.974 83.1744 144.77C83.1744 144.77 83.7862 144.362 83.9901 144.77C83.9901 144.77 84.3979 145.382 83.9901 145.586ZM87.2526 147.217C86.8448 147.217 86.6409 147.217 86.6409 146.605C86.6409 145.994 86.6409 145.994 87.2526 145.994C87.8643 145.994 87.8643 145.994 87.8643 146.605C87.8643 146.809 87.8643 147.217 87.2526 147.217ZM91.5346 145.79C91.5346 145.79 90.9229 145.79 90.719 145.79C90.719 145.79 90.719 145.178 90.719 144.974C90.719 144.974 91.3307 144.974 91.5346 144.974C91.7385 144.974 91.5346 145.586 91.5346 145.79ZM87.2526 144.974C84.3979 144.974 82.1549 142.731 82.1549 139.876C82.1549 137.022 84.3979 134.779 87.2526 134.779C90.1073 134.779 92.3503 137.022 92.3503 139.876C92.3503 142.731 90.1073 144.974 87.2526 144.974ZM94.1854 142.119C94.1854 142.527 93.7776 142.527 93.3698 142.527C92.962 142.527 92.962 142.119 92.962 141.712C92.962 141.304 93.3698 141.304 93.7776 141.304C93.9815 141.508 94.1854 141.712 94.1854 142.119Z" stroke="#818285" stroke-width="0.257875" stroke-miterlimit="10"/>
<path d="M87.253 126.418C79.9123 126.418 73.999 132.536 73.999 139.876C73.999 147.217 79.9123 153.334 87.253 153.334C94.5937 153.334 100.507 147.421 100.507 139.876C100.507 132.332 94.5937 126.418 87.253 126.418ZM94.5937 132.74C94.5937 132.332 94.5937 132.128 95.0015 131.924C95.0015 131.924 95.6132 131.924 96.021 131.924C96.4288 131.924 96.8366 132.332 97.0405 132.74C97.6523 133.555 97.4484 134.371 97.0405 134.983C97.0405 134.983 96.6327 134.983 96.4288 134.983C96.021 134.983 95.6132 134.983 95.2054 134.371V133.963C95.2054 133.555 95.2054 133.147 95.2054 132.74H94.5937ZM89.0882 128.865C89.0882 128.05 90.3116 127.846 91.1272 128.05C91.9429 128.254 92.5546 129.069 92.3507 129.885C92.3507 129.885 92.3507 130.497 91.739 130.497C91.739 130.497 91.1272 130.497 90.9233 130.497H90.1077C89.6999 130.497 89.2921 129.885 89.0882 129.681V128.661V128.865ZM82.5631 128.865C82.5631 128.458 83.1749 128.254 83.5827 128.05C84.3983 128.05 85.4178 128.05 85.6217 128.865V129.681C85.6217 130.089 85.2139 130.497 84.6022 130.497H83.7866C83.3788 130.497 83.1749 130.497 82.9709 130.497C82.9709 130.497 82.5631 130.089 82.3592 129.885C82.3592 129.885 82.3592 129.273 82.3592 129.069L82.5631 128.865ZM77.4654 132.536C77.4654 132.128 78.0772 131.924 78.485 131.72C78.8928 131.72 79.3006 131.72 79.5045 131.72C79.7084 131.72 79.9123 132.128 79.9123 132.536C79.9123 132.943 79.9123 133.351 79.9123 133.759C79.9123 133.759 79.9123 133.895 79.9123 134.167C79.9123 134.575 79.3006 134.779 78.6889 134.779C78.6889 134.779 78.2811 134.779 78.0772 134.779C77.6694 134.371 77.4654 133.351 78.0772 132.536H77.4654ZM75.0186 139.876C75.0186 138.857 75.6303 138.245 76.4459 138.245C77.2615 138.245 77.0576 138.245 77.2615 138.653C77.6694 138.653 77.8733 139.265 77.8733 139.876V140.284C77.8733 140.692 77.8733 141.1 77.2615 141.508C77.2615 141.508 76.6498 141.915 76.4459 141.915C75.6303 141.508 75.0186 140.692 75.0186 139.876ZM79.9123 147.013C79.9123 147.421 79.9123 147.625 79.5045 147.829C79.5045 147.829 79.0967 147.829 78.8928 147.829H78.485C78.0772 147.829 77.6694 147.421 77.4654 147.217C76.8537 146.401 77.0576 145.586 77.4654 144.974C77.4654 144.974 78.0772 144.974 78.2811 144.974C78.6889 144.974 79.0967 144.974 79.5045 145.586V145.994C79.5045 145.994 79.7084 146.605 79.5045 147.013H79.9123ZM85.6217 150.887C85.6217 151.499 84.8061 151.703 84.1944 151.703H83.5827C82.767 151.703 82.1553 150.683 82.3592 149.868C82.3592 149.868 82.3592 149.256 82.9709 149.256C83.3788 149.256 83.7866 149.256 84.1944 149.256H84.6022C85.01 149.256 85.4178 149.868 85.6217 150.072C85.6217 150.48 85.6217 150.887 85.6217 151.091V150.887ZM91.1272 151.703H90.5155C89.9038 151.703 89.2921 151.295 89.0882 150.887V150.072C89.0882 149.664 89.496 149.256 90.1077 149.256H90.5155C90.9233 149.256 91.3311 149.256 91.739 149.256C91.739 149.256 92.1468 149.664 92.3507 149.868C92.5546 150.48 91.9429 151.295 91.1272 151.499V151.703ZM87.253 148.644C82.5631 148.644 78.6889 144.77 78.6889 139.876C78.6889 134.983 82.5631 131.108 87.253 131.108C91.9429 131.108 95.8171 134.983 95.8171 139.876C96.021 144.77 92.1468 148.644 87.253 148.644ZM97.2445 147.217C97.2445 147.625 96.6327 147.829 96.2249 147.829H95.8171C95.8171 147.829 95.4093 147.829 95.2054 147.829C95.0015 147.829 94.7976 147.421 94.7976 147.013C94.7976 146.605 94.7976 146.197 94.7976 145.79C94.7976 145.79 94.7976 145.654 94.7976 145.382C94.7976 144.974 95.6132 144.77 96.021 144.77C96.4288 144.77 96.6327 144.77 96.8366 144.77C96.8366 144.77 97.2445 145.382 97.2445 145.79C97.2445 146.401 97.2444 146.809 96.8366 147.217H97.2445ZM98.264 141.508C98.264 141.508 97.6523 141.508 97.4484 141.1C97.0405 141.1 96.8366 140.488 96.8366 139.876V139.469C96.8366 139.061 96.8366 138.653 97.4484 138.245C97.4484 138.245 98.0601 137.837 98.264 137.837C99.0796 137.837 99.6913 138.653 99.6913 139.469C99.4874 140.692 98.8757 141.508 98.264 141.508Z" stroke="#818285" stroke-width="0.257875" stroke-miterlimit="10"/>
<path d="M87.4568 115.815C100.507 115.815 111.314 126.622 111.314 140.08C111.314 153.538 100.711 164.345 87.4568 164.345C74.2028 164.141 63.5996 153.334 63.5996 139.876C63.5996 126.418 74.2028 115.815 87.4568 115.815ZM87.4568 113.572C73.1833 113.572 61.5605 125.399 61.5605 139.876C61.5605 154.354 73.1833 166.18 87.4568 166.18C101.73 166.18 113.353 154.354 113.353 139.876C113.353 125.399 101.526 113.572 87.4568 113.572Z" fill="#818285"/>
<path d="M138.637 119.282C127.626 119.282 118.45 128.458 118.45 139.672C118.45 150.887 127.422 160.063 138.637 160.063C149.852 160.063 158.824 150.887 158.824 139.672C158.62 128.458 149.648 119.282 138.637 119.282ZM138.637 153.538C131.296 153.538 125.179 147.421 125.179 139.876C125.179 132.332 131.296 126.215 138.637 126.215C145.978 126.215 152.095 132.332 152.095 139.876C152.095 147.421 145.978 153.538 138.637 153.538Z" stroke="#818285" stroke-width="0.257875" stroke-miterlimit="10"/>
<path d="M138.637 118.67C127.219 118.67 117.839 128.254 117.839 139.876C117.839 151.499 127.219 161.083 138.637 161.083C150.056 161.083 159.436 151.499 159.436 139.876C159.436 128.254 150.056 118.67 138.637 118.67ZM138.637 160.471C127.423 160.471 118.451 151.295 118.451 139.876C118.451 128.457 127.423 119.282 138.637 119.282C149.852 119.282 158.824 128.457 158.824 139.876C158.824 151.295 149.648 160.471 138.637 160.471Z" stroke="#818285" stroke-width="0.257875" stroke-miterlimit="10"/>
<path d="M162.291 136.206C162.291 137.226 162.291 138.449 162.291 139.876H161.271V140.08H162.087C162.087 141.304 162.087 142.323 162.087 143.343H161.067V143.751H162.087C161.883 144.974 161.679 146.197 161.271 147.217H160.252L161.271 147.625C161.067 148.848 160.66 149.868 160.048 150.887M162.291 136.206H161.271M162.291 136.206C162.291 134.779 161.883 133.759 161.475 132.536L160.456 132.944L161.475 132.332C161.067 131.312 160.66 130.089 160.252 129.069L159.028 129.477L160.048 129.069C159.436 128.05 158.824 127.03 158.213 126.011L157.397 126.622L158.213 125.807C157.601 124.787 156.785 123.972 155.97 123.156L155.154 123.972L155.97 122.952C155.154 122.136 154.338 121.321 153.319 120.709L152.911 121.525L153.523 120.505C152.503 119.893 151.688 119.282 150.668 118.67L150.056 119.486L150.464 118.466C149.445 117.854 148.425 117.447 147.202 117.039M147.202 117.039L146.794 118.058M147.202 117.039C146.182 116.631 144.959 116.427 143.939 116.223V117.243H143.531V116.223C142.716 116.223 141.492 116.223 140.269 116.223V117.243H139.861V116.223C138.638 116.223 137.618 116.223 136.395 116.223M136.395 116.223V117.243M136.395 116.223C134.967 116.223 133.948 116.631 132.928 117.039M132.928 117.039L133.336 118.058M132.928 117.039C131.909 117.447 130.685 117.854 129.666 118.466M129.666 118.466L130.073 119.486M129.666 118.466C128.646 119.078 127.627 119.69 126.811 120.301L127.423 121.117L126.811 120.505C125.791 121.117 124.976 121.933 124.16 122.748L124.772 123.564L123.956 122.952C123.141 123.768 122.325 124.583 121.713 125.603L122.529 126.215L121.713 125.807C121.102 126.826 120.49 127.846 119.878 128.865M119.878 128.865L120.898 129.273M119.878 128.865C119.266 129.885 118.859 130.904 118.655 132.128L119.674 132.536H118.655C118.247 133.555 118.043 134.779 117.839 136.002H118.859V136.41H117.839C117.839 137.429 117.839 138.449 117.839 139.672H118.859V140.08H117.839C117.839 141.304 117.839 142.527 117.839 143.547H118.859L117.839 143.955C117.839 145.178 118.247 146.197 118.655 147.421L119.674 147.013L118.655 147.625C119.063 148.644 119.47 149.868 119.878 150.887M119.878 150.887L120.898 150.48M119.878 150.887C120.49 151.907 121.102 152.926 121.713 153.946L122.529 153.334L121.713 154.15C122.325 155.169 123.141 155.985 123.956 156.801L124.772 155.985L123.956 157.005C124.772 157.82 125.588 158.636 126.607 159.248L127.219 158.432L126.607 159.451C127.627 160.063 128.442 160.675 129.462 161.287M129.462 161.287L129.87 160.267M129.462 161.287C130.481 161.898 131.501 162.306 132.724 162.714M132.724 162.714L133.132 161.694M132.724 162.714C133.744 163.122 134.967 163.326 135.987 163.53V162.51H136.395V163.53C137.618 163.53 138.638 163.53 139.861 163.53V162.51H140.269V163.53C141.492 163.53 142.512 163.53 143.735 163.53M143.735 163.53V162.51M143.735 163.53C145.163 163.53 146.182 163.122 147.202 162.714M147.202 162.714L146.794 161.694M147.202 162.714C148.221 162.306 149.445 161.898 150.464 161.287M150.464 161.287L150.056 160.267M150.464 161.287C151.484 160.675 152.503 160.063 153.319 159.451L152.707 158.636L153.319 159.248C154.338 158.636 155.154 157.82 155.97 157.005L155.154 156.189L155.97 156.801C156.785 155.985 157.601 155.169 158.213 154.15L157.397 153.538L158.213 153.946C158.824 152.926 159.436 151.907 160.048 150.887M160.048 150.887L159.028 150.48M153.931 155.373C149.852 159.451 144.347 161.898 138.638 161.898C132.928 161.898 127.423 159.655 123.345 155.373C119.266 151.295 117.023 145.79 117.023 139.876C117.023 133.963 119.266 128.458 123.345 124.379C127.423 120.301 132.928 117.854 138.638 117.854C144.347 117.854 149.852 120.097 153.931 124.379C158.009 128.458 160.252 133.963 160.252 139.876C160.252 145.79 158.009 151.295 153.931 155.373Z" stroke="#818285" stroke-width="0.257875" stroke-miterlimit="10"/>
<path d="M138.638 118.058C126.811 118.058 117.228 127.846 117.228 139.876C117.228 151.907 126.811 161.694 138.638 161.694C150.464 161.694 160.048 151.907 160.048 139.876C160.048 127.846 150.464 118.058 138.638 118.058ZM153.319 154.966C149.445 159.044 144.143 161.287 138.434 161.287C132.724 161.287 127.627 159.044 123.753 154.966C119.878 150.887 117.635 145.586 117.635 139.876C117.635 134.167 119.878 128.865 123.753 124.787C127.627 120.709 132.928 118.466 138.434 118.466C143.939 118.466 149.241 120.709 153.319 124.787C157.193 128.865 159.436 134.167 159.436 139.876C159.436 145.586 157.397 150.887 153.319 154.966Z" stroke="#818285" stroke-width="0.257875" stroke-miterlimit="10"/>
<path d="M138.637 131.108C133.947 131.108 130.073 134.983 130.073 139.876C130.073 144.77 133.947 148.644 138.637 148.644C143.327 148.644 147.201 144.77 147.201 139.876C147.201 134.983 143.327 131.108 138.637 131.108ZM144.551 137.226C144.958 137.226 145.162 137.226 145.366 137.633C145.57 138.041 145.366 138.245 144.958 138.449C144.551 138.653 144.347 138.449 144.143 138.041C144.143 137.633 144.143 137.226 144.551 137.226ZM141.9 134.167C141.9 134.167 142.512 133.759 142.715 134.167C142.919 134.575 143.123 134.779 142.715 134.983C142.308 135.187 142.104 135.39 141.9 134.983C141.9 134.779 141.492 134.371 141.9 134.167ZM138.637 132.536C139.045 132.536 139.249 132.536 139.249 133.147C139.249 133.759 139.249 133.759 138.637 133.759C138.026 133.759 138.026 133.759 138.026 133.147C138.026 132.536 138.026 132.536 138.637 132.536ZM134.355 133.963C134.355 133.963 134.967 133.963 135.171 133.963C135.171 133.963 135.171 134.575 135.171 134.779C135.171 134.779 134.559 134.779 134.355 134.779C134.355 134.779 134.355 134.167 134.355 133.963ZM132.52 142.527C132.112 142.527 131.908 142.527 131.704 142.119C131.501 141.712 131.705 141.508 132.112 141.304C132.52 141.1 132.724 141.304 132.928 141.712C132.928 142.119 132.928 142.323 132.52 142.527ZM132.928 138.041C132.928 138.449 132.52 138.449 132.112 138.449C131.705 138.449 131.704 138.041 131.704 137.633C131.704 137.226 132.112 137.226 132.52 137.226C132.928 137.226 132.928 137.633 132.928 138.041ZM135.171 145.586C135.171 145.586 134.559 145.994 134.355 145.586C134.151 145.178 133.947 144.974 134.355 144.77C134.763 144.566 134.967 144.362 135.171 144.77C135.579 144.77 135.579 145.382 135.171 145.586ZM138.637 147.217C138.23 147.217 138.026 147.217 138.026 146.605C138.026 145.994 138.026 145.994 138.637 145.994C139.249 145.994 139.249 145.994 139.249 146.605C139.249 146.809 138.841 147.217 138.637 147.217ZM142.715 145.79C142.715 145.79 142.104 145.79 141.9 145.79C141.9 145.79 141.9 145.178 141.9 144.974C141.9 144.974 142.512 144.974 142.715 144.974C142.715 144.974 142.715 145.586 142.715 145.79ZM138.637 144.974C135.783 144.974 133.54 142.731 133.54 139.876C133.54 137.022 135.783 134.779 138.637 134.779C141.492 134.779 143.735 137.022 143.735 139.876C143.735 142.731 141.288 144.974 138.637 144.974ZM145.366 142.119C145.366 142.527 144.958 142.527 144.551 142.527C144.143 142.527 144.143 142.119 144.143 141.712C144.143 141.304 144.551 141.304 144.958 141.304C145.366 141.508 145.57 141.712 145.366 142.119Z" stroke="#818285" stroke-width="0.257875" stroke-miterlimit="10"/>
<path d="M138.638 126.418C131.297 126.418 125.384 132.536 125.384 139.876C125.384 147.217 131.297 153.334 138.638 153.334C145.978 153.334 151.892 147.421 151.892 139.876C151.688 132.536 145.775 126.418 138.638 126.418ZM145.978 132.74C145.978 132.332 145.978 132.128 146.386 131.924C146.794 131.72 146.998 131.924 147.406 131.924C147.814 131.924 148.221 132.332 148.425 132.74C149.037 133.555 148.833 134.371 148.425 134.983C148.017 135.594 148.017 134.983 147.814 134.983C147.406 134.983 146.998 134.983 146.59 134.371V133.963C146.59 133.555 146.59 133.147 146.59 132.74H145.978ZM140.473 128.865C140.473 128.05 141.696 127.846 142.512 128.05C143.328 128.254 143.939 129.069 143.735 129.885C143.735 129.885 143.735 130.497 143.124 130.497C143.124 130.497 142.512 130.497 142.308 130.497H141.492C141.085 130.497 140.677 129.885 140.473 129.681C140.473 129.273 140.473 128.865 140.473 128.661V128.865ZM133.744 128.865C133.744 128.458 134.356 128.254 134.764 128.05C135.579 128.05 136.599 128.05 136.803 128.865V129.681C136.803 130.089 136.395 130.497 135.783 130.497H134.967C134.967 130.497 134.356 130.497 134.152 130.497L133.54 129.885C133.54 129.885 133.54 129.273 133.54 129.069L133.744 128.865ZM128.646 132.536C128.646 132.128 129.258 131.924 129.666 131.72C130.074 131.72 130.481 131.72 130.685 131.72C130.889 131.72 131.093 132.128 131.093 132.536C131.093 132.943 131.093 133.351 131.093 133.759V134.167C131.093 134.575 130.278 134.779 129.87 134.779C129.87 134.779 129.462 134.779 129.258 134.779C128.646 134.371 128.646 133.351 129.258 132.536H128.646ZM126.403 139.876C126.403 138.857 127.015 138.245 127.831 138.245C128.646 138.245 128.442 138.245 128.646 138.653C129.054 138.653 129.258 139.265 129.258 139.876V140.284C129.258 140.692 129.258 141.1 128.646 141.508C128.646 141.508 128.035 141.915 127.831 141.915C127.015 141.508 126.403 140.692 126.403 139.876ZM131.297 147.013C131.297 147.421 131.297 147.625 130.889 147.829C130.481 148.033 130.481 147.829 130.278 147.829H129.87C129.462 147.829 129.054 147.421 128.85 147.217C128.238 146.401 128.442 145.586 128.85 144.974C129.258 144.362 129.462 144.974 129.666 144.974C130.074 144.974 130.481 144.974 130.889 145.586V147.013H131.297ZM136.803 150.887C136.803 151.499 135.987 151.703 135.375 151.703H134.764C133.948 151.703 133.336 150.683 133.54 149.868C133.54 149.868 133.54 149.256 134.152 149.256C134.56 149.256 134.967 149.256 135.375 149.256H135.783C136.191 149.256 136.599 149.868 136.803 150.072V151.091V150.887ZM142.308 151.703H141.696C141.085 151.703 140.473 151.295 140.269 150.887V150.072C140.269 149.664 140.677 149.256 141.289 149.256H141.696C142.104 149.256 142.512 149.256 142.92 149.256L143.532 149.868C143.735 150.48 143.124 151.295 142.308 151.499V151.703ZM138.638 148.644C133.948 148.644 130.074 144.77 130.074 139.876C130.074 134.983 133.948 131.108 138.638 131.108C143.328 131.108 147.202 134.983 147.202 139.876C147.202 144.77 143.328 148.644 138.638 148.644ZM148.425 147.217C148.425 147.625 147.814 147.829 147.406 147.829H146.998C146.998 147.829 146.59 147.829 146.386 147.829C146.386 147.829 145.978 147.421 145.978 147.013C145.978 146.605 145.978 146.197 145.978 145.79C145.978 145.79 145.978 145.654 145.978 145.382C145.978 144.974 146.794 144.77 147.202 144.77C147.61 144.77 147.814 144.77 148.017 144.77C148.221 144.77 148.425 145.382 148.425 145.79C148.425 146.401 148.425 146.809 148.017 147.217H148.425ZM149.445 141.508C149.445 141.508 148.833 141.508 148.629 141.1C148.221 141.1 148.017 140.488 148.017 139.876V139.469C148.017 139.061 148.017 138.653 148.629 138.245C148.629 138.245 149.241 137.837 149.445 137.837C150.26 137.837 150.872 138.653 150.872 139.469C150.872 140.692 150.26 141.508 149.445 141.508Z" stroke="#818285" stroke-width="0.257875" stroke-miterlimit="10"/>
<path d="M138.637 115.815C151.687 115.815 162.495 126.622 162.495 140.08C162.495 153.538 151.891 164.345 138.637 164.345C125.383 164.345 114.78 153.538 114.78 140.08C114.78 126.622 125.587 115.815 138.637 115.815ZM138.637 113.572C124.364 113.572 112.741 125.399 112.741 139.876C112.741 154.354 124.364 166.18 138.637 166.18C152.911 166.18 164.534 154.354 164.534 139.876C164.534 125.399 152.911 113.572 138.637 113.572Z" fill="#818285"/>
<path d="M354.044 142.88V144.413C354.044 145.18 353.469 145.947 352.51 145.947H344.459C343.309 145.947 342.542 144.413 343.309 143.455L353.277 131.378C353.469 130.994 354.044 130.802 354.427 130.802C355.386 130.802 356.153 131.761 355.769 132.72C354.811 135.978 354.044 139.429 354.044 142.88Z" stroke="#818385" stroke-width="1.23605" stroke-miterlimit="10"/>
<path d="M454.879 142.88C454.879 139.237 454.304 135.978 452.962 132.72C452.579 131.761 453.346 130.802 454.304 130.802H473.666C474.433 130.802 475.2 131.378 475.2 132.336V144.413C475.2 145.18 474.625 145.947 473.666 145.947H456.221C455.454 145.947 454.687 145.18 454.687 144.413C454.879 144.03 454.879 143.455 454.879 142.88Z" stroke="#818385" stroke-width="1.23605" stroke-miterlimit="10"/>
<path d="M429.575 122.368C419.223 122.368 410.597 130.994 410.597 141.538C410.597 152.082 419.032 160.708 429.575 160.708C440.119 160.708 448.554 152.082 448.554 141.538C448.362 130.994 439.927 122.368 429.575 122.368ZM429.575 154.574C422.674 154.574 416.923 148.823 416.923 141.73C416.923 134.637 422.674 128.886 429.575 128.886C436.477 128.886 442.228 134.637 442.228 141.73C442.228 148.823 436.477 154.574 429.575 154.574Z" stroke="#818385" stroke-width="0.274678" stroke-miterlimit="10"/>
<path d="M429.575 121.792C418.84 121.792 410.021 130.802 410.021 141.73C410.021 152.657 418.84 161.667 429.575 161.667C440.31 161.667 449.129 152.657 449.129 141.73C449.129 130.802 440.31 121.792 429.575 121.792ZM429.575 161.091C419.031 161.091 410.597 152.465 410.597 141.73C410.597 130.994 419.031 122.368 429.575 122.368C440.119 122.368 448.554 130.994 448.554 141.73C448.554 152.465 439.927 161.091 429.575 161.091Z" stroke="#818385" stroke-width="0.274678" stroke-miterlimit="10"/>
<path d="M451.621 138.279C451.813 139.237 451.813 140.388 451.813 141.73H450.854H451.046H451.621C451.621 142.88 451.621 143.838 451.429 144.797H450.471V145.18H451.429C451.237 146.33 451.046 147.481 450.662 148.439C450.662 148.439 449.704 148.247 449.704 148.439L450.662 148.823C450.471 149.973 450.087 150.931 449.512 151.89L448.554 151.506C448.362 151.506 448.362 151.698 448.362 151.698L449.32 152.081C448.745 153.04 448.17 153.998 447.595 154.957C447.595 154.957 446.828 154.382 446.828 154.574H446.637L447.403 155.149C446.828 156.107 446.061 156.874 445.295 157.641C445.295 157.641 444.528 156.874 444.528 157.066H444.336L445.103 157.833C444.336 158.599 443.569 159.366 442.611 159.941C442.611 159.941 442.036 159.174 442.036 159.366H441.844L442.419 160.133C441.652 160.708 440.694 161.283 439.735 161.858L439.352 160.9C439.352 161.091 439.16 161.091 439.16 161.091L439.544 162.05C438.585 162.625 437.435 163.008 436.476 163.392L436.093 162.433H435.901L436.285 163.392C435.326 163.775 434.368 163.967 433.026 164.159M451.621 138.279H450.662M451.621 138.279C451.429 136.937 451.237 135.978 450.854 134.828L449.896 135.212C449.896 135.02 450.854 134.637 450.854 134.637C450.471 133.678 450.087 132.528 449.704 131.569L448.745 131.953C448.745 131.953 448.745 131.761 448.554 131.761L449.512 131.378C448.937 130.419 448.362 129.461 447.787 128.502L447.02 129.077H446.828C446.828 128.885 447.595 128.31 447.595 128.31C447.02 127.352 446.253 126.585 445.486 125.818L444.72 126.585H444.528C444.528 126.393 445.295 125.627 445.295 125.627C444.528 124.86 443.761 124.093 442.803 123.518L442.227 124.285H442.036C442.036 124.093 442.611 123.326 442.611 123.326C441.652 122.751 440.886 122.176 439.927 121.601L439.544 122.559C439.544 122.559 439.352 122.559 439.352 122.368L439.735 121.409C438.777 120.834 437.818 120.451 436.668 120.067M436.668 120.067L436.285 121.026M436.668 120.067C435.71 119.684 434.559 119.492 433.601 119.3V120.259H433.217V119.3C432.259 119.109 431.3 119.109 430.15 119.109V120.067H429.767V119.109C428.617 119.109 427.658 119.109 426.508 119.3M426.508 119.3V120.259M426.508 119.3C425.166 119.492 424.207 119.684 423.249 120.067L423.632 121.026H423.441L423.057 120.067C422.099 120.451 420.948 120.834 419.99 121.409L420.373 122.368C420.373 122.368 420.182 122.368 420.182 122.559L419.798 121.601C418.84 122.176 417.881 122.751 417.114 123.326L417.69 124.093H417.498C417.498 124.285 416.923 123.518 416.923 123.518C415.964 124.093 415.197 124.86 414.431 125.627L414.814 126.202H414.622C414.622 126.393 413.855 125.627 413.855 125.627C413.089 126.393 412.322 127.16 411.747 128.119L412.514 128.694H412.322C412.322 128.885 411.555 128.31 411.555 128.31C410.98 129.269 410.405 130.227 409.83 131.186L410.788 131.569C410.788 131.569 410.788 131.761 410.597 131.761L409.638 131.378C409.063 132.336 408.68 133.295 408.488 134.445L409.446 134.828C409.446 135.02 408.488 134.828 408.488 134.828C408.104 135.787 407.913 136.937 407.721 138.087H408.68V138.471H407.721C407.529 139.429 407.529 140.388 407.529 141.538H408.488V141.921H407.529C407.529 143.071 407.529 144.222 407.721 145.18M407.721 145.18H408.68M407.721 145.18C407.913 146.522 408.104 147.481 408.488 148.631L409.446 148.247C409.446 148.439 408.488 148.823 408.488 148.823C408.871 149.781 409.255 150.931 409.638 151.89L410.597 151.506C410.597 151.506 410.597 151.698 410.788 151.698L409.83 152.081C410.405 153.04 410.98 153.998 411.555 154.957L412.322 154.382H412.514C412.514 154.574 411.747 155.149 411.747 155.149C412.322 156.107 413.089 156.874 413.855 157.641L414.622 156.874H414.814C414.814 157.066 414.047 157.833 414.047 157.833C414.814 158.599 415.581 159.366 416.539 159.941L417.114 159.174H417.306C417.306 159.366 416.731 160.133 416.731 160.133C417.69 160.708 418.456 161.283 419.415 161.858L419.798 160.9C419.798 160.9 419.99 160.9 419.99 161.091L419.607 162.05C420.565 162.625 421.524 163.008 422.674 163.392L423.057 162.433H423.249L422.865 163.392C423.824 163.775 424.974 163.967 425.933 164.159V163.2H426.316V164.159C427.083 164.35 428.233 164.35 429.383 164.35V163.392H429.767V164.35C430.917 164.35 431.876 164.35 433.026 164.159M433.026 164.159V163.2M443.953 156.299C440.119 160.133 434.943 162.433 429.575 162.433C424.207 162.433 419.031 160.325 415.197 156.299C411.363 152.465 409.255 147.289 409.255 141.73C409.255 136.17 411.363 130.994 415.197 127.16C419.031 123.326 424.207 121.026 429.575 121.026C434.943 121.026 440.119 123.134 443.953 127.16C447.787 130.994 449.896 136.17 449.896 141.73C449.896 147.289 447.787 152.465 443.953 156.299Z" stroke="#818385" stroke-width="0.274678" stroke-miterlimit="10"/>
<path d="M429.575 121.218C418.456 121.218 409.446 130.419 409.446 141.73C409.446 153.04 418.456 162.242 429.575 162.242C440.694 162.242 449.704 153.04 449.704 141.73C449.704 130.419 440.694 121.218 429.575 121.218ZM443.378 155.916C439.735 159.75 434.751 161.858 429.575 161.858C424.399 161.858 419.415 159.75 415.581 155.916C411.938 152.082 409.83 147.097 409.83 141.73C409.83 136.362 411.938 131.378 415.581 127.544C419.223 123.71 424.207 121.601 429.575 121.601C434.943 121.601 439.735 123.71 443.378 127.544C447.02 131.378 449.129 136.362 449.129 141.73C449.129 147.097 447.212 152.082 443.378 155.916Z" stroke="#818385" stroke-width="0.274678" stroke-miterlimit="10"/>
<path d="M429.575 133.486C425.166 133.486 421.523 137.129 421.523 141.73C421.523 146.33 425.166 149.973 429.575 149.973C433.984 149.973 437.626 146.33 437.626 141.73C437.626 137.129 433.984 133.486 429.575 133.486ZM435.326 139.237C435.709 139.046 435.901 139.237 436.093 139.621C436.285 140.004 436.093 140.196 435.709 140.388C435.326 140.579 435.134 140.388 434.943 140.004C434.751 139.621 434.943 139.237 435.326 139.237ZM432.642 136.362C432.834 136.17 433.217 135.978 433.409 136.17C433.601 136.362 433.792 136.745 433.601 136.937C433.409 137.129 433.026 137.32 432.834 137.129C432.642 137.129 432.45 136.554 432.642 136.362ZM429.575 134.828C429.958 134.828 430.15 135.02 430.15 135.403C430.15 135.787 429.958 135.978 429.575 135.978C429.192 135.978 429 135.787 429 135.403C429 135.02 429 134.828 429.575 134.828ZM425.549 136.17C425.741 135.978 426.124 135.978 426.316 136.362C426.508 136.554 426.508 136.937 426.124 137.129C425.933 137.32 425.549 137.32 425.357 136.937C425.357 136.937 425.357 136.362 425.549 136.17ZM423.824 144.222C423.44 144.413 423.249 144.222 423.057 143.838C422.865 143.455 423.057 143.263 423.44 143.071C423.824 142.88 424.016 143.071 424.207 143.455C424.207 143.838 424.207 144.03 423.824 144.222ZM424.207 140.004C424.207 140.388 423.824 140.388 423.44 140.388C423.057 140.196 423.057 140.004 423.057 139.621C423.249 139.237 423.44 139.237 423.824 139.237C424.207 139.237 424.399 139.621 424.207 140.004ZM426.316 147.097C426.124 147.289 425.741 147.481 425.549 147.289C425.357 147.097 425.166 146.714 425.357 146.522C425.549 146.33 425.933 146.139 426.124 146.33C426.508 146.33 426.508 146.905 426.316 147.097ZM429.575 148.631C429.192 148.631 429 148.439 429 148.056C429 147.672 429.192 147.481 429.575 147.481C429.958 147.481 430.15 147.672 430.15 148.056C430.15 148.247 429.767 148.631 429.575 148.631ZM433.601 147.289C433.409 147.481 433.026 147.481 432.834 147.097C432.642 146.905 432.642 146.522 433.026 146.33C433.217 146.139 433.601 146.139 433.792 146.522C433.792 146.522 433.792 147.097 433.601 147.289ZM429.575 146.522C426.891 146.522 424.782 144.413 424.782 141.73C424.782 139.046 426.891 136.937 429.575 136.937C432.259 136.937 434.367 139.046 434.367 141.73C434.367 144.413 432.067 146.522 429.575 146.522ZM435.901 143.838C435.709 144.222 435.518 144.222 435.134 144.222C434.751 144.03 434.751 143.838 434.751 143.455C434.751 143.071 435.134 143.071 435.518 143.071C435.901 143.263 436.093 143.455 435.901 143.838Z" stroke="#818385" stroke-width="0.274678" stroke-miterlimit="10"/>
<path d="M429.575 129.077C422.674 129.077 417.114 134.828 417.114 141.73C417.114 148.631 422.674 154.382 429.575 154.382C436.476 154.382 442.036 148.822 442.036 141.73C441.844 134.828 436.284 129.077 429.575 129.077ZM436.476 135.02C436.476 134.637 436.668 134.445 436.86 134.253C437.051 134.061 437.435 134.061 437.818 134.061C438.202 134.061 438.585 134.445 438.777 134.828C439.352 135.595 439.16 136.362 438.585 136.937C438.01 137.512 438.202 137.129 438.01 137.129H437.818C437.435 137.129 437.051 136.937 436.668 136.554H436.476V136.17C436.476 135.787 436.476 135.403 436.476 135.02ZM431.3 131.378C431.492 130.611 432.45 130.419 433.217 130.611C433.984 130.802 434.559 131.569 434.367 132.336C434.367 132.528 434.176 132.911 433.792 132.911C433.601 133.103 433.217 133.103 433.026 133.103H432.259C431.875 132.911 431.492 132.528 431.3 132.336C431.109 131.953 431.109 131.569 431.3 131.378ZM425.166 131.378C425.357 130.994 425.741 130.802 426.124 130.611C426.891 130.419 427.85 130.611 428.041 131.378V132.144C427.85 132.528 427.658 132.911 427.083 132.911H426.316C426.124 132.911 425.741 132.911 425.549 132.719L424.974 132.144C424.974 132.144 424.974 131.569 425.166 131.378ZM420.182 134.828C420.373 134.445 420.757 134.253 421.14 134.061C421.523 134.061 421.907 134.061 422.099 134.253C422.29 134.445 422.482 134.637 422.482 135.02C422.482 135.403 422.482 135.787 422.29 136.17V136.554C422.099 136.937 421.523 137.129 421.14 137.129H420.948C420.757 137.129 420.565 137.129 420.373 136.937C419.798 136.554 419.798 135.595 420.373 134.828H420.182ZM418.073 141.73C418.073 140.771 418.648 140.196 419.415 140.196C420.181 140.196 419.99 140.388 420.182 140.579C420.565 140.771 420.757 141.154 420.757 141.73V142.113C420.757 142.496 420.565 142.88 420.182 143.263C419.99 143.455 419.606 143.647 419.415 143.647C418.648 143.263 418.073 142.496 418.073 141.73ZM422.674 148.439C422.674 148.822 422.482 149.014 422.29 149.206C422.099 149.398 421.907 149.398 421.715 149.398H421.332C420.948 149.398 420.565 149.014 420.373 148.822C419.798 148.056 419.99 147.289 420.565 146.714C421.14 146.139 421.14 146.522 421.332 146.522C421.715 146.522 422.099 146.714 422.482 147.097H422.674V147.481C422.674 147.481 422.674 148.056 422.674 148.439ZM427.85 152.081C427.658 152.657 427.083 152.848 426.508 152.848H425.933C425.166 152.657 424.591 151.89 424.782 151.123C424.782 150.931 424.974 150.548 425.357 150.548C425.741 150.356 426.124 150.356 426.508 150.356H426.891C427.274 150.548 427.658 150.931 427.85 151.123C427.85 151.506 427.85 151.89 427.85 152.081ZM433.026 152.848H432.45C431.875 152.848 431.3 152.465 431.109 152.081V151.315C431.3 150.931 431.492 150.548 432.067 150.548H432.45C432.834 150.356 433.217 150.548 433.601 150.74L434.176 151.315C434.176 151.89 433.984 152.657 433.026 152.848ZM429.575 149.973C425.166 149.973 421.523 146.33 421.523 141.73C421.523 137.129 425.166 133.486 429.575 133.486C433.984 133.486 437.626 137.129 437.626 141.73C437.626 146.33 433.984 149.973 429.575 149.973ZM438.777 148.631C438.585 149.014 438.202 149.206 437.818 149.206H437.435C437.243 149.206 437.051 149.206 436.86 149.014C436.668 148.822 436.476 148.631 436.476 148.247C436.476 147.864 436.476 147.481 436.668 147.097C436.668 146.969 436.732 146.842 436.86 146.714C437.051 146.33 437.626 146.139 438.01 146.139C438.393 146.139 438.585 146.139 438.777 146.33C438.968 146.522 439.16 146.905 439.16 147.289C439.16 147.864 439.16 148.247 438.777 148.631ZM439.735 143.263C439.543 143.263 439.16 143.071 438.968 142.88C438.585 142.688 438.393 142.305 438.393 141.73V141.346C438.393 140.963 438.585 140.579 438.968 140.196C439.16 140.004 439.543 139.812 439.735 139.812C440.502 139.812 441.077 140.579 441.077 141.346C441.077 142.496 440.502 143.263 439.735 143.263Z" stroke="#818385" stroke-width="0.274678" stroke-miterlimit="10"/>
<path d="M429.575 119.109C441.844 119.109 452.004 129.269 452.004 141.921C452.004 154.574 442.035 164.734 429.575 164.734C417.114 164.734 407.146 154.574 407.146 141.921C407.146 129.269 417.306 119.109 429.575 119.109ZM429.575 117C416.156 117 405.229 128.119 405.229 141.73C405.229 155.34 416.156 166.459 429.575 166.459C442.994 166.459 453.921 155.34 453.921 141.73C453.921 128.119 442.994 117 429.575 117Z" fill="#818385"/>
<path d="M380.499 122.368C370.147 122.368 361.521 130.994 361.521 141.538C361.521 152.082 369.955 160.708 380.499 160.708C391.043 160.708 399.478 152.082 399.478 141.538C399.478 130.994 390.851 122.368 380.499 122.368ZM380.499 154.574C373.598 154.574 367.847 148.823 367.847 141.73C367.847 134.637 373.598 128.886 380.499 128.886C387.4 128.886 393.151 134.637 393.151 141.73C393.151 148.823 387.4 154.574 380.499 154.574Z" stroke="#818385" stroke-width="0.274678" stroke-miterlimit="10"/>
<path d="M380.499 121.792C369.764 121.792 360.945 130.802 360.945 141.73C360.945 152.657 369.764 161.667 380.499 161.667C391.234 161.667 400.053 152.657 400.053 141.73C400.053 130.802 391.234 121.792 380.499 121.792ZM380.499 161.091C369.955 161.091 361.52 152.465 361.52 141.73C361.52 130.994 369.955 122.368 380.499 122.368C391.043 122.368 399.477 130.994 399.477 141.73C399.477 152.465 391.043 161.091 380.499 161.091Z" stroke="#818385" stroke-width="0.274678" stroke-miterlimit="10"/>
<path d="M402.544 138.279C402.736 139.237 402.736 140.388 402.736 141.73H401.778V141.921H402.736C402.736 143.071 402.736 144.03 402.544 144.988H401.586V145.372H402.544C402.353 146.522 402.161 147.672 401.778 148.631C401.778 148.631 400.819 148.439 400.819 148.631L401.778 149.014C401.586 150.164 401.202 151.123 400.627 152.081L399.669 151.698C399.477 151.698 399.477 151.89 399.477 151.89L400.436 152.273C399.861 153.232 399.285 154.19 398.71 155.149C398.71 155.149 397.944 154.574 397.944 154.765H397.752L398.519 155.34C397.944 156.299 397.177 157.066 396.41 157.833C396.41 157.833 395.643 157.066 395.643 157.257H395.451L396.218 158.024C395.451 158.791 394.685 159.558 393.726 160.133C393.726 160.133 393.151 159.366 393.151 159.558H392.959L393.534 160.325C392.768 160.9 391.809 161.475 390.851 162.05L390.467 161.091C390.467 161.283 390.275 161.283 390.275 161.283L390.659 162.242C389.7 162.817 388.55 163.2 387.592 163.584L387.208 162.625H387.016L387.4 163.584C386.441 163.967 385.483 164.159 384.141 164.35M402.544 138.279H401.586M402.544 138.279C402.353 136.937 402.161 135.978 401.778 134.828L400.819 135.212C400.819 135.02 401.778 134.637 401.778 134.637C401.394 133.678 401.011 132.528 400.627 131.569L399.669 131.953C399.669 131.953 399.669 131.761 399.477 131.761L400.436 131.378C399.861 130.419 399.285 129.461 398.71 128.502L397.944 129.077H397.752C397.752 128.885 398.519 128.31 398.519 128.31C397.944 127.352 397.177 126.585 396.41 125.818L395.643 126.585H395.451C395.451 126.393 396.218 125.627 396.218 125.627C395.451 124.86 394.685 124.093 393.726 123.518L393.151 124.285H392.959C392.959 124.093 393.534 123.326 393.534 123.326C392.576 122.751 391.809 122.176 390.851 121.601L390.467 122.559C390.467 122.559 390.275 122.559 390.275 122.368L390.659 121.409C389.7 120.834 388.742 120.451 387.592 120.067L387.208 121.026H387.016L387.4 120.067C386.441 119.684 385.291 119.492 384.333 119.3V120.259H383.949V119.3C382.991 119.109 382.032 119.109 380.882 119.109V120.067H380.499V119.109C379.348 119.109 378.39 119.109 377.24 119.3M377.24 119.3V120.259M377.24 119.3C375.898 119.492 374.939 119.684 373.981 120.067L374.364 121.026H374.172L373.789 120.067C372.831 120.451 371.68 120.834 370.722 121.409L371.105 122.368C371.105 122.368 370.913 122.368 370.913 122.559L370.53 121.601C369.572 122.176 368.613 122.751 367.846 123.326L368.421 124.093H368.23C368.23 124.285 367.655 123.518 367.655 123.518C366.696 124.093 365.929 124.86 365.162 125.627L365.929 126.393H365.738C365.738 126.585 364.971 125.818 364.971 125.818C364.204 126.585 363.437 127.352 362.862 128.31L363.629 128.885H363.437C363.437 129.077 362.67 128.502 362.67 128.502C362.095 129.461 361.52 130.419 360.945 131.378L361.903 131.761C361.903 131.761 361.903 131.953 361.712 131.953L360.753 131.569C360.178 132.528 359.795 133.486 359.603 134.637L360.562 135.02C360.562 135.212 359.603 135.02 359.603 135.02C359.22 135.978 359.028 137.129 358.836 138.279H359.795V138.662H358.836C358.645 139.621 358.645 140.579 358.645 141.73H359.603V142.113H358.645C358.645 143.263 358.645 144.413 358.836 145.372M358.836 145.372H359.795M358.836 145.372C359.028 146.714 359.22 147.672 359.603 148.823L360.562 148.439C360.562 148.631 359.603 149.014 359.603 149.014C359.986 149.973 360.37 151.123 360.753 152.081L361.712 151.698C361.712 151.698 361.712 151.89 361.903 151.89L360.945 152.273C361.52 153.232 362.095 154.19 362.67 155.149L363.437 154.574H363.629C363.629 154.765 362.862 155.34 362.862 155.34C363.437 156.299 364.204 157.066 364.971 157.833L365.738 157.066H365.929C365.929 157.257 365.162 158.024 365.162 158.024C365.929 158.791 366.696 159.558 367.655 160.133L368.23 159.366H368.421C368.421 159.558 367.846 160.325 367.846 160.325C368.805 160.9 369.572 161.475 370.53 162.05L370.913 161.091C370.913 161.091 371.105 161.091 371.105 161.283L370.722 162.242C371.68 162.817 372.639 163.2 373.789 163.584L374.172 162.625H374.364L373.981 163.584C374.939 163.967 376.089 164.159 377.048 164.35V163.392H377.431V164.35C378.198 164.542 379.348 164.542 380.499 164.542V163.584H380.882V164.542C382.032 164.542 382.991 164.542 384.141 164.35M384.141 164.35V163.392M394.876 156.299C391.042 160.133 385.866 162.433 380.499 162.433C375.131 162.433 369.955 160.325 366.121 156.299C362.287 152.465 360.178 147.289 360.178 141.73C360.178 136.17 362.287 130.994 366.121 127.16C369.955 123.326 375.131 121.026 380.499 121.026C385.866 121.026 391.042 123.134 394.876 127.16C398.71 130.994 400.819 136.17 400.819 141.73C400.819 147.289 398.71 152.465 394.876 156.299Z" stroke="#818385" stroke-width="0.274678" stroke-miterlimit="10"/>
<path d="M380.499 121.218C369.38 121.218 360.37 130.419 360.37 141.73C360.37 153.04 369.38 162.242 380.499 162.242C391.618 162.242 400.628 153.04 400.628 141.73C400.628 130.419 391.618 121.218 380.499 121.218ZM394.301 155.916C390.659 159.75 385.675 161.858 380.499 161.858C375.323 161.858 370.339 159.75 366.505 155.916C362.862 152.082 360.754 147.097 360.754 141.73C360.754 136.362 362.862 131.378 366.505 127.544C370.147 123.71 375.131 121.601 380.499 121.601C385.867 121.601 390.659 123.71 394.301 127.544C397.944 131.378 400.053 136.362 400.053 141.73C400.053 147.097 398.135 152.082 394.301 155.916Z" stroke="#818385" stroke-width="0.274678" stroke-miterlimit="10"/>
<path d="M380.499 133.486C376.09 133.486 372.447 137.129 372.447 141.73C372.447 146.33 376.09 149.973 380.499 149.973C384.908 149.973 388.55 146.33 388.55 141.73C388.55 137.129 384.908 133.486 380.499 133.486ZM386.25 139.237C386.633 139.046 386.825 139.237 387.017 139.621C387.208 140.004 387.017 140.196 386.633 140.388C386.25 140.579 386.058 140.388 385.866 140.004C385.675 139.621 385.866 139.237 386.25 139.237ZM383.566 136.362C383.758 136.17 384.141 135.978 384.333 136.17C384.525 136.362 384.716 136.745 384.525 136.937C384.333 137.129 383.949 137.32 383.758 137.129C383.566 137.129 383.374 136.554 383.566 136.362ZM380.499 134.828C380.882 134.828 381.074 135.02 381.074 135.403C381.074 135.787 380.882 135.978 380.499 135.978C380.115 135.978 379.924 135.787 379.924 135.403C379.924 135.02 380.115 134.828 380.499 134.828ZM376.473 136.17C376.665 135.978 377.048 135.978 377.24 136.362C377.432 136.554 377.432 136.937 377.048 137.129C376.856 137.32 376.473 137.32 376.281 136.937C376.281 136.937 376.281 136.362 376.473 136.17ZM374.748 144.222C374.364 144.413 374.173 144.222 373.981 143.838C373.789 143.455 373.981 143.263 374.364 143.071C374.748 142.88 374.939 143.071 375.131 143.455C375.323 143.838 375.131 144.03 374.748 144.222ZM375.131 140.004C375.131 140.388 374.748 140.388 374.364 140.388C373.981 140.196 373.981 140.004 373.981 139.621C374.173 139.237 374.364 139.237 374.748 139.237C375.131 139.237 375.323 139.621 375.131 140.004ZM377.24 147.097C377.048 147.289 376.665 147.481 376.473 147.289C376.281 147.097 376.09 146.714 376.281 146.522C376.473 146.33 376.856 146.139 377.048 146.33C377.432 146.33 377.432 146.905 377.24 147.097ZM380.499 148.631C380.115 148.631 379.924 148.439 379.924 148.056C379.924 147.672 380.115 147.481 380.499 147.481C380.882 147.481 381.074 147.672 381.074 148.056C381.074 148.439 380.882 148.631 380.499 148.631ZM384.525 147.289C384.333 147.481 383.949 147.481 383.758 147.097C383.566 146.905 383.566 146.522 383.949 146.33C384.333 146.139 384.525 146.139 384.716 146.522C384.716 146.522 384.716 147.097 384.525 147.289ZM380.499 146.522C377.815 146.522 375.706 144.413 375.706 141.73C375.706 139.046 377.815 136.937 380.499 136.937C383.183 136.937 385.291 139.046 385.291 141.73C385.291 144.413 383.183 146.522 380.499 146.522ZM386.825 143.838C386.825 144.222 386.442 144.222 386.058 144.222C385.675 144.03 385.675 143.838 385.675 143.455C385.675 143.071 386.058 143.071 386.442 143.071C386.825 143.263 387.017 143.455 386.825 143.838Z" stroke="#818385" stroke-width="0.274678" stroke-miterlimit="10"/>
<path d="M380.499 129.077C373.597 129.077 368.038 134.828 368.038 141.73C368.038 148.631 373.597 154.382 380.499 154.382C387.4 154.382 392.959 148.822 392.959 141.73C392.768 134.828 387.4 129.077 380.499 129.077ZM387.4 135.02C387.4 134.637 387.592 134.445 387.783 134.253C387.975 134.061 388.359 134.061 388.742 134.061C389.125 134.061 389.509 134.445 389.7 134.828C390.276 135.595 390.084 136.362 389.509 136.937C388.934 137.512 389.125 137.129 388.934 137.129H388.742C388.359 137.129 387.975 136.937 387.592 136.554H387.4V136.17C387.4 135.787 387.4 135.403 387.4 135.02ZM382.224 131.378C382.416 130.611 383.374 130.419 384.141 130.611C384.908 130.802 385.483 131.569 385.291 132.336C385.291 132.528 385.1 132.911 384.716 132.911C384.524 133.103 384.141 133.103 383.949 133.103H383.183C382.799 132.911 382.416 132.528 382.224 132.336C382.224 131.953 382.224 131.569 382.224 131.378ZM376.09 131.378C376.281 130.994 376.665 130.802 377.048 130.611C377.815 130.419 378.773 130.611 378.965 131.378V132.144C378.773 132.528 378.582 132.911 378.007 132.911H377.24C377.048 132.911 376.665 132.911 376.473 132.719L375.898 132.144C375.898 132.144 375.898 131.569 376.09 131.378ZM371.105 134.828C371.297 134.445 371.68 134.253 372.064 134.061C372.447 134.061 372.831 134.061 373.022 134.253C373.214 134.445 373.406 134.637 373.406 135.02C373.406 135.403 373.406 135.787 373.214 136.17C373.214 136.298 373.15 136.426 373.022 136.554C372.831 136.937 372.256 137.129 371.872 137.129H371.68C371.489 137.129 371.105 137.129 371.105 136.937C370.722 136.554 370.722 135.595 371.105 134.828ZM368.997 141.73C368.997 140.771 369.572 140.196 370.339 140.196C371.105 140.196 370.914 140.388 371.105 140.579C371.489 140.771 371.68 141.154 371.68 141.73V142.113C371.68 142.496 371.489 142.88 371.105 143.263C370.914 143.455 370.53 143.647 370.339 143.647C369.572 143.263 368.997 142.496 368.997 141.73ZM373.597 148.439C373.597 148.822 373.406 149.014 373.214 149.206C373.022 149.398 372.831 149.398 372.639 149.398H372.256C371.872 149.398 371.489 149.014 371.297 148.822C370.722 148.056 370.914 147.289 371.489 146.714C372.064 146.139 372.064 146.522 372.256 146.522C372.639 146.522 373.022 146.714 373.406 147.097H373.597V147.481C373.597 147.481 373.597 148.056 373.597 148.439ZM378.773 152.081C378.582 152.657 378.007 152.848 377.432 152.848H376.856C376.09 152.657 375.514 151.89 375.706 151.123C375.706 150.931 375.898 150.548 376.281 150.548C376.665 150.356 377.048 150.356 377.432 150.356H377.815C378.198 150.548 378.582 150.931 378.773 151.123C378.773 151.506 378.773 151.89 378.773 152.081ZM383.949 152.848H383.374C382.799 152.848 382.224 152.465 382.032 152.081V151.315C382.224 150.931 382.416 150.548 382.991 150.548H383.374C383.758 150.356 384.141 150.548 384.524 150.74L385.1 151.315C385.1 151.89 384.908 152.657 383.949 152.848ZM380.499 149.973C376.09 149.973 372.447 146.33 372.447 141.73C372.447 137.129 376.09 133.486 380.499 133.486C384.908 133.486 388.55 137.129 388.55 141.73C388.55 146.33 384.908 149.973 380.499 149.973ZM389.7 148.631C389.509 149.014 389.125 149.206 388.742 149.206H388.359C388.167 149.206 387.975 149.206 387.783 149.014C387.592 148.822 387.4 148.631 387.4 148.247C387.4 147.864 387.4 147.481 387.592 147.097C387.592 146.969 387.656 146.842 387.783 146.714C387.975 146.33 388.55 146.139 388.934 146.139C389.317 146.139 389.509 146.139 389.7 146.33C389.892 146.522 390.084 146.905 390.084 147.289C390.084 147.864 390.084 148.247 389.7 148.631ZM390.659 143.263C390.467 143.263 390.084 143.071 389.892 142.88C389.509 142.688 389.317 142.305 389.317 141.73V141.346C389.317 140.963 389.509 140.579 389.892 140.196C390.084 140.004 390.467 139.812 390.659 139.812C391.426 139.812 392.001 140.579 392.001 141.346C392.001 142.496 391.426 143.263 390.659 143.263Z" stroke="#818385" stroke-width="0.274678" stroke-miterlimit="10"/>
<path d="M380.499 119.109C392.768 119.109 402.928 129.269 402.928 141.921C402.928 154.574 392.959 164.734 380.499 164.734C368.038 164.734 358.069 154.574 358.069 141.921C358.069 129.269 368.23 119.109 380.499 119.109ZM380.499 117C367.079 117 356.152 128.119 356.152 141.73C356.152 155.34 367.079 166.459 380.499 166.459C393.918 166.459 404.845 155.34 404.845 141.73C404.845 128.119 393.918 117 380.499 117Z" fill="#818385"/>
</g>
<defs>
<clipPath id="clip0_440_1038">
<rect width="476" height="167" fill="white" transform="translate(0 0.199951)"/>
</clipPath>
</defs>
</svg>
