<svg width="486" height="168" viewBox="0 0 486 168" fill="none" xmlns="http://www.w3.org/2000/svg">
<g clip-path="url(#clip0_403_980)">
<path d="M480.461 3.05465C480.461 2.03511 479.646 1.21948 478.626 1.21948H7.39669C6.37715 1.21948 5.56152 2.03511 5.56152 3.05465V101.95C5.56152 102.969 6.37715 103.785 7.39669 103.785H9.84357V109.494C9.84357 110.922 11.067 112.145 12.4944 112.145H27.5835L38.3906 132.536C38.5945 132.944 39.0023 133.147 39.4101 133.147H63.6751C64.0829 133.147 64.6946 132.74 64.6946 132.332C68.161 121.321 77.9486 113.165 89.7752 112.145H94.8729C104.049 112.961 112.205 118.262 116.895 125.807C117.303 126.419 118.322 126.419 118.73 125.807C123.42 118.262 131.372 112.961 140.752 112.145H145.646C157.472 113.165 167.056 121.321 170.726 132.332C170.726 132.74 171.338 133.147 171.746 133.147H196.011C196.419 133.147 196.826 133.147 197.03 132.536L207.837 112.145H253.105V122.748C253.105 123.156 252.697 123.564 252.289 123.564H249.231C248.823 123.564 248.415 123.972 248.415 124.379V125.603C248.415 126.011 248.823 126.419 249.231 126.419H320.802C321.21 126.419 321.618 126.011 321.618 125.603V124.379C321.618 123.972 321.21 123.564 320.802 123.564H317.743C317.336 123.564 316.928 123.156 316.928 122.748V112.145H329.162C329.978 112.145 330.794 111.737 331.201 111.125L335.279 105.62C335.687 105.008 335.891 104.397 335.891 103.785H478.422C479.442 103.785 480.257 102.969 480.257 101.95V3.05465H480.461ZM314.277 122.952C314.277 123.36 313.869 123.768 313.461 123.768H256.979C256.571 123.768 256.163 123.36 256.163 122.952V112.349H314.481V122.952H314.277ZM334.872 105.212L330.794 110.718C330.386 111.125 329.978 111.533 329.366 111.533H208.449C208.449 110.922 208.041 110.31 207.43 110.31H28.3991C27.5835 110.31 27.1757 110.922 27.3796 111.533H12.4944C11.4748 111.533 10.6592 110.718 10.6592 109.698V104.193C10.6592 103.173 11.4748 102.357 12.4944 102.357H333.444C334.056 102.357 334.668 102.765 335.076 103.377C335.279 103.989 335.279 104.6 335.076 105.212H334.872Z" stroke="#434344" stroke-width="1.16044" stroke-miterlimit="10"/>
<path d="M91.8147 120.301C80.8037 120.301 71.6279 129.477 71.6279 140.692C71.6279 151.907 80.5998 161.083 91.8147 161.083C103.03 161.083 112.002 151.907 112.002 140.692C112.002 129.477 103.03 120.301 91.8147 120.301ZM91.8147 154.558C84.4741 154.558 78.3569 148.44 78.3569 140.896C78.3569 133.351 84.4741 127.234 91.8147 127.234C99.1554 127.234 105.273 133.351 105.273 140.896C105.273 148.44 99.3593 154.558 91.8147 154.558Z" stroke="#818285" stroke-width="0.257875" stroke-miterlimit="10"/>
<path d="M91.8142 119.689C80.3954 119.689 71.0156 129.273 71.0156 140.896C71.0156 152.519 80.3954 162.102 91.8142 162.102C103.233 162.102 112.613 152.519 112.613 140.896C112.613 129.273 103.437 119.689 91.8142 119.689ZM91.8142 161.49C80.5993 161.49 71.6274 152.315 71.6274 140.896C71.6274 129.477 80.5993 120.301 91.8142 120.301C103.029 120.301 112.001 129.477 112.001 140.896C112.001 152.315 103.029 161.49 91.8142 161.49Z" stroke="#818285" stroke-width="0.257875" stroke-miterlimit="10"/>
<path d="M115.468 137.226C115.468 138.245 115.468 139.469 115.468 140.896H114.448L113.836 141.1H114.856C114.856 142.323 114.856 143.343 114.856 144.362H113.836V144.77H114.856C114.652 145.994 114.448 147.217 114.04 148.237H113.021L114.04 148.644C113.836 149.868 113.429 150.887 112.817 151.907M115.468 137.226H114.448M115.468 137.226C115.468 135.798 115.06 134.779 114.652 133.555L113.632 133.963L114.652 133.351C114.244 132.332 113.836 131.108 113.429 130.089M113.429 130.089L112.409 130.497M113.429 130.089C112.817 129.069 112.205 128.05 111.593 127.03L110.778 127.642L111.593 126.826C110.982 125.807 110.166 124.991 109.35 124.176L108.535 124.991V124.583L109.146 123.768C108.331 122.952 107.515 122.136 106.496 121.525M106.496 121.525L105.884 122.544M106.496 121.525C105.476 120.913 104.661 120.301 103.641 119.69L103.029 120.505L103.437 119.486C102.418 118.874 101.398 118.466 100.175 118.058M100.175 118.058L99.7667 119.078M100.175 118.058C99.155 117.65 97.9316 117.447 96.912 117.243V118.262H96.5042V117.243C95.4847 117.243 94.4652 117.243 93.2417 117.243V118.262H92.8339V117.243C91.6104 117.243 90.5909 117.243 89.3675 117.243M89.3675 117.243V118.262M89.3675 117.243C87.9401 117.243 86.9206 117.65 85.9011 118.058L86.3089 119.078L85.9011 118.262C84.8815 118.67 83.6581 119.078 82.6385 119.69M82.6385 119.69L83.0463 120.709M82.6385 119.69C81.619 120.301 80.5995 120.913 79.7838 121.525L80.3956 122.34H80.1916L79.5799 121.729C78.5604 122.34 77.7448 123.156 76.9291 123.972L77.7448 124.787L76.9291 124.176C76.1135 124.991 75.2979 125.807 74.6862 126.826L75.5018 127.438L74.6862 127.03C74.0744 128.05 73.4627 129.069 72.851 130.089M72.851 130.089L73.8705 130.497M72.851 130.089C72.2393 131.108 71.8315 132.128 71.6275 133.351L72.6471 133.759H71.6275C71.2197 134.779 71.0158 136.002 70.8119 137.226H71.8315V137.633H70.8119C70.4041 138.653 70.4041 139.672 70.4041 140.896H71.4236V141.304H70.4041C70.4041 142.527 70.4041 143.751 70.4041 144.77M70.4041 144.77H71.4236M70.4041 144.77C70.4041 146.197 70.8119 147.217 71.2197 148.44L72.2393 148.033L71.2197 148.644C71.6275 149.664 72.0354 150.887 72.4432 151.907M72.4432 151.907L73.4627 151.499M72.4432 151.907C73.0549 152.926 73.6666 153.946 74.2783 154.966L75.094 154.354L74.2783 155.169C74.8901 156.189 75.7057 157.005 76.5213 157.82L77.3369 157.005L76.5213 158.024C77.3369 158.84 78.1526 159.655 79.1721 160.267L79.7838 159.451L79.1721 160.471C80.1916 161.083 81.0073 161.694 82.0268 162.306M82.0268 162.306L82.4346 161.287M82.0268 162.306C83.0463 162.918 84.0659 163.326 85.2893 163.734M85.2893 163.734L85.6971 162.714M85.2893 163.734C86.3089 164.141 87.5323 164.345 88.5518 164.549V163.53H88.9597V164.549C89.7753 164.549 90.9987 164.549 92.2222 164.549V163.53H92.63V164.549C93.8534 164.549 94.873 164.549 96.0964 164.549M96.0964 164.549V163.53M96.0964 164.549C97.5238 164.549 98.5433 164.141 99.5628 163.734V162.714L99.9706 163.734C100.99 163.326 102.214 162.918 103.233 162.306M103.233 162.306L102.825 161.287M103.233 162.306C104.253 161.694 105.272 161.083 106.088 160.471L105.476 159.655L106.088 160.267C107.107 159.655 107.923 158.84 108.739 158.024L107.923 157.208L108.739 157.82C109.554 157.005 110.37 156.189 110.982 155.169L110.166 154.558L110.982 154.966C111.593 153.946 112.205 152.926 112.817 151.907M112.817 151.907L111.797 151.499M107.107 156.393C103.029 160.471 97.5238 162.918 91.8144 162.918C86.105 162.918 80.5995 160.675 76.5213 156.393C72.4432 152.315 70.2002 146.809 70.2002 140.896C70.2002 134.983 72.4432 129.477 76.5213 125.399C80.5995 121.321 86.105 118.874 91.8144 118.874C97.5238 118.874 103.029 121.117 107.107 125.399C111.186 129.477 113.429 134.983 113.429 140.896C113.429 146.809 111.186 152.315 107.107 156.393Z" stroke="#818285" stroke-width="0.257875" stroke-miterlimit="10"/>
<path d="M91.8146 119.078C79.9879 119.078 70.4043 128.865 70.4043 140.896C70.4043 152.926 79.9879 162.714 91.8146 162.714C103.641 162.714 113.225 152.926 113.225 140.896C113.225 128.865 103.845 119.078 91.8146 119.078ZM106.7 155.985C102.826 160.063 97.524 162.306 91.8146 162.306C86.1052 162.306 81.0075 160.063 77.1332 155.985C73.259 151.907 71.016 146.605 71.016 140.896C71.016 135.187 73.259 129.885 77.1332 125.807C81.0075 121.729 86.3091 119.486 91.8146 119.486C97.32 119.486 102.622 121.729 106.7 125.807C110.574 129.885 112.817 135.187 112.817 140.896C112.817 146.605 110.574 151.907 106.7 155.985Z" stroke="#818285" stroke-width="0.257875" stroke-miterlimit="10"/>
<path d="M91.8141 132.128C87.1242 132.128 83.25 136.002 83.25 140.896C83.25 145.79 87.1242 149.664 91.8141 149.664C96.504 149.664 100.378 145.79 100.378 140.896C100.378 136.002 96.504 132.128 91.8141 132.128ZM97.9313 138.245C98.3391 138.245 98.543 138.245 98.747 138.653C98.747 139.061 98.747 139.265 98.3391 139.469C97.9313 139.673 97.7274 139.469 97.5235 139.061C97.5235 138.653 97.5235 138.245 97.9313 138.245ZM95.2805 135.187C95.2805 135.187 95.8923 134.779 96.0962 135.187C96.0962 135.187 96.504 135.798 96.0962 136.002C96.0962 136.002 95.4844 136.41 95.2805 136.002C94.8727 135.798 94.8727 135.39 95.2805 135.187ZM91.8141 133.555C92.2219 133.555 92.4258 133.555 92.4258 134.167C92.4258 134.779 92.4258 134.779 91.8141 134.779C91.2024 134.779 91.2024 134.779 91.2024 134.167C91.2024 133.555 91.6102 133.555 91.8141 133.555ZM87.736 134.983C87.736 134.983 88.3477 134.983 88.5516 134.983C88.5516 134.983 88.5516 135.594 88.5516 135.798C88.5516 135.798 87.9399 135.798 87.736 135.798C87.736 135.798 87.736 135.187 87.736 134.983ZM85.9008 143.547C85.493 143.547 85.2891 143.547 85.0852 143.139C85.0852 142.731 85.0852 142.527 85.493 142.323C85.9008 142.119 86.1047 142.323 86.3086 142.731C86.3086 143.139 86.1047 143.343 85.9008 143.547ZM86.3086 139.061C86.3086 139.469 85.9008 139.469 85.493 139.469C85.0852 139.469 85.0852 139.061 85.0852 138.653C85.0852 138.245 85.493 138.245 85.9008 138.245C85.9008 138.245 86.3086 138.653 86.3086 139.061ZM88.5516 146.605C88.5516 146.605 87.9399 147.013 87.736 146.605C87.736 146.605 87.3281 145.994 87.736 145.79C87.736 145.79 88.3477 145.382 88.5516 145.79C88.5516 145.79 88.9594 146.401 88.5516 146.605ZM91.8141 148.237C91.4063 148.237 91.2024 148.237 91.2024 147.625C91.2024 147.013 91.2024 147.013 91.8141 147.013C92.4258 147.013 92.4258 147.013 92.4258 147.625C92.4258 147.829 92.4258 148.237 91.8141 148.237ZM96.0962 146.809C96.0962 146.809 95.4844 146.809 95.2805 146.809C95.2805 146.809 95.2805 146.198 95.2805 145.994C95.2805 145.994 95.8923 145.994 96.0962 145.994C96.3001 145.994 96.0962 146.605 96.0962 146.809ZM91.8141 145.994C88.9594 145.994 86.7164 143.751 86.7164 140.896C86.7164 138.041 88.9594 135.798 91.8141 135.798C94.6688 135.798 96.9118 138.041 96.9118 140.896C96.9118 143.751 94.6688 145.994 91.8141 145.994ZM98.747 143.139C98.747 143.547 98.3391 143.547 97.9313 143.547C97.5235 143.547 97.5235 143.139 97.5235 142.731C97.5235 142.323 97.9313 142.323 98.3391 142.323C98.543 142.527 98.747 142.731 98.747 143.139Z" stroke="#818285" stroke-width="0.257875" stroke-miterlimit="10"/>
<path d="M91.8145 127.438C84.4739 127.438 78.5605 133.555 78.5605 140.896C78.5605 148.237 84.4739 154.354 91.8145 154.354C99.1552 154.354 105.068 148.44 105.068 140.896C105.068 133.351 99.1552 127.438 91.8145 127.438ZM99.1552 133.759C99.1552 133.351 99.1552 133.147 99.563 132.943C99.563 132.943 100.175 132.943 100.583 132.943C100.99 132.943 101.398 133.351 101.602 133.759C102.214 134.575 102.01 135.39 101.602 136.002C101.602 136.002 101.194 136.002 100.99 136.002C100.583 136.002 100.175 136.002 99.7669 135.39V134.983C99.7669 134.575 99.7669 134.167 99.7669 133.759H99.1552ZM93.6497 129.885C93.6497 129.069 94.8731 128.865 95.6888 129.069C96.5044 129.273 97.1161 130.089 96.9122 130.904C96.9122 130.904 96.9122 131.516 96.3005 131.516C96.3005 131.516 95.6888 131.516 95.4848 131.516H94.6692C94.2614 131.516 93.8536 130.904 93.6497 130.701V129.681V129.885ZM87.1247 129.885C87.1247 129.477 87.7364 129.273 88.1442 129.069C88.9598 129.069 89.9794 129.069 90.1833 129.885V130.701C90.1833 131.108 89.7754 131.516 89.1637 131.516H88.3481C87.9403 131.516 87.7364 131.516 87.5325 131.516C87.5325 131.516 87.1247 131.108 86.9207 130.904C86.9207 130.904 86.9207 130.293 86.9207 130.089L87.1247 129.885ZM82.027 133.555C82.027 133.147 82.6387 132.943 83.0465 132.74C83.4543 132.74 83.8621 132.74 84.066 132.74C84.27 132.74 84.4739 133.147 84.4739 133.555C84.4739 133.963 84.4739 134.371 84.4739 134.779C84.4739 134.779 84.4739 134.915 84.4739 135.186C84.4739 135.594 83.8621 135.798 83.2504 135.798C83.2504 135.798 82.8426 135.798 82.6387 135.798C82.2309 135.39 82.027 134.371 82.6387 133.555H82.027ZM79.5801 140.896C79.5801 139.876 80.1918 139.265 81.0074 139.265C81.8231 139.265 81.6192 139.265 81.8231 139.672C82.2309 139.672 82.4348 140.284 82.4348 140.896V141.304C82.4348 141.711 82.4348 142.119 81.8231 142.527C81.8231 142.527 81.2113 142.935 81.0074 142.935C80.1918 142.527 79.5801 141.711 79.5801 140.896ZM84.4739 148.033C84.4739 148.44 84.4739 148.644 84.066 148.848C84.066 148.848 83.6582 148.848 83.4543 148.848H83.0465C82.6387 148.848 82.2309 148.44 82.027 148.237C81.4152 147.421 81.6192 146.605 82.027 145.994C82.027 145.994 82.6387 145.994 82.8426 145.994C83.2504 145.994 83.6582 145.994 84.066 146.605V147.013C84.066 147.013 84.27 147.625 84.066 148.033H84.4739ZM90.1833 151.907C90.1833 152.519 89.3676 152.722 88.7559 152.722H88.1442C87.3286 152.722 86.7168 151.703 86.9207 150.887C86.9207 150.887 86.9207 150.276 87.5325 150.276C87.9403 150.276 88.3481 150.276 88.7559 150.276H89.1637C89.5715 150.276 89.9794 150.887 90.1833 151.091C90.1833 151.499 90.1833 151.907 90.1833 152.111V151.907ZM95.6888 152.722H95.077C94.4653 152.722 93.8536 152.315 93.6497 151.907V151.091C93.6497 150.683 94.0575 150.276 94.6692 150.276H95.077C95.4849 150.276 95.8927 150.276 96.3005 150.276C96.3005 150.276 96.7083 150.683 96.9122 150.887C97.1161 151.499 96.5044 152.315 95.6888 152.519V152.722ZM91.8145 149.664C87.1247 149.664 83.2504 145.79 83.2504 140.896C83.2504 136.002 87.1247 132.128 91.8145 132.128C96.5044 132.128 100.379 136.002 100.379 140.896C100.583 145.79 96.7083 149.664 91.8145 149.664ZM101.806 148.237C101.806 148.644 101.194 148.848 100.786 148.848H100.379C100.379 148.848 99.9708 148.848 99.7669 148.848C99.563 148.848 99.3591 148.44 99.3591 148.033C99.3591 147.625 99.3591 147.217 99.3591 146.809C99.3591 146.809 99.3591 146.673 99.3591 146.401C99.3591 145.994 100.175 145.79 100.583 145.79C100.99 145.79 101.194 145.79 101.398 145.79C101.398 145.79 101.806 146.401 101.806 146.809C101.806 147.421 101.806 147.829 101.398 148.237H101.806ZM102.826 142.527C102.826 142.527 102.214 142.527 102.01 142.119C101.602 142.119 101.398 141.508 101.398 140.896V140.488C101.398 140.08 101.398 139.672 102.01 139.265C102.01 139.265 102.622 138.857 102.826 138.857C103.641 138.857 104.253 139.672 104.253 140.488C104.049 141.711 103.437 142.527 102.826 142.527Z" stroke="#818285" stroke-width="0.257875" stroke-miterlimit="10"/>
<path d="M92.0183 116.835C105.068 116.835 115.875 127.642 115.875 141.1C115.875 154.558 105.272 165.365 92.0183 165.365C78.7643 165.161 68.1611 154.354 68.1611 140.896C68.1611 127.438 78.7643 116.835 92.0183 116.835ZM92.0183 114.592C77.7448 114.592 66.1221 126.418 66.1221 140.896C66.1221 155.373 77.7448 167.2 92.0183 167.2C106.292 167.2 117.915 155.373 117.915 140.896C117.915 126.418 106.088 114.592 92.0183 114.592Z" fill="#818285"/>
<path d="M143.199 120.301C132.188 120.301 123.012 129.477 123.012 140.692C123.012 151.907 131.984 161.083 143.199 161.083C154.413 161.083 163.385 151.907 163.385 140.692C163.181 129.477 154.21 120.301 143.199 120.301ZM143.199 154.558C135.858 154.558 129.741 148.44 129.741 140.896C129.741 133.351 135.858 127.234 143.199 127.234C150.539 127.234 156.656 133.351 156.656 140.896C156.656 148.44 150.539 154.558 143.199 154.558Z" stroke="#818285" stroke-width="0.257875" stroke-miterlimit="10"/>
<path d="M143.199 119.689C131.78 119.689 122.4 129.273 122.4 140.896C122.4 152.519 131.78 162.102 143.199 162.102C154.618 162.102 163.997 152.519 163.997 140.896C163.997 129.273 154.618 119.689 143.199 119.689ZM143.199 161.49C131.984 161.49 123.012 152.315 123.012 140.896C123.012 129.477 131.984 120.301 143.199 120.301C154.414 120.301 163.386 129.477 163.386 140.896C163.386 152.315 154.21 161.49 143.199 161.49Z" stroke="#818285" stroke-width="0.257875" stroke-miterlimit="10"/>
<path d="M166.852 137.226C166.852 138.245 166.852 139.469 166.852 140.896H165.833V141.1H166.648C166.648 142.323 166.648 143.343 166.648 144.362H165.629V144.77H166.648C166.445 145.994 166.241 147.217 165.833 148.237H164.813L165.833 148.644C165.629 149.868 165.221 150.887 164.609 151.907M166.852 137.226H165.833M166.852 137.226C166.852 135.798 166.445 134.779 166.037 133.555L165.017 133.963L166.037 133.351C165.629 132.332 165.221 131.108 164.813 130.089L163.59 130.497L164.609 130.089C163.998 129.069 163.386 128.05 162.774 127.03L161.959 127.642L162.774 126.826C162.162 125.807 161.347 124.991 160.531 124.176L159.716 124.991L160.531 123.972C159.716 123.156 158.9 122.34 157.88 121.729L157.473 122.544L158.084 121.525C157.065 120.913 156.249 120.301 155.23 119.69L154.618 120.505L155.026 119.486C154.006 118.874 152.987 118.466 151.763 118.058M151.763 118.058L151.355 119.078M151.763 118.058C150.744 117.65 149.52 117.447 148.501 117.243V118.262H148.093V117.243C147.277 117.243 146.054 117.243 144.83 117.243V118.262H144.423V117.243C143.199 117.243 142.18 117.243 140.956 117.243M140.956 117.243V118.262M140.956 117.243C139.529 117.243 138.509 117.65 137.49 118.058M137.49 118.058L137.898 119.078M137.49 118.058C136.47 118.466 135.247 118.874 134.227 119.486M134.227 119.486L134.635 120.505M134.227 119.486C133.208 120.097 132.188 120.709 131.373 121.321L131.984 122.136L131.373 121.525C130.353 122.136 129.537 122.952 128.722 123.768L129.333 124.583L128.518 123.972C127.702 124.787 126.887 125.603 126.275 126.622L127.09 127.234L126.275 126.826C125.663 127.846 125.051 128.865 124.44 129.885M124.44 129.885L125.459 130.293M124.44 129.885C123.828 130.904 123.42 131.924 123.216 133.147L124.236 133.555H123.216C122.808 134.575 122.604 135.798 122.401 137.022H123.42V137.429H122.401C122.401 138.449 122.401 139.469 122.401 140.692H123.42V141.1H122.401C122.401 142.323 122.401 143.547 122.401 144.566H123.42L122.401 144.974C122.401 146.197 122.808 147.217 123.216 148.44L124.236 148.033L123.216 148.644C123.624 149.664 124.032 150.887 124.44 151.907M124.44 151.907L125.459 151.499M124.44 151.907C125.051 152.926 125.663 153.946 126.275 154.966L127.09 154.354L126.275 155.169C126.887 156.189 127.702 157.005 128.518 157.82L129.333 157.005L128.518 158.024C129.333 158.84 130.149 159.655 131.169 160.267L131.78 159.451L131.169 160.471C132.188 161.083 133.004 161.694 134.023 162.306M134.023 162.306L134.431 161.287M134.023 162.306C135.043 162.918 136.062 163.326 137.286 163.734M137.286 163.734L137.694 162.714M137.286 163.734C138.305 164.141 139.529 164.345 140.548 164.549V163.53H140.956V164.549C142.18 164.549 143.199 164.549 144.423 164.549V163.53H144.83V164.549C146.054 164.549 147.073 164.549 148.297 164.549M148.297 164.549V163.53M148.297 164.549C149.724 164.549 150.744 164.141 151.763 163.734M151.763 163.734L151.355 162.714M151.763 163.734C152.783 163.326 154.006 162.918 155.026 162.306M155.026 162.306L154.618 161.287M155.026 162.306C156.045 161.694 157.065 161.083 157.88 160.471L157.269 159.655L157.88 160.267C158.9 159.655 159.716 158.84 160.531 158.024L159.716 157.208L160.531 157.82C161.347 157.005 162.162 156.189 162.774 155.169L161.959 154.558L162.774 154.966C163.386 153.946 163.998 152.926 164.609 151.907M164.609 151.907L163.59 151.499M158.492 156.393C154.414 160.471 148.909 162.918 143.199 162.918C137.49 162.918 131.984 160.675 127.906 156.393C123.828 152.315 121.585 146.809 121.585 140.896C121.585 134.983 123.828 129.477 127.906 125.399C131.984 121.321 137.49 118.874 143.199 118.874C148.909 118.874 154.414 121.117 158.492 125.399C162.57 129.477 164.813 134.983 164.813 140.896C164.813 146.809 162.57 152.315 158.492 156.393Z" stroke="#818285" stroke-width="0.257875" stroke-miterlimit="10"/>
<path d="M143.199 119.078C131.373 119.078 121.789 128.865 121.789 140.896C121.789 152.926 131.373 162.714 143.199 162.714C155.026 162.714 164.61 152.926 164.61 140.896C164.61 128.865 155.026 119.078 143.199 119.078ZM157.881 155.985C154.006 160.063 148.705 162.306 142.995 162.306C137.286 162.306 132.188 160.063 128.314 155.985C124.44 151.907 122.197 146.605 122.197 140.896C122.197 135.187 124.44 129.885 128.314 125.807C132.188 121.729 137.49 119.486 142.995 119.486C148.501 119.486 153.802 121.729 157.881 125.807C161.755 129.885 163.998 135.187 163.998 140.896C163.998 146.605 161.959 151.907 157.881 155.985Z" stroke="#818285" stroke-width="0.257875" stroke-miterlimit="10"/>
<path d="M143.199 132.128C138.509 132.128 134.635 136.002 134.635 140.896C134.635 145.79 138.509 149.664 143.199 149.664C147.889 149.664 151.763 145.79 151.763 140.896C151.763 136.002 147.889 132.128 143.199 132.128ZM149.112 138.245C149.52 138.245 149.724 138.245 149.928 138.653C150.132 139.061 149.928 139.265 149.52 139.469C149.112 139.673 148.908 139.469 148.704 139.061C148.704 138.653 148.704 138.245 149.112 138.245ZM146.461 135.187C146.461 135.187 147.073 134.779 147.277 135.187C147.481 135.594 147.685 135.798 147.277 136.002C146.869 136.206 146.665 136.41 146.461 136.002C146.461 135.798 146.054 135.39 146.461 135.187ZM143.199 133.555C143.607 133.555 143.811 133.555 143.811 134.167C143.811 134.779 143.811 134.779 143.199 134.779C142.587 134.779 142.587 134.779 142.587 134.167C142.587 133.555 142.587 133.555 143.199 133.555ZM138.917 134.983C138.917 134.983 139.529 134.983 139.732 134.983C139.732 134.983 139.732 135.594 139.732 135.798C139.732 135.798 139.121 135.798 138.917 135.798C138.917 135.798 138.917 135.187 138.917 134.983ZM137.082 143.547C136.674 143.547 136.47 143.547 136.266 143.139C136.062 142.731 136.266 142.527 136.674 142.323C137.082 142.119 137.286 142.323 137.489 142.731C137.489 143.139 137.489 143.343 137.082 143.547ZM137.489 139.061C137.489 139.469 137.082 139.469 136.674 139.469C136.266 139.469 136.266 139.061 136.266 138.653C136.266 138.245 136.674 138.245 137.082 138.245C137.489 138.245 137.489 138.653 137.489 139.061ZM139.732 146.605C139.732 146.605 139.121 147.013 138.917 146.605C138.713 146.198 138.509 145.994 138.917 145.79C139.325 145.586 139.529 145.382 139.732 145.79C140.14 145.79 140.14 146.401 139.732 146.605ZM143.199 148.237C142.791 148.237 142.587 148.237 142.587 147.625C142.587 147.013 142.587 147.013 143.199 147.013C143.811 147.013 143.811 147.013 143.811 147.625C143.811 147.829 143.403 148.237 143.199 148.237ZM147.277 146.809C147.277 146.809 146.665 146.809 146.461 146.809C146.461 146.809 146.461 146.198 146.461 145.994C146.461 145.994 147.073 145.994 147.277 145.994C147.277 145.994 147.277 146.605 147.277 146.809ZM143.199 145.994C140.344 145.994 138.101 143.751 138.101 140.896C138.101 138.041 140.344 135.798 143.199 135.798C146.054 135.798 148.297 138.041 148.297 140.896C148.297 143.751 145.85 145.994 143.199 145.994ZM149.928 143.139C149.928 143.547 149.52 143.547 149.112 143.547C148.704 143.547 148.704 143.139 148.704 142.731C148.704 142.323 149.112 142.323 149.52 142.323C149.928 142.527 150.132 142.731 149.928 143.139Z" stroke="#818285" stroke-width="0.257875" stroke-miterlimit="10"/>
<path d="M143.199 127.438C135.859 127.438 129.945 133.555 129.945 140.896C129.945 148.237 135.859 154.354 143.199 154.354C150.54 154.354 156.453 148.44 156.453 140.896C156.249 133.555 150.336 127.438 143.199 127.438ZM150.54 133.759C150.54 133.351 150.54 133.147 150.948 132.943C151.356 132.74 151.559 132.943 151.967 132.943C152.375 132.943 152.783 133.351 152.987 133.759C153.599 134.575 153.395 135.39 152.987 136.002C152.579 136.614 152.579 136.002 152.375 136.002C151.967 136.002 151.559 136.002 151.152 135.39V134.983C151.152 134.575 151.152 134.167 151.152 133.759H150.54ZM145.034 129.885C145.034 129.069 146.258 128.865 147.074 129.069C147.889 129.273 148.501 130.089 148.297 130.904C148.297 130.904 148.297 131.516 147.685 131.516C147.685 131.516 147.074 131.516 146.87 131.516H146.054C145.646 131.516 145.238 130.904 145.034 130.701C145.034 130.293 145.034 129.885 145.034 129.681V129.885ZM138.306 129.885C138.306 129.477 138.917 129.273 139.325 129.069C140.141 129.069 141.16 129.069 141.364 129.885V130.701C141.364 131.108 140.956 131.516 140.345 131.516H139.529C139.529 131.516 138.917 131.516 138.713 131.516L138.102 130.904C138.102 130.904 138.102 130.293 138.102 130.089L138.306 129.885ZM133.208 133.555C133.208 133.147 133.82 132.943 134.227 132.74C134.635 132.74 135.043 132.74 135.247 132.74C135.451 132.74 135.655 133.147 135.655 133.555C135.655 133.963 135.655 134.371 135.655 134.779V135.186C135.655 135.594 134.839 135.798 134.431 135.798C134.431 135.798 134.023 135.798 133.82 135.798C133.208 135.39 133.208 134.371 133.82 133.555H133.208ZM130.965 140.896C130.965 139.876 131.577 139.265 132.392 139.265C133.208 139.265 133.004 139.265 133.208 139.672C133.616 139.672 133.82 140.284 133.82 140.896V141.304C133.82 141.711 133.82 142.119 133.208 142.527C133.208 142.527 132.596 142.935 132.392 142.935C131.577 142.527 130.965 141.711 130.965 140.896ZM135.859 148.033C135.859 148.44 135.859 148.644 135.451 148.848C135.043 149.052 135.043 148.848 134.839 148.848H134.431C134.023 148.848 133.616 148.44 133.412 148.237C132.8 147.421 133.004 146.605 133.412 145.994C133.82 145.382 134.023 145.994 134.227 145.994C134.635 145.994 135.043 145.994 135.451 146.605V148.033H135.859ZM141.364 151.907C141.364 152.519 140.548 152.722 139.937 152.722H139.325C138.509 152.722 137.898 151.703 138.102 150.887C138.102 150.887 138.102 150.276 138.713 150.276C139.121 150.276 139.529 150.276 139.937 150.276H140.345C140.752 150.276 141.16 150.887 141.364 151.091V152.111V151.907ZM146.87 152.722H146.258C145.646 152.722 145.034 152.315 144.831 151.907V151.091C144.831 150.683 145.238 150.276 145.85 150.276H146.258C146.666 150.276 147.074 150.276 147.481 150.276L148.093 150.887C148.297 151.499 147.685 152.315 146.87 152.519V152.722ZM143.199 149.664C138.509 149.664 134.635 145.79 134.635 140.896C134.635 136.002 138.509 132.128 143.199 132.128C147.889 132.128 151.763 136.002 151.763 140.896C151.763 145.79 147.889 149.664 143.199 149.664ZM152.987 148.237C152.987 148.644 152.375 148.848 151.967 148.848H151.559C151.559 148.848 151.152 148.848 150.948 148.848C150.948 148.848 150.54 148.44 150.54 148.033C150.54 147.625 150.54 147.217 150.54 146.809C150.54 146.809 150.54 146.673 150.54 146.401C150.54 145.994 151.356 145.79 151.763 145.79C152.171 145.79 152.375 145.79 152.579 145.79C152.783 145.79 152.987 146.401 152.987 146.809C152.987 147.421 152.987 147.829 152.579 148.237H152.987ZM154.006 142.527C154.006 142.527 153.395 142.527 153.191 142.119C152.783 142.119 152.579 141.508 152.579 140.896V140.488C152.579 140.08 152.579 139.672 153.191 139.265C153.191 139.265 153.802 138.857 154.006 138.857C154.822 138.857 155.434 139.672 155.434 140.488C155.434 141.711 154.822 142.527 154.006 142.527Z" stroke="#818285" stroke-width="0.257875" stroke-miterlimit="10"/>
<path d="M143.199 116.835C156.249 116.835 167.056 127.642 167.056 141.1C167.056 154.558 156.453 165.365 143.199 165.365C129.945 165.365 119.342 154.558 119.342 141.1C119.342 127.642 130.149 116.835 143.199 116.835ZM143.199 114.592C128.925 114.592 117.303 126.418 117.303 140.896C117.303 155.373 128.925 167.2 143.199 167.2C157.472 167.2 169.095 155.373 169.095 140.896C169.095 126.418 157.472 114.592 143.199 114.592Z" fill="#818285"/>
</g>
<defs>
<clipPath id="clip0_403_980">
<rect width="485.818" height="167" fill="white" transform="translate(0 0.199951)"/>
</clipPath>
</defs>
</svg>
