<?xml version="1.0" encoding="UTF-8"?><svg id="a" xmlns="http://www.w3.org/2000/svg" width="6.6in" height="1.6in" viewBox="0 0 478.1 112.2"><defs><style>.b{fill:none;stroke:#434344;stroke-miterlimit:10;stroke-width:1.2px;}</style></defs><path class="b" d="m313.4,111.4h12.3c.8,0,1.6-.4,2-1l4.1-5.5c.4-.6.6-1.2.6-1.8h143.2c1,0,1.8-.8,1.8-1.8V2.4c0-1-.6-1.8-1.6-1.8H2.4c-1,0-1.8.8-1.8,1.8v98.8c0,1,.8,1.8,1.8,1.8h2.5v5.7c0,1.4,1.2,2.6,2.7,2.6h15.2m181.1,0h45.5m0,.2h64.1m18-7.1l-4.1,5.5c-.4.4-.8.8-1.4.8h-121.5c0-.6-.4-1.2-1-1.2H23.5c-.8,0-1.2.6-1,1.2H7.6c-1,0-1.8-.8-1.8-1.8v-5.5c0-1,.8-1.8,1.8-1.8h322.5c.6,0,1.2.4,1.6,1,.2.6.2,1.2,0,1.8h-.2Z"/></svg>