<svg width="130" height="179" viewBox="0 0 130 179" fill="none" xmlns="http://www.w3.org/2000/svg">
<g clip-path="url(#clip0_404_1047)">
<path d="M17.8405 177.146H13.6929C10.4184 177.146 7.79883 174.526 7.79883 171.252V133.268C7.79883 129.993 10.4184 127.374 13.6929 127.374H17.8405C21.115 127.374 23.7346 129.993 23.7346 133.268V171.252C23.7346 174.526 21.115 177.146 17.8405 177.146Z" stroke="black" stroke-width="1.29412" stroke-miterlimit="10"/>
<path d="M33.7762 177.146H29.1919C25.9174 177.146 23.2979 174.526 23.2979 171.252V133.268C23.2979 129.993 25.9174 127.374 29.1919 127.374H33.7762C37.0506 127.374 39.6702 129.993 39.6702 133.268V171.252C39.6702 174.526 37.0506 177.146 33.7762 177.146Z" stroke="black" stroke-width="1.29412" stroke-miterlimit="10"/>
<path d="M103.195 177.146H99.0474C95.7729 177.146 93.1533 174.526 93.1533 171.252V133.268C93.1533 129.993 95.7729 127.374 99.0474 127.374H103.195C106.47 127.374 109.089 129.993 109.089 133.268V171.252C108.871 174.526 106.47 177.146 103.195 177.146Z" stroke="black" stroke-width="1.29412" stroke-miterlimit="10"/>
<path d="M119.131 177.146H114.546C111.272 177.146 108.652 174.526 108.652 171.252V133.268C108.652 129.993 111.272 127.374 114.546 127.374H119.131C122.405 127.374 125.025 129.993 125.025 133.268V171.252C124.806 174.526 122.405 177.146 119.131 177.146Z" stroke="black" stroke-width="1.29412" stroke-miterlimit="10"/>
<path d="M126.989 112.311H2.55957V4.69028C2.55957 2.94389 4.52425 1.19751 6.70723 1.19751H122.842C125.025 1.19751 126.989 2.7256 126.989 4.69028V112.311Z" stroke="black" stroke-width="1.29412" stroke-miterlimit="10"/>
<path d="M126.989 112.311H2.55957V119.515H126.989V112.311Z" stroke="black" stroke-width="1.29412" stroke-miterlimit="10"/>
<path d="M124.806 119.515H5.83398V125.627H124.806V119.515Z" stroke="black" stroke-width="1.29412" stroke-miterlimit="10"/>
</g>
<defs>
<clipPath id="clip0_404_1047">
<rect width="129.55" height="178.131" fill="white" transform="translate(0 0.105957)"/>
</clipPath>
</defs>
</svg>
