<svg width="130" height="180" viewBox="0 0 130 180" fill="none" xmlns="http://www.w3.org/2000/svg">
<path d="M126.719 112.063H3.04688V5.31403C3.04688 3.57828 4.99959 1.84253 7.16928 1.84253H122.597C124.766 1.84253 126.719 3.36131 126.719 5.31403V112.063Z" stroke="black" stroke-width="0.900365" stroke-miterlimit="10"/>
<path d="M52.082 2.49341V112.063" stroke="black" stroke-width="0.900365" stroke-miterlimit="10"/>
<path d="M63.3643 2.49341V112.063" stroke="black" stroke-width="0.900365" stroke-miterlimit="10"/>
<path d="M74.6465 2.49341V112.063" stroke="black" stroke-width="0.900365" stroke-miterlimit="10"/>
<path d="M41.4503 119.223H3.04688V160.664H41.4503V119.223Z" stroke="black" stroke-width="0.900365" stroke-miterlimit="10"/>
<path d="M126.719 119.223H88.3154V160.664H126.719V119.223Z" stroke="black" stroke-width="0.900365" stroke-miterlimit="10"/>
<path d="M16.4987 136.58C16.4987 138.533 14.763 140.485 12.3763 140.485C9.98966 140.485 8.25391 138.75 8.25391 136.58C8.25391 134.41 9.98966 132.675 12.3763 132.675C14.763 132.675 16.4987 134.41 16.4987 136.58Z" stroke="black" stroke-width="0.900365" stroke-miterlimit="10"/>
<path d="M22.14 140.485C24.4167 140.485 26.2624 138.737 26.2624 136.58C26.2624 134.423 24.4167 132.675 22.14 132.675C19.8632 132.675 18.0176 134.423 18.0176 136.58C18.0176 138.737 19.8632 140.485 22.14 140.485Z" stroke="black" stroke-width="0.900365" stroke-miterlimit="10"/>
<path d="M35.8093 136.58C35.8093 138.533 34.0735 140.485 31.6869 140.485C29.3002 140.485 27.5645 138.75 27.5645 136.58C27.5645 134.41 29.3002 132.675 31.6869 132.675C34.0735 132.675 35.8093 134.41 35.8093 136.58Z" stroke="black" stroke-width="0.900365" stroke-miterlimit="10"/>
<path d="M103.07 136.58C103.07 138.533 101.334 140.485 98.9476 140.485C96.5609 140.485 94.8252 138.75 94.8252 136.58C94.8252 134.41 96.5609 132.675 98.9476 132.675C101.117 132.675 103.07 134.41 103.07 136.58Z" stroke="black" stroke-width="0.900365" stroke-miterlimit="10"/>
<path d="M112.616 136.58C112.616 138.533 110.88 140.485 108.493 140.485C106.107 140.485 104.371 138.75 104.371 136.58C104.371 134.41 106.107 132.675 108.493 132.675C110.88 132.675 112.616 134.41 112.616 136.58Z" stroke="black" stroke-width="0.900365" stroke-miterlimit="10"/>
<path d="M122.38 136.58C122.38 138.533 120.644 140.485 118.257 140.485C115.871 140.485 114.135 138.75 114.135 136.58C114.135 134.41 115.871 132.675 118.257 132.675C120.644 132.675 122.38 134.41 122.38 136.58Z" stroke="black" stroke-width="0.900365" stroke-miterlimit="10"/>
<path d="M41.2334 135.929H88.5326" stroke="black" stroke-width="0.900365" stroke-miterlimit="10"/>
<path d="M41.2334 150.683H88.5326" stroke="black" stroke-width="0.900365" stroke-miterlimit="10"/>
<path d="M6.30176 160.664V174.116C6.30176 176.502 8.25448 178.455 10.8581 178.455H17.5841C20.1877 178.455 22.1405 176.719 22.1405 174.116V160.664H6.30176Z" stroke="black" stroke-width="0.900365" stroke-miterlimit="10"/>
<path d="M21.9229 160.664V174.116C21.9229 176.502 23.8756 178.455 26.4792 178.455H33.2052C35.8088 178.455 37.7616 176.719 37.7616 174.116V160.664H21.9229Z" stroke="black" stroke-width="0.900365" stroke-miterlimit="10"/>
<path d="M90.9189 160.664V174.116C90.9189 176.502 92.8717 178.455 95.4753 178.455H102.201C104.805 178.455 106.758 176.719 106.758 174.116V160.664H90.9189Z" stroke="black" stroke-width="0.900365" stroke-miterlimit="10"/>
<path d="M106.541 160.664V174.116C106.541 176.502 108.494 178.455 111.097 178.455H117.823C120.427 178.455 122.38 176.719 122.38 174.116V160.664H106.541Z" stroke="black" stroke-width="0.900365" stroke-miterlimit="10"/>
<path d="M126.936 112.062H2.83008V119.222H126.936V112.062Z" stroke="black" stroke-width="0.900365" stroke-miterlimit="10"/>
</svg>
