<svg width="486" height="168" viewBox="0 0 486 168" fill="none" xmlns="http://www.w3.org/2000/svg">
<g clip-path="url(#clip0_404_997)">
<path d="M5.76543 101.95C5.76543 102.969 6.58106 103.785 7.6006 103.785H150.132C150.132 104.397 150.336 105.008 150.743 105.62L154.822 111.125C155.229 111.737 156.045 112.145 156.861 112.145H169.095V122.748C169.095 123.156 168.687 123.564 168.279 123.564H165.221C164.813 123.564 164.405 123.972 164.405 124.379V125.603C164.405 126.011 164.813 126.419 165.221 126.419H236.792C237.2 126.419 237.608 126.011 237.608 125.603V124.379C237.608 123.972 237.2 123.564 236.792 123.564H233.734C233.326 123.564 232.918 123.156 232.918 122.748V112.145H278.185L288.993 132.536C288.993 132.944 289.604 133.147 290.012 133.147H314.277C314.685 133.147 315.093 132.74 315.297 132.332C318.967 121.321 328.551 113.165 340.377 112.145H345.271C354.651 112.961 362.603 118.262 367.293 125.807C367.701 126.419 368.72 126.419 369.128 125.807C373.818 118.262 381.974 112.961 391.15 112.145H396.248C408.074 113.165 417.862 121.321 421.328 132.332C421.328 132.74 421.94 133.147 422.348 133.147H446.613C447.021 133.147 447.428 132.944 447.632 132.536L458.439 112.145H473.529C474.956 112.145 476.179 110.922 476.179 109.494V103.989H478.626C479.646 103.989 480.461 103.173 480.461 102.154V3.05465C480.461 2.03511 479.646 1.21948 478.626 1.21948H7.39669C6.37715 1.21948 5.56152 2.03511 5.56152 3.05465V101.95H5.76543ZM171.542 122.952V112.349H229.859V122.952C229.859 123.36 229.452 123.768 229.044 123.768H172.562C172.154 123.768 171.746 123.36 171.746 122.952H171.542ZM150.947 103.377C151.355 102.765 151.967 102.357 152.579 102.357H473.529C474.548 102.357 475.364 103.173 475.364 104.193V109.698C475.364 110.718 474.548 111.533 473.529 111.533H458.643C458.847 110.922 458.439 110.31 457.624 110.31H278.593C277.982 110.31 277.574 110.922 277.574 111.533H156.657C156.045 111.533 155.637 111.125 155.229 110.718L151.151 105.212C150.743 104.6 150.743 103.989 151.151 103.377H150.947Z" stroke="#434344" stroke-width="1.16044" stroke-miterlimit="10"/>
<path d="M374.021 140.692C374.021 151.907 382.993 161.083 394.208 161.083C405.423 161.083 414.395 151.907 414.395 140.692C414.395 129.477 405.219 120.301 394.208 120.301C382.993 120.301 374.021 129.477 374.021 140.692ZM380.75 140.896C380.75 133.351 386.868 127.234 394.208 127.234C401.549 127.234 407.666 133.351 407.666 140.896C407.666 148.44 401.549 154.558 394.208 154.558C386.868 154.558 380.75 148.44 380.75 140.896Z" stroke="#818285" stroke-width="0.257875" stroke-miterlimit="10"/>
<path d="M373.41 140.896C373.41 152.519 382.79 162.102 394.209 162.102C405.628 162.102 415.007 152.519 415.007 140.896C415.007 129.273 405.628 119.689 394.209 119.689C382.586 119.689 373.41 129.273 373.41 140.896ZM374.022 140.896C374.022 129.477 382.994 120.301 394.209 120.301C405.424 120.301 414.396 129.477 414.396 140.896C414.396 152.315 405.424 161.49 394.209 161.49C382.994 161.49 374.022 152.315 374.022 140.896Z" stroke="#818285" stroke-width="0.257875" stroke-miterlimit="10"/>
<path d="M370.556 144.566C370.556 143.343 370.556 142.323 370.556 140.896H371.575L370.556 140.692H369.536C369.536 139.469 369.536 138.245 369.536 137.226H370.556V136.818H369.536C369.74 135.594 369.944 134.575 370.352 133.351H371.371L370.352 132.944C370.76 131.924 371.167 130.701 371.575 129.681M370.556 144.566H371.575M370.556 144.566C370.556 145.994 370.963 147.217 371.371 148.237L372.391 147.829L371.371 148.441C371.371 149.664 371.983 150.684 372.595 151.703M372.595 151.703L373.614 151.295M372.595 151.703C373.206 152.723 373.818 153.742 374.43 154.762L375.246 154.15L374.43 154.966C375.042 155.985 375.857 156.801 376.673 157.616L377.489 156.801L376.673 157.82C377.489 158.636 378.304 159.452 379.324 160.063L379.935 159.248L379.324 160.267C380.139 160.879 381.159 161.491 382.178 162.102M382.178 162.102L382.586 161.083M382.178 162.102C383.198 162.714 384.421 163.122 385.441 163.53L385.849 162.51V163.53C386.868 163.938 387.888 164.141 389.111 164.345V163.326H389.519V164.345C390.742 164.345 391.762 164.345 392.985 164.345M392.985 164.345V163.326M392.985 164.345C394.209 164.345 395.432 164.345 396.452 164.345M396.452 164.345V163.326M396.452 164.345C397.675 164.345 398.899 163.938 399.918 163.53M399.918 163.53L399.51 162.51M399.918 163.53C401.142 163.122 402.161 162.714 403.181 162.102M403.181 162.102L402.773 161.083M403.181 162.102C404.2 161.491 405.016 160.879 406.036 160.267L405.424 159.452L406.036 160.063C407.055 159.452 407.871 158.636 408.686 157.82L407.871 157.005L408.686 157.616C409.502 156.801 410.318 155.985 410.929 154.966L410.114 154.354L410.929 154.762C411.541 153.742 412.153 152.723 412.764 151.703M412.764 151.703L411.745 151.295M412.764 151.703C413.172 150.684 413.58 149.46 413.988 148.441L412.968 148.033H413.988C414.396 146.809 414.6 145.79 414.804 144.566H413.784V144.159H414.804C414.804 143.139 414.804 141.916 414.804 140.692H413.784V140.284H414.804C414.804 139.061 414.804 138.041 414.396 136.818M414.396 136.818H413.376M414.396 136.818C414.192 135.391 413.988 134.167 413.58 133.148L412.561 133.555L413.58 132.944C413.58 131.72 412.968 130.701 412.357 129.681M412.357 129.681L411.337 130.089M412.357 129.681C411.745 128.662 411.133 127.642 410.521 126.623L409.706 127.234L410.521 126.419C409.91 125.399 409.094 124.583 408.279 123.768L407.463 124.583L408.279 123.564C407.463 122.748 406.647 121.933 405.628 121.321L405.016 122.137H404.812L405.424 121.117C404.608 120.505 403.589 119.894 402.569 119.282M402.569 119.282L402.161 120.301M402.569 119.282C401.55 118.67 400.326 118.262 399.307 117.854L398.899 118.67L399.307 117.651C398.287 117.243 397.268 117.039 396.044 116.835V117.854H395.636V116.835C394.413 116.835 393.393 116.835 392.17 116.835V117.854H391.762V116.835C390.539 116.835 389.519 116.835 388.296 116.835M388.296 116.835V117.854M388.296 116.835C387.072 116.835 385.849 117.243 384.829 117.651M384.829 117.651L385.237 118.67M384.829 117.651C383.606 118.058 382.586 118.466 381.567 119.078L381.974 120.097L381.363 119.282C380.343 119.894 379.528 120.505 378.508 121.117M378.508 121.117L379.12 121.933M378.508 121.117C377.489 121.729 376.673 122.544 375.857 123.36L376.673 124.176V124.583L375.653 123.768C374.838 124.583 374.022 125.399 373.41 126.419L374.226 127.03L373.41 126.623C372.799 127.642 372.187 128.662 371.575 129.681M371.575 129.681L372.595 130.089M372.595 140.896C372.595 134.983 374.838 129.477 378.916 125.399C382.994 121.117 388.5 118.874 394.209 118.874C399.918 118.874 405.424 121.321 409.502 125.399C413.58 129.477 415.823 134.983 415.823 140.896C415.823 146.809 413.58 152.315 409.502 156.393C405.424 160.675 399.918 162.918 394.209 162.918C388.5 162.918 382.994 160.471 378.916 156.393C374.838 152.315 372.595 146.809 372.595 140.896Z" stroke="#818285" stroke-width="0.257875" stroke-miterlimit="10"/>
<path d="M372.798 140.896C372.798 152.926 382.382 162.714 394.208 162.714C406.035 162.714 415.619 152.926 415.619 140.896C415.619 128.865 406.035 119.078 394.208 119.078C382.178 119.078 372.594 128.865 372.798 140.896ZM373.206 140.896C373.206 135.187 375.449 129.885 379.323 125.807C383.401 121.729 388.703 119.486 394.208 119.486C399.714 119.486 405.015 121.729 408.89 125.807C412.764 129.885 415.007 135.187 415.007 140.896C415.007 146.605 412.764 151.907 408.89 155.985C405.015 160.063 399.918 162.306 394.208 162.306C388.499 162.306 383.197 160.063 379.323 155.985C375.449 151.907 373.206 146.605 373.206 140.896Z" stroke="#818285" stroke-width="0.257875" stroke-miterlimit="10"/>
<path d="M385.645 140.896C385.645 145.79 389.519 149.664 394.209 149.664C398.899 149.664 402.773 145.79 402.773 140.896C402.773 136.002 398.899 132.128 394.209 132.128C389.519 132.128 385.645 136.002 385.645 140.896ZM388.499 139.061C388.295 139.469 388.091 139.673 387.684 139.469C387.276 139.265 387.072 139.061 387.276 138.653C387.48 138.245 387.684 138.041 388.091 138.245C388.499 138.245 388.499 138.653 388.499 139.061ZM390.538 136.002C390.334 136.002 389.927 136.002 389.723 136.002C389.519 136.002 389.723 135.39 389.723 135.187C389.927 135.187 390.334 135.187 390.538 135.187C390.742 135.187 390.538 135.798 390.538 136.002ZM394.82 134.167C394.82 134.575 394.82 134.779 394.209 134.779C393.597 134.779 393.597 134.575 393.597 134.167C393.597 133.759 393.597 133.555 394.209 133.555C394.82 133.555 394.82 133.555 394.82 134.167ZM398.491 135.798C398.287 136.206 397.879 136.206 397.675 135.798C397.267 135.798 397.267 135.187 397.675 134.983C397.879 134.575 398.287 134.575 398.491 134.983C398.899 135.187 398.899 135.594 398.491 135.798ZM399.714 142.731C399.918 142.323 400.122 142.119 400.53 142.323C400.938 142.527 401.141 142.731 400.938 143.139C400.734 143.547 400.53 143.751 400.122 143.547C400.122 143.547 399.714 143.139 399.714 142.731ZM400.122 138.245C400.53 138.245 400.734 138.245 400.938 138.653C400.938 139.061 400.938 139.265 400.53 139.469C400.122 139.469 399.714 139.469 399.714 139.061C399.714 138.653 399.918 138.245 400.122 138.245ZM397.675 145.79C397.879 145.79 398.287 145.79 398.491 145.79C398.695 145.79 398.491 146.401 398.491 146.605C398.287 146.605 397.879 146.605 397.675 146.605C397.471 146.605 397.675 145.994 397.675 145.79ZM393.597 147.625C393.597 147.217 393.597 147.013 394.209 147.013C394.82 147.013 394.82 147.217 394.82 147.625C394.82 148.033 394.82 148.237 394.209 148.237C393.597 148.237 393.597 147.829 393.597 147.625ZM389.723 145.994C389.927 145.586 390.334 145.586 390.538 145.994C390.946 145.994 390.946 146.605 390.538 146.809C390.334 147.217 389.927 147.217 389.723 146.809C389.519 146.401 389.315 146.198 389.723 145.994ZM389.111 140.896C389.111 138.041 391.354 135.798 394.209 135.798C397.063 135.798 399.306 138.041 399.306 140.896C399.306 143.751 397.063 145.994 394.209 145.994C391.354 145.994 389.111 143.751 389.111 140.896ZM387.684 142.323C388.091 142.323 388.499 142.323 388.499 142.731C388.499 143.139 388.499 143.343 388.091 143.547C387.684 143.547 387.276 143.547 387.276 143.139C387.276 142.731 387.276 142.527 387.684 142.323Z" stroke="#818285" stroke-width="0.257875" stroke-miterlimit="10"/>
<path d="M380.955 140.896C380.955 148.44 386.868 154.354 394.209 154.354C401.55 154.354 407.463 148.237 407.463 140.896C407.463 133.555 401.55 127.438 394.209 127.438C386.868 127.438 380.955 133.555 380.955 140.896ZM386.868 134.983V135.39C386.257 135.798 385.849 136.002 385.441 136.002C385.441 136.002 385.033 136.002 384.829 136.002C384.218 135.39 384.014 134.575 384.829 133.759C384.829 133.351 385.441 132.943 385.849 132.943C386.257 132.943 386.664 132.943 386.868 132.943C387.072 132.943 387.276 133.351 387.276 133.759C387.276 134.167 387.276 134.575 387.276 134.983H386.868ZM392.374 130.904C392.374 130.904 391.762 131.516 391.354 131.72H390.539C390.335 131.72 389.927 131.72 389.723 131.72C389.315 131.72 389.111 131.312 389.111 131.108C388.907 130.293 389.519 129.477 390.335 129.273C391.15 129.069 392.17 129.273 392.374 130.089V131.108V130.904ZM399.103 130.904C399.103 131.108 398.695 131.312 398.491 131.516C398.287 131.516 398.083 131.516 397.675 131.516H396.86C396.248 131.516 396.044 131.108 395.84 130.701V129.885C395.84 129.069 397.064 128.865 397.879 129.069C398.287 129.069 398.695 129.477 398.899 129.885C398.899 130.089 398.899 130.497 398.899 130.701L399.103 130.904ZM403.997 136.002C403.997 136.002 403.589 136.002 403.385 136.002C402.773 136.002 402.365 135.798 402.161 135.39V134.983C402.161 134.575 402.161 134.167 402.161 133.759C402.161 133.351 402.365 133.147 402.569 132.943C402.773 132.74 403.181 132.943 403.589 132.943C403.997 132.943 404.404 133.351 404.608 133.759C405.22 134.575 405.016 135.594 404.608 136.002H403.997ZM405.016 143.139C404.812 143.139 404.404 143.139 404.2 142.731C403.793 142.323 403.589 141.915 403.589 141.508V141.1C403.589 140.488 403.589 140.08 404.2 139.876C404.404 139.876 404.812 139.469 405.016 139.469C405.832 139.469 406.443 140.08 406.443 141.1C406.443 142.119 405.832 142.731 405.016 143.139ZM401.55 147.217V146.809C402.161 146.401 402.569 146.197 402.977 146.197C403.181 146.197 403.589 146.197 403.793 146.197C404.404 146.809 404.608 147.625 403.793 148.44C403.793 148.644 403.181 149.052 402.773 149.052H402.365C402.365 149.052 401.958 149.052 401.754 149.052C401.55 149.052 401.346 148.644 401.346 148.237C401.346 147.829 401.346 147.217 401.346 147.217H401.55ZM395.84 151.091C395.84 151.091 396.452 150.479 396.86 150.276H397.268C397.675 150.276 398.083 150.276 398.491 150.276C398.899 150.276 399.103 150.683 399.103 150.887C399.307 151.703 398.695 152.519 397.879 152.722H397.268C396.656 152.722 396.044 152.722 395.84 151.907C395.84 151.907 395.84 151.295 395.84 150.887V151.091ZM389.111 151.091C389.111 150.887 389.519 150.683 389.723 150.479C390.131 150.479 390.539 150.072 390.947 150.479H391.354C391.966 150.479 392.17 150.887 392.374 151.295V152.111C392.17 152.519 391.558 152.926 390.947 152.926H390.335C389.519 152.926 388.907 151.907 389.111 151.295V151.091ZM385.645 140.896C385.645 136.002 389.519 132.128 394.209 132.128C398.899 132.128 402.773 136.002 402.773 140.896C402.773 145.79 398.899 149.664 394.209 149.664C389.519 149.664 385.441 145.79 385.645 140.896ZM383.81 146.809C383.81 146.401 384.014 145.994 384.218 145.79C384.421 145.79 384.625 145.79 385.033 145.79C385.441 145.79 386.053 145.994 386.257 146.401V146.809C386.257 147.217 386.257 147.625 386.257 148.033C386.257 148.44 386.053 148.644 385.849 148.848C385.645 149.052 385.441 148.848 385.237 148.848H384.829C384.421 148.848 384.014 148.848 383.81 148.237C383.81 147.829 383.402 147.421 383.402 146.809H383.81ZM381.771 140.488C381.771 139.672 382.382 138.857 383.198 138.857C384.014 138.857 383.81 138.857 384.014 139.265C384.422 139.672 384.625 140.08 384.625 140.488V140.896C384.625 141.508 384.625 141.915 384.014 142.119C383.81 142.119 383.402 142.527 383.198 142.527C382.586 142.527 381.975 141.711 381.771 140.488Z" stroke="#818285" stroke-width="0.257875" stroke-miterlimit="10"/>
<path d="M394.005 116.835C407.259 116.835 417.862 127.642 417.862 140.896C417.862 154.15 407.259 165.161 394.005 165.365C380.751 165.365 370.147 154.558 370.147 141.1C370.147 127.642 380.955 116.835 394.005 116.835ZM394.005 114.592C379.935 114.592 368.312 126.418 368.108 140.896C368.108 155.373 379.731 167.2 394.005 167.2C408.278 167.2 419.901 155.373 419.901 140.896C419.901 126.418 408.278 114.592 394.005 114.592Z" fill="#818285"/>
<path d="M322.638 140.692C322.638 151.907 331.814 161.083 342.824 161.083C353.835 161.083 363.011 151.907 363.011 140.692C363.011 129.477 353.835 120.301 342.824 120.301C331.814 120.301 322.842 129.477 322.638 140.692ZM329.367 140.896C329.367 133.351 335.484 127.234 342.824 127.234C350.165 127.234 356.282 133.351 356.282 140.896C356.282 148.44 350.165 154.558 342.824 154.558C335.484 154.558 329.367 148.44 329.367 140.896Z" stroke="#818285" stroke-width="0.257875" stroke-miterlimit="10"/>
<path d="M322.025 140.896C322.025 152.519 331.405 162.102 342.824 162.102C354.243 162.102 363.622 152.519 363.622 140.896C363.622 129.273 354.243 119.689 342.824 119.689C331.405 119.689 322.025 129.273 322.025 140.896ZM322.637 140.896C322.637 129.477 331.609 120.301 342.824 120.301C354.039 120.301 363.011 129.477 363.011 140.896C363.011 152.315 354.039 161.49 342.824 161.49C331.609 161.49 322.637 152.315 322.637 140.896Z" stroke="#818285" stroke-width="0.257875" stroke-miterlimit="10"/>
<path d="M319.374 144.566C319.374 143.343 319.374 142.323 319.374 140.896H320.19H319.782H318.763C318.763 139.673 318.763 138.449 318.763 137.43H319.782V137.022H318.763C318.967 135.798 319.17 134.779 319.578 133.555H320.598L319.578 133.147C319.986 132.128 320.394 130.905 320.802 129.885L322.025 130.293L321.006 129.885C321.617 128.865 322.229 127.846 322.841 126.826L323.656 127.234L322.841 126.622C323.453 125.603 324.268 124.787 325.084 123.972L325.899 124.583L325.084 123.768C325.899 122.952 326.715 122.137 327.735 121.525L328.142 122.136L327.531 121.321C328.55 120.709 329.366 120.097 330.385 119.486L330.997 120.301L330.589 119.282C331.609 118.67 332.628 118.262 333.852 117.854M319.374 144.566H320.394M319.374 144.566C319.374 145.994 319.782 147.217 320.19 148.237L321.21 147.829L320.19 148.441C320.19 149.664 320.802 150.684 321.413 151.703M321.413 151.703L322.433 151.295M321.413 151.703C322.025 152.723 322.637 153.742 323.249 154.762L324.064 154.15L323.249 154.966C323.86 155.985 324.676 156.801 325.492 157.616L326.307 156.801L325.492 157.82C326.307 158.636 327.123 159.452 328.142 160.063L328.754 159.248L328.142 160.267C328.958 160.879 329.978 161.491 330.997 162.102M330.997 162.102L331.405 161.083M330.997 162.102C332.017 162.714 333.24 163.122 334.26 163.53M334.26 163.53L334.667 162.51M334.26 163.53C335.279 163.937 336.299 164.141 337.522 164.345V163.326H337.93V164.345C339.153 164.345 340.173 164.345 341.396 164.345M341.396 164.345V163.326M341.396 164.345C342.62 164.345 343.639 164.345 344.863 164.345V163.326H345.067V164.345C346.29 164.345 347.514 163.937 348.533 163.53M348.533 163.53L348.125 162.51M348.533 163.53C349.757 163.122 350.776 162.714 351.796 162.102M351.796 162.102L351.388 161.083M351.796 162.102C352.815 161.491 353.631 160.879 354.65 160.267L354.039 159.452L354.65 160.063C355.67 159.452 356.486 158.636 357.301 157.82L356.486 157.005L357.301 157.616C358.117 156.801 358.932 155.985 359.544 154.966L358.728 154.354L359.544 154.762C360.156 153.742 360.768 152.723 361.379 151.703M361.379 151.703L360.36 151.295M361.379 151.703C361.787 150.684 362.195 149.46 362.603 148.441L361.583 148.033H362.603C363.011 146.809 363.214 145.79 363.418 144.566L362.399 144.158H363.418C363.418 143.139 363.418 141.916 363.418 140.692H362.399V140.284H363.418C363.418 139.061 363.418 138.041 363.418 136.818M363.418 136.818H362.399M363.418 136.818C363.418 135.39 363.011 134.167 362.603 133.147L361.583 133.555L362.603 132.944C362.603 131.72 361.991 130.701 361.379 129.681M361.379 129.681L360.36 130.089M361.379 129.681C360.768 128.662 360.156 127.642 359.544 126.622L358.728 127.234L359.544 126.419C358.932 125.399 358.117 124.583 357.301 123.768L356.486 124.583L357.097 123.564C356.282 122.748 355.466 121.933 354.446 121.321L353.835 122.136L354.446 121.117C353.631 120.505 352.611 119.894 351.592 119.282M351.592 119.282L351.184 120.301M351.592 119.282C350.572 118.67 349.349 118.262 348.329 117.854M348.329 117.854L347.921 118.874M348.329 117.854C347.31 117.447 346.29 117.243 345.067 117.039V118.058H344.659V117.039C343.435 117.039 342.416 117.039 341.192 117.039V118.058H340.785V117.039C339.561 117.039 338.338 117.039 337.318 117.039M337.318 117.039V118.058M337.318 117.039C336.095 117.039 334.871 117.447 333.852 117.854M333.852 117.854L334.26 118.874M321.21 140.896C321.21 134.983 323.453 129.477 327.531 125.399C331.609 121.117 337.114 118.874 342.824 118.874C348.533 118.874 354.039 121.321 358.117 125.399C362.195 129.477 364.438 134.983 364.438 140.896C364.438 146.809 362.195 152.315 358.117 156.393C354.039 160.675 348.533 162.918 342.824 162.918C337.114 162.918 331.609 160.471 327.531 156.393C323.453 152.315 321.21 146.809 321.21 140.896Z" stroke="#818285" stroke-width="0.257875" stroke-miterlimit="10"/>
<path d="M321.414 140.896C321.414 152.926 330.998 162.714 342.824 162.714C354.651 162.714 364.235 152.926 364.235 140.896C364.235 128.865 354.651 119.078 342.824 119.078C330.998 119.078 321.414 128.865 321.414 140.896ZM322.026 140.896C322.026 135.187 324.269 129.885 328.143 125.807C332.221 121.729 337.523 119.486 343.028 119.486C348.534 119.486 353.835 121.729 357.71 125.807C361.584 129.885 363.827 135.187 363.827 140.896C363.827 146.605 361.584 151.907 357.71 155.985C353.835 160.063 348.534 162.306 343.028 162.306C337.523 162.306 332.017 160.063 328.143 155.985C324.065 151.907 322.026 146.605 322.026 140.896Z" stroke="#818285" stroke-width="0.257875" stroke-miterlimit="10"/>
<path d="M334.26 140.896C334.26 145.79 338.134 149.664 342.824 149.664C347.514 149.664 351.388 145.79 351.388 140.896C351.388 136.002 347.514 132.128 342.824 132.128C338.134 132.128 334.26 136.002 334.26 140.896ZM337.318 139.061C337.318 139.469 336.911 139.673 336.503 139.469C336.095 139.265 335.891 139.061 336.095 138.653C336.299 138.245 336.503 138.041 336.911 138.245C336.911 138.245 337.318 138.653 337.318 139.061ZM339.357 136.002C339.357 136.002 338.746 136.002 338.542 136.002C338.338 136.002 338.542 135.39 338.542 135.187C338.542 134.983 339.154 135.187 339.357 135.187C339.561 135.187 339.357 135.798 339.357 136.002ZM343.436 134.167C343.436 134.575 343.232 134.779 342.824 134.779C342.416 134.779 342.212 134.575 342.212 134.167C342.212 133.759 342.416 133.555 342.824 133.555C343.232 133.555 343.436 133.555 343.436 134.167ZM347.31 135.798C347.31 136.206 346.698 136.206 346.494 135.798C346.086 135.798 346.086 135.187 346.494 134.983C346.494 134.575 347.106 134.575 347.31 134.983C347.31 135.187 347.718 135.594 347.31 135.798ZM348.533 142.731C348.533 142.323 348.941 142.119 349.349 142.323C349.757 142.527 349.961 142.731 349.757 143.139C349.553 143.547 349.349 143.751 348.941 143.547C348.533 143.343 348.533 143.139 348.533 142.731ZM348.941 138.245C349.349 138.245 349.553 138.245 349.757 138.653C349.757 139.061 349.757 139.265 349.349 139.469C348.941 139.469 348.533 139.469 348.533 139.061C348.533 138.653 348.533 138.245 348.941 138.245ZM346.494 145.79C346.494 145.79 347.106 145.79 347.31 145.79C347.514 145.79 347.31 146.401 347.31 146.605C347.31 146.809 346.698 146.605 346.494 146.605C346.29 146.605 346.494 145.994 346.494 145.79ZM342.212 147.625C342.212 147.217 342.416 147.013 342.824 147.013C343.232 147.013 343.436 147.217 343.436 147.625C343.436 148.033 343.232 148.237 342.824 148.237C342.416 148.237 342.212 147.829 342.212 147.625ZM338.542 145.994C338.542 145.586 339.154 145.586 339.357 145.994C339.765 145.994 339.765 146.605 339.357 146.809C339.357 147.217 338.746 147.217 338.542 146.809C338.134 146.809 338.134 146.198 338.542 145.994ZM337.726 140.896C337.726 138.041 339.969 135.798 342.824 135.798C345.679 135.798 347.922 138.041 347.922 140.896C347.922 143.751 345.679 145.994 342.824 145.994C339.969 145.994 337.726 143.751 337.726 140.896ZM336.503 142.323C336.911 142.323 337.114 142.323 337.318 142.731C337.318 143.139 337.318 143.343 336.911 143.547C336.503 143.547 336.095 143.547 336.095 143.139C336.095 142.731 336.095 142.527 336.503 142.323Z" stroke="#818285" stroke-width="0.257875" stroke-miterlimit="10"/>
<path d="M329.57 140.896C329.57 148.44 335.484 154.354 342.824 154.354C350.165 154.354 356.078 148.237 356.078 140.896C356.078 133.555 350.165 127.438 342.824 127.438C335.484 127.438 329.774 133.555 329.57 140.896ZM335.484 134.983V135.39C334.872 135.798 334.464 136.002 334.056 136.002C333.852 136.002 333.648 136.002 333.445 136.002C332.833 135.39 332.629 134.575 333.445 133.759C333.445 133.351 334.056 132.943 334.464 132.943C334.872 132.943 335.28 132.943 335.484 132.943C335.688 132.943 335.891 133.351 335.891 133.759C335.891 134.167 335.891 134.575 335.891 134.983H335.484ZM340.989 130.904C340.989 130.904 340.377 131.516 339.97 131.72H339.154C339.154 131.72 338.542 131.72 338.338 131.72C337.931 131.72 337.727 131.312 337.727 131.108C337.727 130.293 338.134 129.477 338.95 129.273C339.766 129.069 340.785 129.273 340.989 130.089C340.989 130.293 340.989 130.7 340.989 131.108V130.904ZM347.922 130.904L347.31 131.516C347.31 131.516 346.699 131.516 346.495 131.516H345.679C345.067 131.516 344.863 131.108 344.659 130.701V129.885C344.659 129.069 345.883 128.865 346.699 129.069C347.106 129.069 347.514 129.477 347.718 129.885C347.718 130.089 347.718 130.497 347.718 130.701L347.922 130.904ZM352.612 136.002C352.408 136.002 352.204 136.002 352 136.002C351.592 136.002 350.981 135.798 350.777 135.39V134.983C350.777 134.575 350.777 134.167 350.777 133.759C350.777 133.351 350.777 133.147 351.184 132.943C351.592 132.74 351.796 132.943 352.204 132.943C352.612 132.943 353.02 133.351 353.224 133.759C353.631 134.575 353.631 135.594 353.224 136.002H352.612ZM353.631 143.139C353.631 143.139 353.02 143.139 352.816 142.731C352.408 142.323 352.204 141.915 352.204 141.508V141.1C352.204 140.488 352.408 140.08 352.816 139.876C352.816 139.876 353.427 139.469 353.631 139.469C354.447 139.469 355.059 140.08 355.059 141.1C355.059 142.119 354.447 142.731 353.631 143.139ZM350.165 147.217V146.809C350.777 146.401 351.184 146.197 351.592 146.197C351.592 146.197 352.204 146.197 352.408 146.197C353.02 146.809 353.224 147.625 352.408 148.44C352.408 148.644 351.796 149.052 351.388 149.052H350.981C350.777 149.052 350.573 149.052 350.369 149.052C350.165 149.052 349.961 148.644 349.961 148.237V147.217H350.165ZM344.659 151.091C344.659 151.091 345.271 150.479 345.679 150.276H346.087C346.495 150.276 346.902 150.276 347.31 150.276C347.718 150.276 347.922 150.683 347.922 150.887C347.922 151.703 347.514 152.519 346.699 152.722H346.087C345.475 152.722 344.863 152.722 344.659 151.907V150.887V151.091ZM337.931 151.091L338.542 150.479C338.95 150.479 339.358 150.072 339.766 150.479H340.174C340.785 150.479 340.989 150.887 341.193 151.295V152.111C341.193 152.519 340.377 152.926 339.766 152.926H339.154C338.338 152.926 337.727 151.907 337.931 151.295V151.091ZM334.26 140.896C334.26 136.002 338.134 132.128 342.824 132.128C347.514 132.128 351.388 136.002 351.388 140.896C351.388 145.79 347.514 149.664 342.824 149.664C338.134 149.664 334.26 145.79 334.26 140.896ZM332.629 146.809C332.629 146.401 332.629 145.994 333.037 145.79C333.445 145.586 333.445 145.79 333.852 145.79C334.26 145.79 334.872 145.994 335.076 146.401V146.809C335.076 147.217 335.076 147.625 335.076 148.033C335.076 148.44 335.076 148.644 334.668 148.848C334.464 148.848 334.26 148.848 334.056 148.848H333.648C333.241 148.848 332.833 148.644 332.629 148.237C332.425 147.829 332.221 147.421 332.221 146.809H332.629ZM330.59 140.488C330.59 139.672 331.202 138.857 332.017 138.857C332.833 138.857 332.629 138.857 332.833 139.265C333.241 139.672 333.445 140.08 333.445 140.488V140.896C333.445 141.508 333.241 141.915 332.833 142.119C332.833 142.119 332.221 142.527 332.017 142.527C331.202 142.527 330.59 141.711 330.59 140.488Z" stroke="#818285" stroke-width="0.257875" stroke-miterlimit="10"/>
<path d="M342.824 116.835C355.874 116.835 366.681 127.642 366.681 141.1C366.681 154.558 355.874 165.365 342.824 165.365C329.774 165.365 318.967 154.558 318.967 141.1C318.967 127.642 329.774 116.835 342.824 116.835ZM342.824 114.592C328.55 114.592 316.928 126.418 316.928 140.896C316.928 155.373 328.55 167.2 342.824 167.2C357.097 167.2 368.72 155.373 368.72 140.896C368.72 126.418 357.097 114.592 342.824 114.592Z" fill="#818285"/>
</g>
<defs>
<clipPath id="clip0_404_997">
<rect width="485.818" height="167" fill="white" transform="translate(0 0.199951)"/>
</clipPath>
</defs>
</svg>
