<svg width="479" height="127" viewBox="0 0 479 127" fill="none" xmlns="http://www.w3.org/2000/svg">
<path d="M204.261 111.598H249.744V122.195C249.744 122.603 249.334 123.01 248.924 123.01H245.851C245.441 123.01 245.032 123.418 245.032 123.825V125.048C245.032 125.456 245.441 125.863 245.851 125.863H317.763C318.172 125.863 318.582 125.456 318.582 125.048V123.825C318.582 123.418 318.172 123.01 317.763 123.01H314.689C314.28 123.01 313.87 122.603 313.87 122.195V111.598H326.163C326.982 111.598 327.802 111.191 328.211 110.579L332.309 105.077C332.719 104.466 332.923 103.855 332.923 103.243H476.132C477.156 103.243 477.976 102.428 477.976 101.409V2.57452C477.976 1.55561 477.361 0.740479 476.337 0.740479H2.8683C1.84392 0.740479 1.02441 1.55561 1.02441 2.57452V101.409C1.02441 102.428 1.84392 103.243 2.8683 103.243H5.32681V108.949C5.32681 110.376 6.55606 111.598 7.9902 111.598H23.151M311.207 122.399C311.207 122.806 310.797 123.214 310.387 123.214H253.636C253.227 123.214 252.817 122.806 252.817 122.399V111.802H311.411V122.399H311.207ZM331.899 104.67L327.802 110.172C327.392 110.579 326.982 110.987 326.367 110.987H204.876C204.876 110.376 204.466 109.764 203.852 109.764H23.9705C23.151 109.764 22.7413 110.376 22.9461 110.987H7.9902C6.96582 110.987 6.14631 110.172 6.14631 109.153V103.651C6.14631 102.632 6.96582 101.817 7.9902 101.817H330.465C331.08 101.817 331.694 102.224 332.104 102.836C332.309 103.447 332.309 104.058 332.104 104.67H331.899Z" stroke="#434344" stroke-width="1.18255" stroke-miterlimit="10"/>
</svg>
